<svg width="735" height="652" viewBox="0 0 735 652" fill="none" xmlns="http://www.w3.org/2000/svg">
<path d="M107.31 260.504V111.401L70.0272 148.682L91.0329 169.688L91.3894 170.21L104.696 263.142L107.31 260.528V260.504ZM710.751 652L670.498 584.969L664.201 578.482L657.714 584.969L617.46 652H614.134L602.229 640.286L590.514 652H587.187H587.354L546.934 584.969L540.637 578.482L534.34 584.969L493.921 652H490.76L478.856 640.286L466.951 652H463.79L423.537 584.969L417.05 578.482L410.753 584.969L370.5 652H367.173L355.268 640.286L343.364 652H340.203L299.95 584.969L293.653 578.482L287.166 584.969L246.913 652H243.753L231.848 640.286L219.943 652H216.782L176.529 584.969L170.042 578.482L163.745 584.969L123.492 652H120.165L108.261 640.286L96.3557 652H93.1953L52.9422 584.969L46.6452 578.482L40.1581 584.969L0.0237622 652V647.628L38.5185 583.567L38.6848 583.4L45.1719 576.913L28.5384 560.47L22.2414 566.767L0.0237622 633.276V626.266L20.1503 565.722L20.5068 565.199L34.1463 551.56L17.7028 534.927L4.22967 548.4L0.0237622 577.626V561.516L1.9485 547.687L2.30493 547.164L23.3107 526.159L0.0237622 502.872V499.712L6.84351 506.365L23.2869 489.732L0 466.446V463.286C8.93458 472.03 17.6791 480.964 26.4235 489.708L8.38805 507.91L26.4235 526.111L19.2474 533.287L37.4492 551.489L30.1067 558.831L46.7402 575.274L63.1837 558.831L56.0075 551.489L74.2093 533.287L66.8668 526.111L85.0686 507.91L66.8668 489.708L93.2903 463.286L53.0372 396.088L46.7402 389.791L40.2531 396.088L0.0237622 463.333V458.961L38.5185 394.9L38.6848 394.734L45.1719 388.247L28.5384 371.614L22.2414 377.91L0.0237622 444.609V437.433L20.1503 376.889L20.5068 376.532L34.1463 362.703L17.7028 346.26L4.22967 359.733L0.0237622 388.793V372.683L1.9485 359.044L2.30493 358.355L23.3107 337.349L0.0237622 314.063V310.903L6.84351 317.556L23.2869 301.113L0 277.827V274.5V270.128L38.4947 206.067L38.6611 205.9L45.1482 199.413L28.5146 182.97L22.2176 189.101L0.0237622 255.942V248.766L20.3167 188.222L20.483 187.699L34.1225 174.06L17.6791 157.427L4.20591 170.9L0 200.126V184.206L1.92474 170.21L2.28117 169.688L23.2869 148.682L0.0237622 125.396V122.07L6.84351 128.889L23.2869 112.256L0.0237622 88.9935V85.8332C8.95834 94.5774 17.7028 103.512 26.6374 112.256L8.43558 130.457L26.4711 148.659L19.2949 155.835L37.4967 174.036L30.1542 181.212L46.7877 197.845L63.4213 181.212L56.0788 174.036L74.2806 155.835L66.9381 148.659L85.1399 130.457L66.9381 112.256L93.3616 85.8332L53.1085 18.6355L46.8115 12.3386L40.3244 18.6355L0.0237622 85.8332V81.2947L38.5185 17.4236L38.6848 17.0672L45.1719 10.5803L28.5384 -5.86272L22.2414 0.43409L0.0237622 67.109V59.9331L20.1503 -0.611412L20.5068 -0.967842L34.1463 -14.7971L17.7028 -31.2401L4.22967 -17.7673L0.0237622 11.2931V-4.81721L1.9485 -18.4563L2.30493 -19.1454L23.3107 -40.1507L0.0237622 -63.437V-66.5973L6.67717 -59.944L23.3107 -76.387L0.0237622 -99.6734V-103C8.95834 -94.0657 17.7028 -85.3214 26.4473 -76.387L8.41181 -58.352L26.4473 -40.1507L19.2711 -32.8083L37.473 -14.7733L30.1305 -7.43098L46.764 9.01202L63.2074 -7.43098L56.0312 -14.7733L74.2331 -32.8083L66.8905 -40.1507L85.0924 -58.1857L66.8905 -76.387L93.3141 -103H96.4745L96.3081 -102.644L108.569 -82.3512L120.617 -102.644L120.26 -103H123.587C132.332 -94.0657 141.266 -85.3214 150.011 -76.387L131.809 -58.352L150.011 -40.1507L142.668 -32.8083L160.87 -14.7733L153.694 -7.43098L170.137 9.01202L186.771 -7.43098L179.428 -14.7733L197.63 -32.8083L190.454 -40.1507L208.489 -58.1857L190.288 -76.387L216.877 -103H220.038L219.681 -102.644L231.943 -82.3512L244.18 -102.644L243.824 -103H246.984C255.919 -94.0657 264.663 -85.3214 273.598 -76.387L255.396 -58.352L273.431 -40.1507L266.255 -32.8083L284.457 -14.7733L277.115 -7.43098L293.748 9.01202L310.192 -7.43098L303.015 -14.7733L321.217 -32.8083L313.875 -40.1507L332.077 -58.1857L313.875 -76.387L340.298 -103H343.625L343.269 -102.644L355.53 -82.3512L367.553 -102.644L367.197 -103H370.524C379.268 -94.0657 388.203 -85.3214 396.947 -76.387L378.745 -58.352L396.947 -40.1507L389.771 -32.8083L407.807 -14.7733L400.63 -7.43098L417.074 9.01202L433.707 -7.43098L426.531 -14.7733L444.567 -32.8083L437.391 -40.1507L455.426 -58.1857L437.224 -76.387L463.838 -103H466.998L466.642 -102.644L478.903 -82.3512L491.117 -102.644L490.76 -103H493.921C502.855 -94.0657 511.6 -85.3214 520.534 -76.387L502.333 -58.352L520.534 -40.1507L513.192 -32.8083L531.394 -14.7733L524.051 -7.43098L540.685 9.01202L557.318 -7.43098L549.976 -14.7733L568.178 -32.8083L560.835 -40.1507L579.037 -58.1857L560.835 -76.387L587.259 -103H590.585L590.229 -102.644L602.49 -82.3512L614.752 -102.644L614.229 -103H617.555C626.3 -94.0657 635.235 -85.3214 643.979 -76.387L625.777 -58.352L643.979 -40.1507L636.803 -32.8083L654.838 -14.7733L647.662 -7.43098L664.296 9.01202L680.739 -7.43098L673.563 -14.7733L691.598 -32.8083L684.422 -40.1507L702.458 -58.1857L684.256 -76.387L710.87 -103H714.03L713.864 -102.644L725.935 -82.3512L738.196 -102.644L737.84 -103H741V-99.6734L739.955 -100.909L727.527 -80.2602L741 -66.621V-63.4608L727.17 -77.4563V71.8376L729.784 74.4514L740.976 -4.81721V11.2931L731.709 76.3998L734.513 79.37L741 59.9331V67.109L736.461 81.1046L739.432 84.0748L741 81.271V85.8094V88.9697L739.764 87.7341L727.337 108.383L740.976 122.022V125.349L727.147 111.353V260.647L729.76 263.261L740.953 183.992V200.103L731.685 265.209L734.656 268.013L740.953 248.766V255.942L736.414 269.938L739.384 272.908L740.953 270.104V274.476V277.803L739.907 276.567L727.479 297.216L740.953 310.855V314.015L727.123 300.186V449.29L729.737 451.904L740.929 372.635V388.746L731.661 454.019L734.465 456.823L740.953 437.385V444.562L736.414 458.557L739.384 461.527L740.953 458.914V463.286V466.446L739.717 465.21L727.289 486.025L740.929 499.665V502.825L727.099 488.829V638.123L729.713 640.737L740.905 561.468V577.389L731.638 642.662L734.442 645.632L740.929 626.195V633.205L736.39 647.39L739.36 650.36L740.929 647.557V651.929H737.768L725.863 640.214L713.959 651.929H710.798L710.751 652ZM712.509 650.432L715.479 647.271L688.533 566.767L682.236 560.47L665.793 576.913L672.28 583.4L672.446 583.567L712.533 650.432H712.509ZM717.238 645.537L720.042 642.733L706.569 548.4L693.095 535.093L676.652 551.536L690.292 565.175L690.648 565.698L717.262 645.513L717.238 645.537ZM722.133 640.642L724.747 638.028V488.924L687.464 526.206L708.47 547.212L708.826 547.734L722.133 640.666V640.642ZM724.414 485.93L711.986 465.282L687.488 489.78L704.121 506.413L724.414 485.93ZM710.774 463.357L670.521 396.159L664.224 389.862L657.737 396.159L617.484 463.357C626.229 472.101 635.163 481.036 643.908 489.78L625.706 507.981L643.908 526.182L636.732 533.358L654.767 551.56L647.591 558.902L664.224 575.345L680.668 558.902L673.492 551.56L691.527 533.358L684.351 526.182L702.386 507.981L684.185 489.78L710.798 463.357H710.774ZM664.224 386.702L680.668 370.069L673.492 362.727L691.527 344.692L684.351 337.349L702.386 319.314L684.185 301.113L710.798 274.5L670.545 207.469L664.248 200.982L657.761 207.469L617.508 274.5C626.252 283.434 635.187 292.179 643.932 301.113L625.73 319.314L643.932 337.349L636.755 344.692L654.791 362.727L647.615 370.069L664.248 386.702H664.224ZM712.533 272.956L715.503 269.795L688.557 189.125L682.26 182.994L665.816 199.437L672.304 205.924L672.47 206.09L712.557 272.956H712.533ZM717.262 268.061L720.232 265.257L706.592 170.923L693.286 157.451L676.652 174.084L690.482 187.723L690.648 188.246L717.262 268.061ZM722.157 263.166L724.77 260.552V111.448L687.488 148.73L708.493 169.735L708.85 170.258L722.157 263.189V263.166ZM738.077 274.88L725.816 262.619L713.745 274.88L725.816 295.173L738.077 274.88ZM712.01 276.448L687.511 301.137L704.145 317.77L724.438 297.287L712.01 276.472V276.448ZM724.794 300.258L687.511 337.349L708.517 358.355L708.874 359.044L722.18 451.975L724.794 449.361V300.258ZM720.065 453.924L706.592 359.757L693.119 346.284L676.676 362.727L690.315 376.556L690.672 376.912L717.285 456.894L720.089 453.924H720.065ZM715.527 458.652L688.581 377.982L682.284 371.685L665.84 388.318L672.327 394.805L672.494 394.971L712.58 461.646L715.551 458.676L715.527 458.652ZM713.602 463.737L725.863 484.029L738.125 463.737L725.863 451.476L713.602 463.737ZM724.462 108.478L712.034 87.8291L687.535 112.327L704.169 128.96L724.462 108.478ZM710.822 85.9044L670.569 18.7067L664.272 12.4099L657.785 18.7067L617.532 85.9044C626.276 94.6487 635.211 103.417 643.955 112.327L625.92 130.529L643.955 148.73L636.779 155.906L654.981 174.107L647.638 181.283L664.272 197.916L680.715 181.283L673.539 174.107L691.575 155.906L684.398 148.73L702.434 130.529L684.398 112.327L710.822 85.9044ZM712.058 -101.004L687.559 -76.3158L704.002 -59.8728L724.485 -80.1651L712.058 -100.98V-101.004ZM724.842 -77.385L687.559 -40.1031L708.565 -19.0979L708.921 -18.4088L722.228 74.5227L724.842 71.9089V-77.4563V-77.385ZM720.113 76.4473L706.64 -17.7197L693.167 -31.1926L676.723 -14.7495L690.363 -0.920319L690.719 -0.563889L717.333 79.4175L720.137 76.4473H720.113ZM715.574 81.1759L688.628 0.505386L682.331 -5.79144L665.888 10.6516L672.375 17.1385L672.541 17.4949L712.628 84.1698L715.598 81.1996L715.574 81.1759ZM713.816 86.2609L725.887 106.553L738.149 86.2609L725.887 73.9999L713.816 86.2609ZM589.041 650.503L592.011 647.343L565.231 566.839L558.934 560.542L542.301 576.985L548.788 583.472L548.954 583.638L589.041 650.503ZM593.936 645.608L596.74 642.804L583.267 548.471L569.793 535.164L553.16 551.607L566.99 565.247L567.156 565.769L593.936 645.584V645.608ZM598.664 640.713L601.278 638.099V488.996L564.186 526.278L585.001 547.283L585.358 547.806L598.664 640.737V640.713ZM603.56 638.266L606.173 640.88L619.48 547.782L619.837 547.259L640.842 526.254L603.56 488.972V638.266ZM608.288 642.828L611.092 645.798L637.706 565.817L638.062 565.294L651.702 551.655L635.258 535.022L621.785 548.495L608.312 642.828H608.288ZM612.827 647.557L615.797 650.527L655.884 583.662L656.05 583.495L662.537 577.008L646.094 560.565L639.797 566.862L612.851 647.533L612.827 647.557ZM601.112 486.025L588.518 465.377L564.019 489.875L580.653 506.508L601.136 486.025H601.112ZM587.473 463.452L547.053 396.254L540.756 389.957L534.459 396.254L494.04 463.452C502.974 472.196 511.719 481.131 520.653 489.875L502.451 508.076L520.653 526.278L513.311 533.454L531.513 551.655L524.17 558.997L540.804 575.44L557.437 558.997L550.095 551.655L568.296 533.454L560.954 526.278L579.156 508.076L560.954 489.875L587.568 463.452H587.473ZM540.732 386.797L557.366 370.164L550.023 362.822L568.225 344.787L560.883 337.444L579.084 319.409L560.883 301.208L587.496 274.595L547.243 207.564L540.756 201.077L534.459 207.564L494.04 274.595C502.974 283.529 511.719 292.274 520.653 301.208L502.451 319.409L520.653 337.444L513.311 344.787L531.513 362.822L524.17 370.164L540.804 386.797H540.732ZM589.041 273.051L592.011 269.89L565.231 189.22L558.934 183.089L542.301 199.532L548.788 206.019L548.954 206.185L589.041 273.051ZM593.936 268.156L596.74 265.352L583.267 171.018L569.793 157.546L553.35 174.179L566.99 187.818L567.346 188.341L593.96 268.156H593.936ZM598.664 263.261L601.278 260.647V111.543L564.186 148.825L585.191 169.83L585.358 170.353L598.664 263.285V263.261ZM603.56 260.813L606.173 263.427L619.48 170.329L619.837 169.807L640.842 148.801L603.56 111.519V260.813ZM608.288 265.352L611.092 268.156L637.706 188.341L638.062 187.818L651.702 174.179L635.258 157.546L621.785 171.018L608.312 265.352H608.288ZM612.827 270.08L615.797 273.051L656.05 206.185L656.217 206.019L662.513 199.532L646.07 183.089L639.773 189.22L612.827 270.08ZM616.32 465.4L603.892 486.216L624.185 506.508L640.819 489.875L616.32 465.377V465.4ZM548.93 395.042L589.017 461.717L591.987 458.747L565.207 378.077L558.91 371.78L542.277 388.413L548.764 394.9L548.93 395.066V395.042ZM590.229 463.832L602.49 484.125L614.561 463.832L602.49 451.571L590.229 463.832ZM615.773 461.741L655.86 395.066L656.026 394.9L662.513 388.413L646.07 371.78L639.773 378.077L612.827 458.747L615.797 461.717L615.773 461.741ZM611.045 457.013L637.658 377.031L638.015 376.675L651.654 362.845L635.211 346.402L621.738 359.875L608.264 454.209L611.068 457.013H611.045ZM606.15 452.118L619.456 359.186L619.813 358.497L640.819 337.492L603.536 300.4V449.504L606.15 452.118ZM601.255 300.376L564.162 337.468L584.977 358.473L585.334 359.162L598.641 452.094L601.255 449.48V300.376ZM596.716 454.042L583.243 359.875L569.77 346.402L553.136 362.845L566.966 376.675L567.132 377.031L593.912 457.013L596.716 454.042ZM580.605 317.889L601.088 297.406L588.661 276.591L563.972 301.279L580.605 317.912V317.889ZM603.892 297.406L624.185 317.699L640.819 301.256L616.32 276.757L603.892 297.406ZM614.752 274.999L602.49 262.738L590.229 274.999L602.49 295.291L614.752 274.999ZM601.112 108.573L588.684 87.9242L563.995 112.422L580.629 129.055L601.112 108.573ZM587.473 85.9995L547.053 18.8018L540.756 12.505L534.459 18.8018L494.04 85.9995C502.974 94.7438 511.719 103.512 520.653 112.422L502.451 130.624L520.653 148.825L513.311 156.001L531.513 174.202L524.336 181.378L540.78 198.012L557.413 181.378L550.071 174.202L568.273 156.001L560.93 148.825L579.132 130.624L560.93 112.422L587.544 85.9995H587.473ZM588.708 -100.909L564.019 -76.2207L580.653 -59.7777L601.136 -80.0701L588.708 -100.885V-100.909ZM603.94 -80.0938L624.233 -59.8015L640.866 -76.2445L616.367 -100.743L603.94 -80.0938ZM616.367 87.9242L603.94 108.573L624.233 129.055L640.866 112.422L616.367 87.9242ZM548.978 17.5662L589.065 84.2411L592.035 81.271L565.255 0.600426L558.958 -5.69639L542.324 10.7466L548.811 17.2335L548.978 17.5899V17.5662ZM590.276 86.3559L602.538 106.648L614.799 86.3559L602.538 74.0949L590.276 86.3559ZM615.821 84.2649L655.908 17.5899L656.074 17.2335L662.561 10.7466L646.118 -5.69639L639.821 0.600426L612.874 81.271L615.845 84.2411L615.821 84.2649ZM611.092 79.5363L637.706 -0.445084L638.062 -0.801514L651.702 -14.6307L635.258 -31.0737L621.785 -17.6009L608.312 76.5661L611.116 79.5363H611.092ZM606.197 74.6415L619.504 -18.29L619.86 -18.9791L640.866 -39.9843L603.583 -77.2662V72.0277L606.197 74.6415ZM601.302 -77.2662L564.209 -39.9843L585.025 -18.9791L585.381 -18.29L598.688 74.6415L601.302 72.0277V-77.4563V-77.2662ZM596.764 76.5661L583.29 -17.6009L569.817 -31.0737L553.184 -14.6307L567.013 -0.801514L567.18 -0.445084L593.96 79.5363L596.764 76.5661ZM465.501 650.598L468.662 647.438L441.715 566.934L435.418 560.637L418.975 577.08L425.462 583.567L425.628 583.733L465.525 650.598H465.501ZM470.396 645.703L473.2 642.899L459.727 548.566L446.254 535.259L429.81 551.702L443.45 565.342L443.806 565.864L470.42 645.679L470.396 645.703ZM475.291 640.808L477.905 638.195V489.091L440.622 526.373L461.628 547.378L461.984 547.901L475.291 640.832V640.808ZM480.186 638.361L482.8 640.975L496.107 547.877L496.273 547.354L517.279 526.349L480.186 489.067V638.361ZM484.725 642.923L487.529 645.893L514.309 565.912L514.475 565.389L528.305 551.75L511.671 535.117L498.198 548.59L484.725 642.923ZM489.453 647.652L492.424 650.622L532.511 583.757L532.677 583.59L539.164 577.104L522.53 560.661L516.233 566.957L489.453 647.628V647.652ZM477.549 486.12L465.121 465.472L440.622 489.97L457.066 506.603L477.549 486.12ZM463.909 463.547L423.656 396.349L417.169 390.052L410.872 396.349L370.619 463.547C379.363 472.291 388.298 481.226 397.042 489.97L378.841 508.171L397.042 526.373L389.866 533.549L407.902 551.75L400.725 559.092L417.169 575.535L433.802 559.092L426.626 551.75L444.662 533.549L437.486 526.373L455.521 508.171L437.319 489.97L463.933 463.547H463.909ZM417.169 386.892L433.802 370.259L426.626 362.917L444.662 344.882L437.486 337.539L455.521 319.504L437.319 301.303L463.933 274.69L423.68 207.659L417.383 201.172L410.896 207.659L370.643 274.69C379.387 283.624 388.322 292.369 397.066 301.303L378.864 319.504L397.066 337.539L389.89 344.882L407.925 362.917L400.749 370.259L417.193 386.892H417.169ZM465.644 273.146L468.614 269.985L441.668 189.315L435.371 183.184L418.927 199.627L425.414 206.114L425.581 206.281L465.668 273.146H465.644ZM470.372 268.251L473.176 265.447L459.703 171.113L446.23 157.641L429.787 174.274L443.426 187.913L443.783 188.436L470.396 268.251H470.372ZM475.267 263.356L477.881 260.742V111.638L440.598 148.92L461.604 169.925L461.961 170.448L475.267 263.38V263.356ZM480.162 260.908L482.776 263.522L496.083 170.424L496.44 169.902L517.255 148.896L480.162 111.614V260.908ZM484.701 265.447L487.505 268.251L514.285 188.436L514.451 187.913L528.281 174.274L511.647 157.641L498.174 171.113L484.701 265.447ZM489.43 270.175L492.4 273.146L532.487 206.281L532.653 206.114L539.14 199.627L522.507 183.184L516.21 189.315L489.43 270.175ZM492.756 465.495L480.329 486.311L500.812 506.603L517.255 489.97L492.756 465.472V465.495ZM425.557 395.137L465.454 461.812L468.614 458.842L441.668 378.172L435.371 371.875L418.927 388.508L425.414 394.995L425.581 395.161L425.557 395.137ZM466.689 463.927L478.951 484.22L491.212 463.927L478.951 451.666L466.689 463.927ZM492.424 461.836L532.511 395.161L532.677 394.995L539.164 388.508L522.53 371.875L516.233 378.172L489.453 458.842L492.424 461.812V461.836ZM487.529 457.108L514.309 377.126L514.475 376.77L528.305 362.941L511.671 346.498L498.198 359.97L484.725 454.304L487.529 457.108ZM482.8 452.213L496.107 359.281L496.273 358.592L517.279 337.587L480.186 300.495V449.599L482.8 452.213ZM477.905 300.471L440.622 337.563L461.628 358.568L461.984 359.257L475.291 452.189L477.905 449.575V300.471ZM473.176 454.137L459.703 359.97L446.23 346.498L429.787 362.941L443.426 376.77L443.783 377.126L470.396 457.108L473.2 454.137H473.176ZM457.066 317.984L477.549 297.501L465.121 276.686L440.622 301.374L457.066 318.007V317.984ZM480.353 297.501L500.836 317.794L517.279 301.351L492.78 276.852L480.353 297.501ZM491.212 275.094L478.951 262.833L466.689 275.094L478.951 295.386L491.212 275.094ZM477.572 108.668L465.145 88.0192L440.646 112.517L457.279 129.15L477.572 108.668ZM463.933 86.0945L423.68 18.8968L417.193 12.6L410.896 18.8968L370.643 86.0945C379.387 94.8388 388.322 103.607 397.066 112.517L378.864 130.719L397.066 148.92L389.89 156.096L407.925 174.297L400.749 181.473L417.383 198.107L433.826 181.473L426.65 174.297L444.686 156.096L437.509 148.92L455.545 130.719L437.343 112.517L463.957 86.0945H463.933ZM465.169 -100.814L440.67 -76.1257L457.113 -59.6827L477.596 -79.975L465.169 -100.79V-100.814ZM480.4 -79.9988L500.883 -59.7064L517.327 -76.1494L492.828 -100.648L480.4 -79.9988ZM492.828 88.0192L480.4 108.668L500.883 129.15L517.327 112.517L492.828 88.0192ZM425.628 17.6612L465.715 84.3362L468.685 81.366L441.739 0.695473L435.442 -5.60134L418.999 10.8417L425.486 17.3286L425.652 17.685L425.628 17.6612ZM466.761 86.451L479.022 106.743L491.283 86.451L479.022 74.19L466.761 86.451ZM492.495 84.3599L532.582 17.685L532.748 17.3286L539.235 10.8417L522.602 -5.60134L516.305 0.695473L489.525 81.366L492.495 84.3362V84.3599ZM487.6 79.6314L514.38 -0.350037L514.546 -0.706459L528.376 -14.5357L511.742 -30.9787L498.269 -17.5059L484.796 76.6612L487.6 79.6314ZM482.871 74.7365L496.178 -18.195L496.345 -18.8841L517.35 -39.8893L480.258 -77.1712V72.1227L482.871 74.7365ZM477.976 -77.1712L440.693 -39.8893L461.699 -18.8841L462.056 -18.195L475.362 74.7365L477.976 72.1227V-77.4563V-77.1712ZM473.248 76.6612L459.775 -17.5059L446.301 -30.9787L429.858 -14.5357L443.497 -0.706459L443.854 -0.350037L470.467 79.6314L473.271 76.6612H473.248ZM342.152 650.693L345.122 647.533L318.342 567.029L312.045 560.732L295.411 577.175L301.899 583.662L302.065 583.828L342.152 650.693ZM346.88 645.798L349.851 642.994L336.378 548.661L322.904 535.354L306.271 551.797L320.1 565.437L320.267 565.959L346.88 645.774V645.798ZM351.775 640.903L354.389 638.29V489.186L317.106 526.468L338.112 547.473L338.469 547.996L351.775 640.927V640.903ZM356.67 638.456L359.284 641.07L372.591 547.972L372.948 547.449L393.953 526.444L356.67 489.162V638.456ZM361.209 643.018L364.179 645.988L390.793 566.007L391.149 565.484L404.789 551.845L388.155 535.212L374.848 548.685L361.209 643.018ZM365.938 647.747L368.908 650.717L408.995 583.852L409.161 583.685L415.648 577.199L399.205 560.756L392.908 567.052L365.961 647.723L365.938 647.747ZM354.033 486.216L341.605 465.567L317.106 490.065L333.74 506.698L354.033 486.216ZM340.56 463.642L300.14 396.444L293.843 390.148L287.356 396.444L247.103 463.642C256.038 472.386 264.782 481.321 273.717 490.065L255.515 508.266L273.55 526.468L266.374 533.644L284.576 551.845L277.233 559.187L293.867 575.63L310.5 559.187L303.158 551.845L321.36 533.644L314.017 526.468L332.219 508.266L314.017 490.065L340.631 463.642H340.56ZM293.819 386.987L310.453 370.354L303.11 363.012L321.312 344.977L313.97 337.634L332.172 319.599L313.97 301.398L340.583 274.785L300.164 207.754L293.867 201.267L287.57 207.754L247.15 274.785C256.085 283.719 264.83 292.464 273.764 301.398L255.562 319.599L273.598 337.634L266.422 344.977L284.623 363.012L277.281 370.354L293.914 386.987H293.819ZM342.128 273.241L345.098 270.08L318.318 189.41L312.021 183.279L295.388 199.722L301.875 206.209L302.041 206.376L342.128 273.241ZM347.023 268.346L349.827 265.542L336.354 171.208L322.881 157.736L306.247 174.369L320.077 188.008L320.243 188.531L347.023 268.346ZM351.752 263.451L354.365 260.837V111.733L317.273 149.015L338.088 170.02L338.445 170.543L351.752 263.475V263.451ZM356.647 261.003L359.26 263.617L372.567 170.519L372.924 169.997L393.93 148.991L356.647 111.71V261.003ZM361.375 265.542L364.179 268.346L390.793 188.531L391.149 188.008L404.789 174.369L388.345 157.736L374.872 171.208L361.399 265.542H361.375ZM365.914 270.27L368.884 273.241L408.971 206.376L409.137 206.209L415.624 199.722L399.181 183.279L392.884 189.41L365.938 270.27H365.914ZM369.407 465.591L356.979 486.406L377.272 506.698L393.906 490.065L369.407 465.567V465.591ZM302.017 395.232L342.104 461.907L345.074 458.937L318.294 378.267L311.997 371.97L295.364 388.603L301.851 395.09L302.017 395.256V395.232ZM343.316 464.022L355.577 484.315L367.649 464.022L355.387 451.761L343.316 464.022ZM368.86 461.931L408.947 395.256L409.114 395.09L415.601 388.603L399.157 371.97L392.86 378.267L365.914 458.937L368.884 461.907L368.86 461.931ZM364.132 457.203L390.745 377.221L391.102 376.865L404.741 363.036L388.108 346.593L374.801 360.065L361.161 454.399L364.132 457.203ZM359.237 452.308L372.544 359.376L372.9 358.687L393.906 337.682L356.623 300.59V449.694L359.237 452.308ZM354.342 300.566L317.059 337.658L338.065 358.663L338.421 359.353L351.728 452.284L354.342 449.67V300.566ZM349.803 454.232L336.33 360.065L322.857 346.593L306.223 363.036L320.053 376.865L320.219 377.221L346.999 457.203L349.803 454.232ZM333.692 318.079L354.175 297.596L341.581 276.781L317.083 301.469L333.716 318.102L333.692 318.079ZM356.979 297.596L377.272 317.889L393.906 301.446L369.407 276.947L356.979 297.596ZM367.649 275.189L355.387 262.928L343.316 275.189L355.577 295.481L367.649 275.189ZM354.009 108.763L341.581 88.1143L317.083 112.612L333.716 129.246L354.009 108.763ZM340.536 86.1896L300.116 18.9919L293.819 12.6951L287.332 18.9919L247.079 86.1896C256.014 94.9339 264.758 103.702 273.693 112.612L255.491 130.814L273.693 149.015L266.35 156.191L284.552 174.393L277.21 181.569L293.843 198.202L310.477 181.569L303.134 174.393L321.336 156.191L313.994 149.015L332.195 130.814L313.994 112.612L340.607 86.1896H340.536ZM341.581 -100.719L317.083 -76.0306L333.716 -59.5876L354.199 -79.88L341.605 -100.695L341.581 -100.719ZM356.979 -79.9038L377.272 -59.6114L393.906 -76.0544L369.407 -100.553L356.979 -79.9038ZM369.407 88.1143L356.979 108.763L377.272 129.246L393.906 112.612L369.407 88.1143ZM302.017 17.7563L342.104 84.4312L345.074 81.461L318.294 0.79052L311.997 -5.5063L295.364 10.9367L301.851 17.4236L302.017 17.78V17.7563ZM343.316 86.546L355.577 106.838L367.649 86.546L355.577 74.285L343.316 86.546ZM368.86 84.455L408.947 17.78L409.114 17.4236L415.601 10.9367L399.157 -5.5063L392.86 0.79052L365.914 81.461L368.884 84.4312L368.86 84.455ZM364.132 79.7264L390.745 -0.25499L391.102 -0.611412L404.741 -14.4406L388.108 -30.8836L374.801 -17.4108L361.161 76.7562L364.132 79.7264ZM359.237 74.8315L372.544 -18.0999L372.9 -18.789L393.906 -39.7942L356.623 -77.0761V72.2178L359.237 74.8315ZM354.342 -77.0761L317.059 -39.7942L338.065 -18.789L338.421 -18.0999L351.728 74.8315L354.342 72.2178V-77.4563V-77.0761ZM349.803 76.7562L336.33 -17.4108L322.857 -30.8836L306.223 -14.4406L320.053 -0.611412L320.219 -0.25499L346.999 79.7264L349.803 76.7562ZM218.541 650.788L221.701 647.628L194.755 567.124L188.458 560.827L172.014 577.27L178.311 583.757L178.478 583.923L218.565 650.788H218.541ZM223.436 645.893L226.24 643.089L212.767 548.756L199.293 535.45L182.85 551.892L196.49 565.532L196.846 566.054L223.46 645.87L223.436 645.893ZM228.331 640.998L230.945 638.385V489.281L193.662 526.563L214.668 547.568L215.024 548.091L228.331 641.022V640.998ZM233.226 638.551L235.673 641.165L248.98 548.067L249.337 547.544L270.342 526.539L233.06 489.257L233.226 638.551ZM237.764 643.113L240.568 646.083L267.348 566.102L267.515 565.579L281.154 551.94L264.711 535.307L251.238 548.78L237.764 643.113ZM242.303 647.842L245.463 650.812L285.55 583.947L285.717 583.781L292.204 577.294L275.57 560.851L269.273 567.147L242.327 647.818L242.303 647.842ZM230.588 486.311L218.161 465.662L193.662 490.16L210.105 506.793L230.588 486.311ZM216.949 463.737L176.696 396.539L170.209 390.243L163.912 396.539L123.658 463.737C132.403 472.481 141.337 481.416 150.082 490.16L131.88 508.361L150.082 526.563L142.739 533.739L160.941 551.94L153.765 559.282L170.209 575.725L186.842 559.282L179.5 551.94L197.701 533.739L190.525 526.563L208.561 508.361L190.359 490.16L216.973 463.737H216.949ZM170.209 387.082L186.842 370.449L179.5 363.107L197.701 345.072L190.525 337.73L208.561 319.694L190.359 301.493L216.973 274.88L176.719 207.849L170.232 201.362L163.935 207.849L123.682 274.88C132.427 283.815 141.361 292.559 150.106 301.493L131.904 319.694L150.106 337.73L142.763 345.072L160.965 363.107L153.789 370.449L170.232 387.082H170.209ZM218.517 273.336L221.677 270.175L194.731 189.505L188.434 183.374L171.991 199.817L178.478 206.304L178.644 206.471L218.541 273.336H218.517ZM223.412 268.441L226.216 265.637L212.743 171.304L199.27 157.831L182.826 174.464L196.466 188.103L196.822 188.626L223.436 268.441H223.412ZM228.307 263.546L230.921 260.932V111.828L193.638 149.11L214.644 170.115L215 170.638L228.307 263.57V263.546ZM233.202 261.098L235.816 263.712L249.123 170.614L249.289 170.092L270.295 149.086L233.202 111.805V261.098ZM237.741 265.637L240.545 268.441L267.325 188.626L267.491 188.103L281.321 174.464L264.687 157.831L251.214 171.304L237.741 265.637ZM242.469 270.365L245.44 273.336L285.526 206.471L285.693 206.304L292.18 199.817L275.546 183.374L269.249 189.505L242.469 270.365ZM245.796 465.686L233.368 486.501L253.851 506.793L270.295 490.16L245.796 465.662V465.686ZM178.406 395.328L218.493 462.003L221.654 459.032L194.707 378.362L188.41 372.065L171.967 388.698L178.264 395.185L178.43 395.351L178.406 395.328ZM219.705 464.117L231.966 484.41L244.228 464.117L231.966 451.856L219.705 464.117ZM245.44 462.026L285.526 395.351L285.693 395.185L292.18 388.698L275.546 372.065L269.249 378.362L242.303 459.032L245.463 462.003L245.44 462.026ZM240.545 457.298L267.325 377.316L267.491 376.96L281.13 363.131L264.687 346.688L251.214 360.16L237.741 454.494L240.545 457.298ZM235.65 452.403L248.956 359.471L249.313 358.782L270.319 337.777L233.036 300.685L233.202 449.789L235.65 452.403ZM230.921 300.661L193.638 337.753L214.644 358.759L215 359.448L228.307 452.379L230.921 449.765V300.661ZM226.192 454.328L212.719 360.16L199.246 346.688L182.802 363.131L196.442 376.96L196.798 377.316L223.412 457.298L226.216 454.328H226.192ZM210.081 318.174L230.564 297.691L218.137 276.876L193.638 301.564L210.081 318.198V318.174ZM233.368 297.691L253.851 317.984L270.295 301.541L245.796 277.042L233.368 297.691ZM244.228 275.284L231.966 263.023L219.705 275.284L231.966 295.577L244.228 275.284ZM230.588 108.858L218.161 88.2093L193.662 112.707L210.105 129.341L230.588 108.858ZM216.949 86.2846L176.696 19.0869L170.209 12.7901L163.912 19.0869L123.658 86.2846C132.403 95.0289 141.337 103.797 150.082 112.707L131.88 130.909L150.082 149.11L142.906 156.286L160.941 174.488L153.765 181.664L170.209 198.297L186.842 181.664L179.666 174.488L197.701 156.286L190.525 149.11L208.561 130.909L190.359 112.707L216.973 86.2846H216.949ZM218.184 -100.624L193.686 -75.9356L210.129 -59.4926L230.612 -79.7849L218.184 -100.6V-100.624ZM233.416 -79.8087L253.899 -59.5163L270.342 -75.9593L245.749 -100.909L233.321 -80.2602L233.416 -79.8087ZM245.844 88.2093L233.416 108.858L253.899 129.341L270.342 112.707L245.844 88.2093ZM178.454 17.8513L218.541 84.5263L221.701 81.5561L194.755 0.885567L188.458 -5.41125L172.014 11.0318L178.311 17.5187L178.478 17.8751L178.454 17.8513ZM219.753 86.6411L232.014 106.933L244.275 86.6411L232.014 74.3801L219.753 86.6411ZM245.487 84.55L285.574 17.8751L285.74 17.5187L292.227 11.0318L275.594 -5.41125L269.297 0.885567L242.351 81.5561L245.511 84.5263L245.487 84.55ZM240.592 79.8215L267.372 -0.15995L267.538 -0.516365L281.178 -14.3456L264.735 -30.7886L251.261 -17.3158L237.788 76.8513L240.592 79.8215ZM235.697 74.9266L249.004 -18.0049L249.36 -18.694L270.366 -39.6992L233.083 -76.9811V72.3128L235.697 74.9266ZM230.968 -76.9811L193.686 -39.6992L214.691 -18.694L215.048 -18.0049L228.355 74.9266L230.968 72.3128V-77.4563V-76.9811ZM226.24 76.8513L212.767 -17.3158L199.293 -30.7886L182.85 -14.3456L196.49 -0.516365L196.846 -0.15995L223.46 79.8215L226.264 76.8513H226.24ZM95.1438 650.883L98.1141 647.723L71.1677 567.219L65.0371 560.922L48.4036 577.365L54.8906 583.852L55.057 584.018L95.1438 650.883ZM99.8725 645.988L102.843 643.184L89.3696 548.851L75.8964 535.545L59.2629 551.988L73.0925 565.627L73.2588 566.149L99.8725 645.965V645.988ZM104.767 641.093L107.381 638.48V489.376L70.0984 526.658L91.1042 547.663L91.4606 548.186L104.767 641.117V641.093ZM109.662 638.646L112.276 641.26L125.583 548.162L125.94 547.639L146.945 526.634L109.662 489.352V638.646ZM114.201 643.208L117.171 646.178L143.785 566.197L144.141 565.674L157.781 552.035L141.147 535.402L127.674 548.875L114.201 643.208ZM118.93 647.937L121.9 650.907L161.987 584.042L162.153 583.876L168.64 577.389L152.197 560.946L145.9 567.242L118.953 647.913L118.93 647.937ZM102.819 265.708L89.3458 171.375L75.8727 157.902L59.2391 174.535L73.0687 188.174L73.2351 188.697L99.8487 268.512L102.819 265.708ZM98.0903 270.247L71.3103 189.576L65.0133 183.446L48.3798 199.889L54.8669 206.376L55.0332 206.542L95.12 273.407L98.0903 270.247ZM96.3319 275.332L108.593 295.624L120.664 275.332L108.403 263.071L96.3319 275.332ZM121.876 273.407L161.963 206.542L162.129 206.376L168.616 199.889L152.173 183.446L145.876 189.576L118.93 270.437L121.9 273.407H121.876ZM117.148 268.512L143.761 188.697L144.118 188.174L157.757 174.535L141.124 157.902L127.817 171.375L114.177 265.708L117.148 268.512ZM112.253 263.784L125.559 170.686L125.916 170.163L146.922 149.158L109.639 111.876V261.17L112.253 263.784ZM107.001 486.406L94.5735 465.757L70.0747 490.255L86.7082 506.888L107.001 486.406ZM46.7877 387.177L63.2312 370.544L56.055 363.202L74.2568 345.167L66.9143 337.825L85.1161 319.79L66.9143 301.588L93.3379 274.975L53.0847 207.944L46.7877 201.457L40.3007 207.944L0.0237622 274.5C8.95834 283.434 17.7028 292.179 26.4473 301.113L8.41181 319.314L26.4473 337.349L19.2711 344.692L37.473 362.727L30.1305 370.069L46.764 386.702L46.7877 387.177ZM122.399 465.757L109.971 486.572L130.264 506.864L146.898 490.231L122.399 465.733V465.757ZM55.0095 395.399L95.0963 462.074L98.0665 459.104L71.1202 378.433L64.9896 372.136L48.356 388.769L54.8431 395.256L55.0095 395.423V395.399ZM96.3081 464.189L108.569 484.481L120.641 464.189L108.379 451.928L96.3081 464.189ZM121.852 462.098L161.939 395.423L162.106 395.256L168.593 388.769L152.149 372.136L145.852 378.433L118.906 459.104L121.876 462.074L121.852 462.098ZM117.124 457.369L143.737 377.388L144.094 377.031L157.733 363.202L141.1 346.759L127.627 360.232L114.154 454.565L117.124 457.369ZM112.229 452.474L125.536 359.543L125.892 358.854L146.898 337.848L109.615 300.757V449.86L112.229 452.474ZM107.334 300.733L70.0509 337.825L91.0567 358.83L91.4131 359.519L104.72 452.45L107.334 449.837V300.733ZM102.795 454.399L89.3221 360.232L75.8489 346.759L59.2154 363.202L73.045 377.031L73.2113 377.388L99.8249 457.369L102.795 454.399ZM86.6844 318.245L106.977 297.763L94.5497 276.947L70.0509 301.636L86.6844 318.269V318.245ZM109.971 297.763L130.264 318.055L146.898 301.612L122.399 277.114L109.971 297.763ZM107.001 108.929L94.5735 88.2806L70.0747 112.779L86.7082 129.412L107.001 108.929ZM94.526 -101.075L70.0272 -76.387L86.6607 -59.944L106.954 -80.2364L94.526 -101.075ZM109.924 -80.2602L130.217 -59.9678L146.85 -76.4108L122.351 -100.909L109.924 -80.2602ZM122.351 87.7578L109.924 108.407L130.217 128.889L146.85 112.256L122.351 87.7578ZM54.9619 17.3998L95.0487 84.0748L98.019 81.1046L71.0727 0.43409L64.9421 -5.86272L48.3085 10.5803L54.7956 17.0672L54.9619 17.4236V17.3998ZM96.2606 86.1896L108.522 106.482L120.593 86.1896L108.332 73.9286L96.2606 86.1896ZM121.805 84.0986L161.892 17.4236L162.058 17.0672L168.545 10.5803L152.102 -5.86272L145.805 0.43409L118.858 81.1046L121.829 84.0748L121.805 84.0986ZM117.076 79.37L143.69 -0.611412L144.046 -0.967842L157.686 -14.7971L141.052 -31.2401L127.579 -17.7673L114.106 76.3998L117.076 79.37ZM112.181 74.4751L125.488 -18.4563L125.845 -19.1454L146.85 -40.1507L109.567 -77.4326V71.8614L112.181 74.4751ZM107.286 -77.4326L70.0034 -40.1507L91.0092 -19.1454L91.3656 -18.4563L104.672 74.4751L107.286 71.8614V-77.4563V-77.4326ZM102.748 76.3998L89.2745 -17.7673L75.8014 -31.2401L59.1678 -14.7971L72.9974 -0.967842L73.1638 -0.611412L99.7774 79.37L102.748 76.3998Z" fill="#D4DEED"/>
</svg>
