<svg width="591" height="600" viewBox="0 0 591 600" fill="none" xmlns="http://www.w3.org/2000/svg">
<path d="M600 299.025H599.975C599.475 219.361 568.232 144.537 511.846 88.1509C455.46 31.7645 380.636 0.525186 300.972 0.0247146V0C300.647 0 300.323 0.00926798 299.998 0.0123573C299.674 0.0123573 299.35 0 299.025 0V0.0247146C219.361 0.525186 144.537 31.7676 88.1509 88.154C31.7645 144.54 0.525186 219.361 0.0247146 299.025H0C0 299.35 0.00926798 299.674 0.0123573 299.998C0.0123573 300.323 0 300.647 0 300.972H0.0247146C0.525186 380.636 31.7676 455.457 88.154 511.843C144.54 568.229 219.364 599.472 299.028 599.972V599.997C299.353 599.997 299.677 599.988 300.002 599.985C300.326 599.985 300.65 599.997 300.975 599.997V599.972C380.639 599.472 455.46 568.229 511.846 511.843C568.232 455.457 599.475 380.636 599.975 300.972H600C600 300.647 599.991 300.323 599.988 299.998C599.988 299.674 600 299.35 600 299.025ZM574.065 414.702L566.601 416.747C567.954 413.67 569.249 410.569 570.494 407.448L574.263 414.223C574.195 414.384 574.133 414.545 574.065 414.702ZM414.758 574.04L407.955 570.287C411.072 569.036 414.174 567.744 417.245 566.385L415.23 573.843C415.073 573.911 414.915 573.975 414.758 574.04ZM184.77 573.843L182.755 566.385C185.826 567.744 188.928 569.036 192.045 570.287L185.242 574.04C185.085 573.972 184.927 573.908 184.77 573.843ZM25.7372 414.223L29.5062 407.448C30.7512 410.569 32.0456 413.67 33.3987 416.744L25.9349 414.702C25.8669 414.545 25.8052 414.381 25.7372 414.223ZM25.9318 185.295L33.3956 183.253C32.0425 186.327 30.7512 189.428 29.5031 192.549L25.7372 185.774C25.8052 185.616 25.8669 185.452 25.9318 185.295ZM185.239 25.9565L192.042 29.7101C188.925 30.9612 185.826 32.2526 182.752 33.6119L184.767 26.1543C184.924 26.0863 185.082 26.0214 185.239 25.9565ZM415.227 26.1543L417.242 33.6119C414.171 32.2526 411.069 30.9612 407.952 29.7101L414.755 25.9565C414.912 26.0245 415.07 26.0894 415.227 26.1543ZM574.257 185.774L570.488 192.549C569.24 189.428 567.948 186.327 566.595 183.25L574.059 185.295C574.127 185.455 574.189 185.616 574.257 185.774ZM597.38 299.347H551.556C551.556 299.238 551.559 299.13 551.559 299.022H551.535C551.402 281.493 549.474 264.382 545.924 247.866L597.38 299.322C597.38 299.322 597.38 299.337 597.38 299.347ZM567.642 411.026L532.134 396.126C536.996 384.498 541.006 372.428 544.099 359.999L569.678 405.987C569.011 407.671 568.341 409.354 567.642 411.026ZM510.274 509.359L477.962 477.048C490.023 464.925 500.854 451.583 510.274 437.233V509.362V509.359ZM299.992 550.249C281.515 550.178 263.507 548.099 246.164 544.225L244.665 542.727L299.989 512.201L355.313 542.727L353.815 544.225C336.471 548.099 318.463 550.178 299.986 550.249H299.992ZM89.711 509.359V437.229C99.1304 451.579 109.962 464.922 122.025 477.045L89.711 509.359ZM30.3094 405.99L55.889 360.002C58.9814 372.431 62.9914 384.498 67.854 396.129L32.3453 411.029C31.6471 409.358 30.9767 407.677 30.3094 405.993V405.99ZM56.2906 356.187L56.442 356.339L56.3617 356.481C56.3401 356.382 56.3123 356.286 56.2906 356.19V356.187ZM32.3422 188.968L67.8509 203.868C62.9883 215.496 58.9784 227.566 55.8859 239.994L30.3063 194.007C30.9705 192.323 31.644 190.639 32.3422 188.968ZM89.7079 90.6347L122.022 122.949C109.962 135.072 99.1273 148.414 89.7079 162.764V90.6347ZM299.989 49.7444C318.466 49.8154 336.474 51.8945 353.818 55.7685L355.316 57.2669L299.992 87.7925L244.669 57.2669L246.167 55.7685C263.507 51.8945 281.518 49.8154 299.992 49.7444H299.989ZM510.27 90.6347V162.764C500.851 148.414 490.02 135.072 477.956 122.949L510.27 90.6347ZM569.672 194.007L544.092 239.994C541 227.566 536.987 215.496 532.127 203.868L567.639 188.968C568.337 190.639 569.008 192.323 569.675 194.007H569.672ZM543.691 243.807L543.539 243.655L543.617 243.513C543.638 243.612 543.666 243.708 543.688 243.804L543.691 243.807ZM543.166 241.663L542.588 242.704L516.029 216.145C516.971 214.999 517.561 213.55 517.561 211.953C517.561 211.307 517.441 210.692 517.265 210.102L530.929 204.368C535.943 216.358 540.045 228.82 543.163 241.663H543.166ZM510.919 393.389C507.972 393.389 505.575 390.991 505.575 388.044C505.575 385.097 507.972 382.7 510.919 382.7C513.866 382.7 516.264 385.097 516.264 388.044C516.264 390.991 513.866 393.389 510.919 393.389ZM394.85 510.042C394.717 508.701 394.195 507.487 393.383 506.498L448.218 451.663L432.432 510.119L394.85 510.042ZM388.273 516.035C385.326 516.035 382.928 513.638 382.928 510.691C382.928 507.743 385.326 505.346 388.273 505.346C391.22 505.346 393.617 507.743 393.617 510.691C393.617 513.638 391.22 516.035 388.273 516.035ZM206.364 510.691C206.364 507.743 208.761 505.346 211.709 505.346C214.656 505.346 217.053 507.743 217.053 510.691C217.053 513.638 214.656 516.035 211.709 516.035C208.761 516.035 206.364 513.638 206.364 510.691ZM205.131 510.042L167.55 510.119L151.763 451.663L206.599 506.498C205.786 507.487 205.264 508.701 205.131 510.042ZM83.7177 388.044C83.7177 385.097 86.115 382.7 89.0622 382.7C92.0095 382.7 94.4068 385.097 94.4068 388.044C94.4068 390.991 92.0095 393.389 89.0622 393.389C86.115 393.389 83.7177 390.991 83.7177 388.044ZM89.0622 206.611C92.0095 206.611 94.4068 209.008 94.4068 211.956C94.4068 214.903 92.0095 217.3 89.0622 217.3C86.115 217.3 83.7177 214.903 83.7177 211.956C83.7177 209.008 86.115 206.611 89.0622 206.611ZM205.131 89.955C205.264 91.2958 205.786 92.513 206.599 93.4985L151.763 148.334L167.55 89.8778L205.131 89.955ZM211.709 83.9648C214.656 83.9648 217.053 86.3622 217.053 89.3094C217.053 92.2566 214.656 94.6539 211.709 94.6539C208.761 94.6539 206.364 92.2566 206.364 89.3094C206.364 86.3622 208.761 83.9648 211.709 83.9648ZM393.621 89.3094C393.621 92.2566 391.223 94.6539 388.276 94.6539C385.329 94.6539 382.931 92.2566 382.931 89.3094C382.931 86.3622 385.329 83.9648 388.276 83.9648C391.223 83.9648 393.621 86.3622 393.621 89.3094ZM394.853 89.9581L432.435 89.8809L448.221 148.337L393.386 93.5016C394.198 92.513 394.72 91.2989 394.853 89.9581ZM516.267 211.956C516.267 214.903 513.87 217.3 510.922 217.3C507.975 217.3 505.578 214.903 505.578 211.956C505.578 209.008 507.975 206.611 510.922 206.611C513.87 206.611 516.267 209.008 516.267 211.956ZM392.468 505.581C391.322 504.639 389.873 504.049 388.276 504.049C384.754 504.049 381.893 506.81 381.674 510.28H218.307C218.091 506.814 215.227 504.049 211.709 504.049C210.111 504.049 208.666 504.639 207.516 505.581L94.172 392.237C95.1142 391.09 95.7043 389.641 95.7043 388.044C95.7043 384.606 93.066 381.801 89.711 381.467V218.53C93.066 218.199 95.7043 215.394 95.7043 211.953C95.7043 210.355 95.1142 208.91 94.172 207.76L207.519 94.416C208.666 95.3583 210.114 95.9483 211.712 95.9483C215.233 95.9483 218.094 93.1865 218.31 89.7172H381.677C381.893 93.1834 384.757 95.9483 388.279 95.9483C389.876 95.9483 391.322 95.3583 392.471 94.416L505.819 207.76C504.876 208.907 504.286 210.355 504.286 211.953C504.286 215.391 506.925 218.196 510.28 218.53V381.467C506.925 381.798 504.286 384.603 504.286 388.044C504.286 389.641 504.876 391.087 505.819 392.237L392.474 505.581H392.468ZM510.274 205.379C508.933 205.511 507.719 206.033 506.73 206.846L451.669 151.785L510.274 167.831V205.379ZM381.724 88.4227H301.54L356.274 58.2246L383.169 85.1172C382.406 86.047 381.897 87.1747 381.727 88.4227H381.724ZM218.261 88.4227C218.091 87.1747 217.581 86.047 216.818 85.1172L243.714 58.2215L298.448 88.4196H218.264L218.261 88.4227ZM93.2544 206.846C92.2659 206.033 91.0518 205.511 89.711 205.379V167.831L148.316 151.785L93.2544 206.846ZM88.4135 218.53V298.469L58.0516 243.881L84.87 217.062C85.8586 217.875 87.0727 218.397 88.4135 218.53ZM88.4135 381.467C87.0727 381.6 85.8586 382.122 84.87 382.935L58.0516 356.116L88.4135 301.528V381.467ZM89.711 394.621C91.0518 394.489 92.2659 393.967 93.2544 393.154L148.316 448.215L89.711 432.169V394.621ZM218.261 511.577H298.448L243.714 541.775L216.818 514.88C217.581 513.95 218.091 512.822 218.261 511.574V511.577ZM381.724 511.577C381.893 512.825 382.403 513.953 383.166 514.883L356.271 541.779L301.537 511.577H381.724ZM506.73 393.154C507.719 393.967 508.933 394.489 510.274 394.621V432.169L451.669 448.215L506.73 393.154ZM511.571 381.467V301.525L541.933 356.113L515.115 382.935C514.126 382.122 512.912 381.6 511.571 381.467ZM511.571 218.53C512.912 218.397 514.126 217.875 515.115 217.062L541.936 243.884L511.574 298.472V218.53H511.571ZM516.786 208.9C515.773 206.963 513.848 205.604 511.571 205.379V168.186L512.337 168.396C519.233 179.45 525.303 191.063 530.441 203.17L516.786 208.9ZM510.274 165.125V166.487L450.01 149.987L433.776 89.8778H435.104C465.179 109.328 490.851 135.028 510.274 165.125ZM432.083 88.5834L394.853 88.6606C394.634 86.4363 393.327 84.5487 391.458 83.5169L397.266 69.7478C409.317 74.8884 420.881 80.9528 431.882 87.8358L432.083 88.5834ZM390.266 83.0071C389.632 82.8063 388.974 82.6704 388.276 82.6704C386.679 82.6704 385.233 83.2605 384.084 84.2027L357.454 57.5727L358.659 56.9085C371.541 60.0565 384.044 64.19 396.067 69.2473L390.262 83.0102L390.266 83.0071ZM356.502 56.6181L356.187 56.303C356.394 56.3524 356.598 56.4049 356.802 56.4544L356.502 56.6212V56.6181ZM243.488 56.6181L243.189 56.4513C243.396 56.4019 243.6 56.3493 243.804 56.2999L243.488 56.615V56.6181ZM242.534 57.5727L215.904 84.2027C214.758 83.2605 213.309 82.6704 211.712 82.6704C211.013 82.6704 210.355 82.8094 209.722 83.0071L203.917 69.2442C215.941 64.1901 228.443 60.0565 241.326 56.9054L242.531 57.5696L242.534 57.5727ZM208.533 83.5169C206.664 84.5487 205.36 86.4363 205.138 88.6606L167.908 88.5834L168.109 87.8358C179.11 80.9528 190.673 74.8884 202.725 69.7478L208.533 83.5169ZM166.212 89.8778L149.981 149.987L89.7172 166.487V165.125C109.14 135.025 134.812 109.328 164.887 89.8747H166.212V89.8778ZM88.4166 168.189V205.382C86.1428 205.607 84.2182 206.966 83.2018 208.903L69.5469 203.173C74.6814 191.066 80.755 179.45 87.6504 168.399L88.4166 168.189ZM82.7198 210.105C82.5468 210.695 82.4233 211.31 82.4233 211.956C82.4233 213.553 83.0133 215.002 83.9556 216.148L57.3966 242.707L56.8158 241.666C59.9361 228.823 64.0387 216.364 69.0496 204.374L82.7137 210.108L82.7198 210.105ZM56.3679 243.519L56.4482 243.661L56.2968 243.813C56.3184 243.714 56.3463 243.618 56.3679 243.522V243.519ZM57.1031 244.842L87.7832 300.005L57.1031 355.168L55.7685 353.833C51.8945 336.49 49.8154 318.482 49.7444 300.005C49.8154 281.527 51.8945 263.52 55.7685 246.179L57.1031 244.845V244.842ZM56.822 358.34L57.4028 357.299L83.9618 383.858C83.0195 385.004 82.4294 386.453 82.4294 388.05C82.4294 388.696 82.5499 389.311 82.7229 389.901L69.0588 395.635C64.0449 383.645 59.9453 371.186 56.8251 358.343L56.822 358.34ZM83.2049 391.103C84.2182 393.04 86.1428 394.399 88.4196 394.625V431.817L87.6535 431.607C80.7581 420.553 74.6845 408.941 69.55 396.83L83.2049 391.1V391.103ZM89.7172 434.879V433.516L149.981 450.016L166.212 510.125H164.884C134.809 490.675 109.137 464.975 89.7141 434.879H89.7172ZM167.908 511.42L205.141 511.342C205.36 513.567 206.667 515.454 208.536 516.486L202.728 530.255C190.676 525.115 179.113 519.05 168.112 512.167L167.911 511.42H167.908ZM209.725 516.999C210.359 517.2 211.017 517.336 211.715 517.336C213.312 517.336 214.758 516.746 215.907 515.803L242.537 542.433L241.332 543.098C228.447 539.95 215.947 535.816 203.92 530.759L209.725 516.996V516.999ZM243.488 543.388L243.804 543.703C243.597 543.654 243.393 543.601 243.189 543.552L243.488 543.385V543.388ZM356.502 543.388L356.802 543.555C356.595 543.604 356.391 543.657 356.187 543.706L356.502 543.391V543.388ZM357.457 542.433L384.087 515.803C385.233 516.746 386.682 517.336 388.279 517.336C388.977 517.336 389.635 517.197 390.269 516.999L396.073 530.762C384.05 535.816 371.547 539.95 358.665 543.101L357.46 542.437L357.457 542.433ZM391.461 516.486C393.33 515.454 394.634 513.567 394.856 511.342L432.086 511.42L431.885 512.167C420.884 519.05 409.32 525.115 397.269 530.255L391.461 516.486ZM433.779 510.125L450.01 450.016L510.274 433.516V434.879C490.851 464.975 465.179 490.672 435.104 510.128H433.776L433.779 510.125ZM511.574 431.817V394.625C513.848 394.399 515.776 393.04 516.789 391.103L530.444 396.833C525.306 408.941 519.236 420.556 512.34 431.61L511.574 431.82V431.817ZM517.274 389.898C517.447 389.308 517.567 388.693 517.567 388.047C517.567 386.45 516.977 385.004 516.035 383.855L542.594 357.296L543.172 358.337C540.052 371.18 535.949 383.639 530.938 395.629L517.274 389.895V389.898ZM543.626 356.487L543.549 356.345L543.7 356.193C543.678 356.292 543.651 356.388 543.629 356.484L543.626 356.487ZM542.891 355.168L512.207 300.005L542.891 244.842L544.225 246.176C548.099 263.517 550.178 281.527 550.249 300.005C550.178 318.482 548.099 336.49 544.225 353.833L542.891 355.168ZM545.412 245.531C545.137 244.301 544.846 243.078 544.553 241.854L570.296 195.573C581.915 225.471 588.579 257.322 589.799 289.915L545.415 245.531H545.412ZM567.13 187.785L531.639 202.675C526.659 190.939 520.808 179.66 514.185 168.909L564.989 182.82C565.721 184.467 566.428 186.126 567.13 187.785ZM513.168 167.284C512.637 166.434 512.112 165.582 511.571 164.742V102.251C533.549 125.748 551.278 152.474 564.284 181.279L513.168 167.281V167.284ZM477.045 122.038C464.987 110.039 451.718 99.2601 437.455 89.8747L509.353 89.7295L477.042 122.041L477.045 122.038ZM435.493 88.5803C434.668 88.0489 433.834 87.5299 433.003 87.0078L419.209 35.9382C447.841 48.9288 474.41 66.5874 497.777 88.4536L435.49 88.5803H435.493ZM431.388 86.0007C420.683 79.3865 409.456 73.5415 397.773 68.5584L412.734 33.0929C414.387 33.7942 416.04 34.5047 417.68 35.24L431.388 86.0007ZM411.542 32.5801L396.577 68.0517C384.915 63.1489 372.811 59.105 360.342 55.9848L406.488 30.5226C408.177 31.1929 409.864 31.8757 411.542 32.577V32.5801ZM358.479 55.5307C357.148 55.2063 355.81 54.8912 354.473 54.5915L310.085 10.204C342.863 11.4305 374.89 18.1591 404.937 29.8985L358.479 55.5307ZM352.125 54.0787C335.609 50.529 318.5 48.6013 300.968 48.4685V48.4437C300.86 48.4437 300.752 48.4468 300.644 48.4468V2.61666C300.644 2.61666 300.66 2.61666 300.669 2.61666L352.125 54.0725V54.0787ZM299.35 2.61666V48.4407C299.242 48.4407 299.133 48.4376 299.025 48.4376V48.4623C281.496 48.5951 264.388 50.5229 247.869 54.0725L299.325 2.61666C299.325 2.61666 299.34 2.61666 299.35 2.61666ZM245.524 54.5853C244.184 54.8881 242.849 55.2032 241.514 55.5245L195.057 29.8923C225.104 18.1498 257.128 11.4243 289.909 10.1979L245.521 54.5853H245.524ZM239.655 55.9817C227.186 59.105 215.079 63.1459 203.417 68.0486L188.452 32.577C190.13 31.8726 191.816 31.1929 193.506 30.5226L239.652 55.9848L239.655 55.9817ZM187.263 33.0898L202.224 68.5553C190.544 73.5384 179.314 79.3834 168.609 85.9976L182.317 35.2369C183.957 34.5047 185.607 33.7942 187.263 33.0898ZM166.991 87.0078C166.159 87.5299 165.325 88.0458 164.501 88.5772L102.213 88.4505C125.584 66.5874 152.149 48.9257 180.781 35.9351L166.991 87.0047V87.0078ZM162.539 89.8716C148.275 99.257 135.01 110.039 122.949 122.035L90.6378 89.7233L162.539 89.8685V89.8716ZM88.4196 164.738C87.879 165.579 87.3538 166.431 86.8225 167.281L35.7065 181.279C48.7125 152.471 66.4422 125.745 88.4196 102.251V164.742V164.738ZM85.8092 168.903C79.1857 179.657 73.3314 190.933 68.3545 202.669L32.8643 187.779C33.5655 186.12 34.273 184.461 35.0052 182.814L85.8092 168.903ZM55.4411 241.851C55.1476 243.074 54.8572 244.298 54.5822 245.527L10.1948 289.915C11.4151 257.319 18.0787 225.468 29.6977 195.57L55.4411 241.851ZM54.0694 247.872C50.5198 264.388 48.592 281.496 48.4592 299.028H48.4345C48.4345 299.137 48.4376 299.245 48.4376 299.353H2.61666C2.61666 299.353 2.61666 299.337 2.61666 299.328L54.0725 247.872H54.0694ZM2.61666 300.647H48.4407C48.4407 300.755 48.4376 300.863 48.4376 300.972H48.4623C48.5951 318.5 50.5229 335.609 54.0725 352.128L2.61666 300.672C2.61666 300.672 2.61666 300.656 2.61666 300.647ZM54.5853 354.473C54.8603 355.702 55.1507 356.926 55.4442 358.149L29.7008 404.433C18.0818 374.535 11.4182 342.684 10.1979 310.088L54.5853 354.476V354.473ZM32.8674 412.218L68.3576 397.328C73.3376 409.064 79.1887 420.343 85.8123 431.097L35.0083 417.186C34.2761 415.539 33.5686 413.88 32.8674 412.221V412.218ZM86.8286 432.719C87.36 433.566 87.8821 434.421 88.4258 435.262V497.752C66.4484 474.255 48.7187 447.532 35.7126 418.724L86.8286 432.719ZM122.952 477.965C135.01 489.964 148.278 500.743 162.542 510.128L90.644 510.277L122.955 477.965H122.952ZM164.504 511.423C165.328 511.954 166.163 512.473 166.994 512.995L180.784 564.065C152.152 551.074 125.587 533.416 102.217 511.549L164.501 511.423H164.504ZM168.612 514.005C179.317 520.62 190.544 526.465 202.227 531.448L187.266 566.913C185.613 566.212 183.96 565.501 182.32 564.766L168.612 514.005ZM188.458 567.426L203.423 531.954C215.085 536.857 227.192 540.901 239.661 544.021L193.516 569.484C191.826 568.813 190.139 568.13 188.461 567.429L188.458 567.426ZM241.521 544.475C242.852 544.8 244.19 545.115 245.531 545.418L289.915 589.802C257.137 588.576 225.11 581.85 195.063 570.108L241.517 544.475H241.521ZM247.875 545.927C264.391 549.477 281.5 551.405 299.031 551.538V551.562C299.14 551.562 299.248 551.559 299.356 551.559V597.383C299.356 597.383 299.34 597.383 299.331 597.383L247.875 545.927ZM300.653 597.383V551.559C300.762 551.559 300.87 551.562 300.978 551.562V551.538C318.51 551.405 335.618 549.477 352.134 545.927L300.678 597.383C300.678 597.383 300.663 597.383 300.653 597.383ZM354.482 545.415C355.823 545.112 357.157 544.797 358.492 544.475L404.946 570.108C374.899 581.85 342.875 588.576 310.094 589.802L354.482 545.418V545.415ZM360.352 544.018C372.82 540.895 384.927 536.854 396.589 531.951L411.554 567.423C409.877 568.127 408.19 568.807 406.5 569.477L360.355 544.015L360.352 544.018ZM412.743 566.91L397.782 531.445C409.463 526.462 420.692 520.617 431.397 514.002L417.689 564.763C416.049 565.495 414.399 566.206 412.743 566.91ZM433.013 512.992C433.844 512.47 434.678 511.951 435.506 511.42L497.79 511.546C474.419 533.413 447.854 551.071 419.222 564.062L433.013 512.992ZM437.467 510.125C451.731 500.74 464.996 489.961 477.054 477.962L509.362 510.27L437.464 510.122L437.467 510.125ZM511.583 435.262C512.124 434.421 512.649 433.566 513.181 432.719L564.297 418.724C551.291 447.532 533.561 474.258 511.583 497.752V435.262ZM514.194 431.094C520.817 420.34 526.672 409.061 531.649 397.325L567.139 412.215C566.438 413.877 565.73 415.533 564.998 417.18L514.194 431.091V431.094ZM544.562 358.146C544.855 356.922 545.146 355.699 545.421 354.469L589.805 310.082C588.585 342.677 581.924 374.525 570.302 404.427L544.559 358.146H544.562ZM545.934 352.125C549.483 335.609 551.411 318.5 551.544 300.968H551.569C551.569 300.86 551.565 300.752 551.565 300.644H597.389C597.389 300.644 597.389 300.66 597.389 300.669L545.934 352.125ZM591.164 291.265C590.068 257.668 583.203 224.844 571.124 194.093L574.896 187.309C588.968 221.338 596.914 258.515 597.365 297.465L591.164 291.265ZM573.41 183.769L565.925 181.72C552.634 151.992 534.349 124.444 511.58 100.332V91.7901C537.528 118.151 558.628 149.295 573.41 183.769ZM508.216 88.4258L499.693 88.4444C475.71 65.7903 448.326 47.5818 418.777 34.3039L416.757 26.8215C451.023 41.5947 481.988 62.6083 508.216 88.4258ZM413.219 25.3263L406.407 29.0829C375.511 16.877 342.514 9.94146 308.735 8.83857L302.535 2.63829C341.686 3.09242 379.045 11.1154 413.219 25.3263ZM297.468 2.63829L291.268 8.83857C257.489 9.94146 224.492 16.877 193.596 29.0829L186.784 25.3263C220.958 11.1185 258.317 3.09242 297.468 2.63829ZM183.243 26.8215L181.223 34.3039C151.674 47.5787 124.293 65.7903 100.307 88.4413L91.7839 88.4227C118.012 62.6052 148.974 41.5916 183.24 26.8215H183.243ZM88.4227 91.7901V100.332C65.6544 124.444 47.3687 151.992 34.0784 181.72L26.5929 183.769C41.3754 149.295 62.4724 118.151 88.4196 91.7901H88.4227ZM25.1101 187.312L28.8821 194.093C16.7998 224.844 9.93837 257.668 8.84166 291.265L2.64138 297.465C3.09242 258.515 11.0382 221.341 25.1101 187.312ZM8.84166 308.729C9.93837 342.325 16.8029 375.149 28.8821 405.901L25.1101 412.682C11.0382 378.653 3.09242 341.476 2.64138 302.526L8.84166 308.726V308.729ZM26.596 416.225L34.0815 418.273C47.3718 448.002 65.6544 475.549 88.4258 499.662V508.204C62.4786 481.842 41.3815 450.699 26.5991 416.225H26.596ZM91.787 511.568L100.31 511.549C124.293 534.2 151.677 552.412 181.226 565.69L183.247 573.172C148.98 558.399 118.015 537.385 91.787 511.568ZM186.784 574.671L193.596 570.911C224.492 583.117 257.489 590.052 291.268 591.155L297.468 597.356C258.317 596.901 220.955 588.878 186.784 574.667V574.671ZM302.532 597.359L308.732 591.158C342.511 590.055 375.508 583.12 406.404 570.914L413.216 574.674C379.042 588.881 341.683 596.908 302.532 597.362V597.359ZM416.753 573.175L418.774 565.693C448.323 552.418 475.707 534.207 499.689 511.553L508.213 511.571C481.985 537.389 451.02 558.402 416.753 573.175ZM511.577 508.207V499.665C534.346 475.553 552.631 448.008 565.922 418.276L573.407 416.228C558.625 450.702 537.528 481.846 511.577 508.207ZM574.89 412.685L571.118 405.901C583.2 375.149 590.065 342.325 591.158 308.729L597.359 302.529C596.908 341.479 588.962 378.653 574.89 412.685Z" fill="#ECECEB"/>
</svg>
