<svg width="500" height="500" viewBox="0 0 500 500" fill="none" xmlns="http://www.w3.org/2000/svg">
<g clip-path="url(#clip0_9213_64989)">
<path d="M173.389 120.731L169.516 114.024L172.485 112.31L176.358 119.016L173.389 120.731ZM169.013 106.298L164.815 99.0318L161.846 100.747L166.043 108.013L169.013 106.298ZM161.67 93.5797L157.152 85.7508L154.182 87.4655L158.701 95.2945L161.67 93.5797ZM154.328 80.8614L149.485 72.473L146.516 74.1878L151.359 82.5761L154.328 80.8614ZM146.986 68.1431L141.818 59.1952L138.849 60.91L144.016 69.8578L146.986 68.1431ZM139.643 55.4248L134.155 45.9142L131.185 47.6289L136.674 57.1395L139.643 55.4248ZM132.301 42.7064L126.488 32.6364L123.519 34.3512L129.332 44.4212L132.301 42.7064ZM170.866 122.29L166.579 115.842L163.726 117.739L168.013 124.187L170.866 122.29ZM162.736 110.059L158.088 103.07L155.235 104.967L159.883 111.955L162.736 110.059ZM154.606 97.8302L149.601 90.3025L146.747 92.1993L151.752 99.727L154.606 97.8302ZM146.476 85.5985L141.113 77.5312L138.26 79.428L143.622 87.4953L146.476 85.5985ZM138.346 73.3701L132.625 64.7665L129.772 66.6634L135.492 75.2669L138.346 73.3701ZM130.215 61.1384L124.138 51.9953L121.284 53.8921L127.362 63.0352L130.215 61.1384ZM122.085 48.91L115.647 39.2273L112.793 41.1241L119.232 50.8068L122.085 48.91ZM182.049 116.087L178.606 109.148L175.537 110.671L178.98 117.609L182.049 116.087ZM175.524 102.931L171.797 95.4136L168.728 96.9364L172.455 104.454L175.524 102.931ZM168.999 89.7761L164.984 81.6791L161.915 83.2018L165.931 91.2989L168.999 89.7761ZM162.475 76.6209L158.171 67.9445L155.103 69.4672L159.406 78.1436L162.475 76.6209ZM155.95 63.4656L151.359 54.2099L148.29 55.7326L152.881 64.9883L155.95 63.4656ZM149.425 50.3103L144.546 40.4753L141.477 41.998L146.357 51.833L149.425 50.3103ZM142.901 37.155L137.733 26.7407L134.665 28.2634L139.832 38.6778L142.901 37.155ZM251.731 92.0073H248.305V99.7535H251.731V92.0073ZM251.731 76.6738H248.305V85.0655H251.731V76.6738ZM251.731 61.3403H248.305V70.3776H251.731V61.3403ZM251.731 46.0069H248.305V55.6929H251.731V46.0069ZM251.731 30.6734H248.305V41.0049H251.731V30.6734ZM251.731 15.3399H248.305V26.3203H251.731V15.3399ZM251.731 0.00640541H248.305V11.6323H251.731V-0.000215263V0.00640541ZM245.336 99.8362L244.846 92.1066L241.426 92.3218L241.916 100.051L245.336 99.8362ZM244.409 85.1781L243.879 76.8029L240.46 77.0181L240.989 85.3932L244.409 85.1781ZM243.482 70.5199L242.913 61.4992L239.493 61.7144L240.062 70.7351L243.482 70.5199ZM242.555 55.8617L241.943 46.1955L238.523 46.4107L239.135 56.0769L242.555 55.8617ZM241.628 41.2036L240.976 30.8919L237.556 31.107L238.209 41.4187L241.628 41.2036ZM240.701 26.5454L240.009 15.5882L236.59 15.8033L237.282 26.7605L240.701 26.5454ZM239.774 11.8872L239.039 0.284474L235.62 0.499646L236.355 12.1024L239.774 11.8872ZM258.607 92.3152L255.187 92.1L254.697 99.8296L258.117 100.045L258.607 92.3152ZM259.573 77.0115L256.154 76.7963L255.624 85.1715L259.044 85.3866L259.573 77.0115ZM260.54 61.7078L257.121 61.4926L256.551 70.5133L259.971 70.7285L260.54 61.7078ZM261.507 46.4041L258.087 46.1889L257.475 55.8551L260.894 56.0703L261.507 46.4041ZM262.473 31.1004L259.054 30.8852L258.402 41.1969L261.821 41.4121L262.473 31.1004ZM263.44 15.7967L260.02 15.5815L259.329 26.5388L262.748 26.7539L263.44 15.7967ZM264.407 0.493025L260.987 0.277853L260.252 11.8806L263.672 12.0958L264.407 0.493025ZM330.494 114.014L327.525 112.3L323.652 119.006L326.621 120.721L330.494 114.014ZM338.161 100.737L335.192 99.0219L330.994 106.288L333.963 108.003L338.161 100.737ZM345.828 87.4589L342.858 85.7441L338.34 93.5731L341.309 95.2878L345.828 87.4589ZM353.494 74.1811L350.525 72.4664L345.682 80.8548L348.651 82.5695L353.494 74.1811ZM361.161 60.9034L358.192 59.1886L353.024 68.1365L355.994 69.8512L361.161 60.9034ZM368.828 47.6256L365.858 45.9109L360.37 55.4181L363.339 57.1329L368.828 47.6256ZM376.495 34.3478L373.525 32.6331L367.712 42.7031L370.682 44.4179L376.495 34.3478ZM324.483 110.668L321.414 109.145L317.971 116.083L321.04 117.606L324.483 110.668ZM331.295 96.9298L328.227 95.407L324.499 102.925L327.568 104.448L331.295 96.9298ZM338.108 83.1952L335.039 81.6724L331.024 89.7695L334.092 91.2923L338.108 83.1952ZM344.921 69.4606L341.852 67.9378L337.548 76.6142L340.617 78.137L344.921 69.4606ZM351.733 55.7227L348.665 54.1999L344.073 63.4556L347.142 64.9784L351.733 55.7227ZM358.546 41.9881L355.477 40.4653L350.598 50.3004L353.667 51.8231L358.546 41.9881ZM365.359 28.2535L362.29 26.7308L357.123 37.1451L360.191 38.6678L365.359 28.2535ZM336.287 117.739L333.434 115.842L329.147 122.29L332 124.187L336.287 117.739ZM344.775 104.971L341.921 103.074L337.274 110.062L340.127 111.959L344.775 104.971ZM353.263 92.2026L350.409 90.3058L345.404 97.8335L348.257 99.7303L353.263 92.2026ZM361.75 79.4346L358.897 77.5378L353.534 85.6051L356.388 87.5019L361.75 79.4346ZM370.238 66.6667L367.385 64.7699L361.664 73.3734L364.518 75.2702L370.238 66.6667ZM378.726 53.8987L375.872 52.0019L369.794 61.145L372.648 63.0419L378.726 53.8987ZM387.213 41.1307L384.36 39.2339L377.921 48.9166L380.775 50.8135L387.213 41.1307ZM387.687 172.488L385.972 169.522L379.265 173.395L380.98 176.361L387.687 172.488ZM400.965 164.821L399.25 161.855L391.984 166.053L393.698 169.019L400.965 164.821ZM414.242 157.155L412.528 154.189L404.699 158.707L406.413 161.673L414.242 157.155ZM427.52 149.488L425.805 146.522L417.417 151.365L419.132 154.331L427.52 149.488ZM440.798 141.821L439.083 138.852L430.135 144.019L431.85 146.985L440.798 141.818V141.821ZM454.076 134.155L452.361 131.188L442.85 136.677L444.565 139.643L454.076 134.155ZM467.353 126.488L465.639 123.522L455.569 129.335L457.283 132.301L467.353 126.488ZM384.151 166.576L382.255 163.722L375.806 168.009L377.703 170.863L384.151 166.576ZM396.919 158.088L395.023 155.235L388.034 159.882L389.931 162.736L396.919 158.092V158.088ZM409.687 149.601L407.791 146.747L400.263 151.752L402.16 154.606L409.687 149.601ZM422.455 141.113L420.558 138.259L412.491 143.622L414.388 146.476L422.455 141.113ZM435.223 132.625L433.326 129.772L424.723 135.492L426.62 138.345L435.223 132.625ZM447.991 124.137L446.094 121.284L436.951 127.362L438.848 130.215L447.991 124.137ZM460.759 115.65L458.862 112.796L449.18 119.235L451.077 122.088L460.759 115.65ZM390.838 178.609L389.316 175.54L382.377 178.983L383.9 182.052L390.838 178.609ZM404.576 171.796L403.053 168.728L395.536 172.455L397.058 175.524L404.576 171.796ZM418.311 164.984L416.788 161.915L408.691 165.93L410.214 168.999L418.311 164.984ZM432.045 158.171L430.523 155.102L421.846 159.406L423.369 162.474L432.045 158.171ZM445.783 151.358L444.261 148.29L435.005 152.881L436.528 155.95L445.783 151.358ZM459.521 144.546L457.998 141.477L448.163 146.356L449.686 149.425L459.521 144.546ZM473.256 137.733L471.733 134.664L461.315 139.832L462.838 142.9L473.256 137.733ZM407.986 248.302H400.24V251.728H407.986V248.302ZM423.319 248.302H414.928V251.728H423.319V248.302ZM438.653 248.302H429.612V251.728H438.653V248.302ZM453.986 248.302H444.3V251.728H453.986V248.302ZM469.32 248.302H458.988V251.728H469.32V248.302ZM484.653 248.302H473.673V251.728H484.653V248.302ZM499.987 248.302H488.361V251.728H499.987V248.302ZM407.887 244.846L407.671 241.426L399.942 241.916L400.157 245.336L407.887 244.846ZM423.19 243.879L422.975 240.459L414.6 240.989L414.815 244.409L423.19 243.879ZM438.494 242.912L438.279 239.493L429.258 240.062L429.473 243.482L438.494 242.912ZM453.798 241.946L453.582 238.526L443.916 239.139L444.131 242.558L453.798 241.946ZM469.101 240.979L468.886 237.56L458.574 238.212L458.79 241.631L469.101 240.979ZM484.405 240.012L484.19 236.593L473.233 237.285L473.448 240.704L484.405 240.012ZM499.709 239.046L499.493 235.626L487.891 236.361L488.106 239.781L499.709 239.046ZM407.893 255.19L400.163 254.7L399.948 258.12L407.678 258.61L407.893 255.19ZM423.197 256.157L414.822 255.627L414.607 259.047L422.982 259.577L423.197 256.157ZM438.501 257.124L429.48 256.554L429.265 259.974L438.285 260.543L438.501 257.124ZM453.804 258.09L444.138 257.478L443.923 260.897L453.589 261.51L453.804 258.09ZM469.108 259.057L458.796 258.405L458.581 261.824L468.893 262.476L469.108 259.057ZM484.412 260.023L473.454 259.332L473.239 262.751L484.196 263.443L484.412 260.023ZM499.715 260.99L488.113 260.255L487.897 263.675L499.5 264.41L499.715 260.99ZM387.69 327.531L380.983 323.658L379.269 326.624L385.975 330.497L387.69 327.531ZM400.968 335.198L393.702 331L391.987 333.97L399.253 338.167L400.968 335.201V335.198ZM414.246 342.865L406.417 338.346L404.702 341.312L412.531 345.831L414.246 342.861V342.865ZM427.523 350.531L419.135 345.688L417.42 348.658L425.809 353.501L427.523 350.535V350.531ZM440.801 358.198L431.853 353.031L430.139 356L439.086 361.168L440.801 358.201V358.198ZM454.079 365.865L444.572 360.373L442.857 363.342L452.364 368.834L454.079 365.868V365.865ZM467.357 373.532L457.287 367.719L455.572 370.688L465.642 376.501L467.357 373.532ZM390.845 321.417L383.906 317.974L382.384 321.043L389.322 324.486L390.845 321.417ZM404.58 328.23L397.062 324.502L395.539 327.571L403.057 331.298L404.58 328.23ZM418.317 335.042L410.22 331.027L408.698 334.096L416.795 338.111L418.317 335.042ZM432.052 341.855L423.376 337.552L421.853 340.62L430.529 344.924L432.052 341.855ZM445.79 348.668L436.534 344.076L435.011 347.145L444.267 351.736L445.79 348.668ZM459.528 355.48L449.693 350.601L448.17 353.67L458.005 358.549L459.528 355.48ZM473.262 362.293L462.845 357.126L461.322 360.194L471.74 365.362L473.262 362.293ZM384.151 333.437L377.703 329.15L375.806 332.003L382.255 336.29L384.151 333.437ZM396.919 341.925L389.931 337.28L388.034 340.134L395.023 344.778L396.919 341.925ZM409.687 350.412L402.16 345.407L400.263 348.261L407.791 353.266L409.687 350.412ZM422.455 358.9L414.388 353.537L412.491 356.391L420.558 361.753L422.455 358.9ZM435.223 367.388L426.62 361.667L424.723 364.521L433.326 370.241L435.223 367.388ZM447.991 375.875L438.848 369.798L436.951 372.651L446.094 378.729L447.991 375.875ZM460.759 384.363L451.077 377.924L449.18 380.778L458.862 387.217L460.759 384.363ZM330.471 385.975L326.598 379.268L323.629 380.983L327.502 387.69L330.471 385.975ZM338.138 399.253L333.94 391.987L330.971 393.702L335.168 400.968L338.138 399.253ZM345.804 412.531L341.286 404.702L338.316 406.417L342.835 414.245L345.804 412.531ZM353.471 425.809L348.628 417.42L345.659 419.135L350.502 427.523L353.471 425.809ZM361.138 439.086L355.97 430.138L353.001 431.853L358.169 440.801L361.138 439.086ZM368.805 452.364L363.316 442.857L360.347 444.571L365.835 454.079L368.805 452.364ZM376.471 465.642L370.658 455.572L367.689 457.286L373.502 467.357L376.471 465.642ZM336.267 382.254L331.98 375.806L329.127 377.703L333.414 384.151L336.267 382.254ZM344.755 395.022L340.107 388.034L337.254 389.931L341.902 396.919L344.755 395.022ZM353.243 407.79L348.238 400.263L345.384 402.159L350.389 409.687L353.243 407.79ZM361.73 420.558L356.368 412.491L353.514 414.388L358.877 422.455L361.73 420.558ZM370.218 433.326L364.498 424.723L361.644 426.62L367.365 435.223L370.218 433.326ZM378.706 446.094L372.628 436.951L369.775 438.848L375.852 447.991L378.706 446.094ZM387.194 458.862L380.755 449.179L377.901 451.076L384.34 460.759L387.194 458.862ZM324.449 389.315L321.007 382.377L317.938 383.9L321.381 390.838L324.449 389.315ZM331.262 403.053L327.535 395.535L324.466 397.058L328.193 404.576L331.262 403.053ZM338.075 416.788L334.059 408.691L330.991 410.213L335.006 418.311L338.075 416.788ZM344.887 430.526L340.584 421.849L337.515 423.372L341.819 432.048L344.887 430.526ZM351.7 444.26L347.109 435.005L344.04 436.527L348.632 445.783L351.7 444.26ZM358.513 457.995L353.633 448.16L350.565 449.683L355.444 459.518L358.513 457.995ZM365.326 471.733L360.158 461.315L357.089 462.838L362.257 473.256L365.326 471.733ZM251.685 400.243H248.259V407.989H251.685V400.243ZM251.685 414.927H248.259V423.319H251.685V414.927ZM251.685 429.612H248.259V438.649H251.685V429.612ZM251.685 444.297H248.259V453.983H251.685V444.297ZM251.685 458.981H248.259V469.313H251.685V458.981ZM251.685 473.666H248.259V484.646H251.685V473.666ZM251.685 488.351H248.259V499.977H251.685V488.351ZM258.561 407.661L258.071 399.932L254.651 400.147L255.141 407.876L258.561 407.661ZM259.527 422.965L258.997 414.59L255.578 414.805L256.108 423.18L259.527 422.965ZM260.494 438.269L259.924 429.248L256.505 429.463L257.074 438.484L260.494 438.269ZM261.46 453.572L260.848 443.906L257.428 444.121L258.041 453.787L261.46 453.572ZM262.427 468.876L261.775 458.564L258.355 458.779L259.007 469.091L262.427 468.876ZM263.394 484.18L262.702 473.222L259.282 473.438L259.974 484.395L263.394 484.18ZM264.36 499.483L263.625 487.881L260.206 488.096L260.941 499.699L264.36 499.483ZM245.283 400.153L241.863 399.938L241.373 407.668L244.793 407.883L245.283 400.153ZM244.356 414.812L240.936 414.596L240.407 422.972L243.826 423.187L244.356 414.812ZM243.429 429.47L240.009 429.255L239.44 438.275L242.86 438.49L243.429 429.47ZM242.502 444.128L239.082 443.913L238.47 453.579L241.89 453.794L242.502 444.128ZM241.575 458.786L238.156 458.571L237.503 468.883L240.923 469.098L241.575 458.786ZM240.648 473.444L237.229 473.229L236.537 484.186L239.956 484.401L240.648 473.444ZM239.721 488.102L236.302 487.887L235.567 499.49L238.986 499.705L239.721 488.102ZM176.318 380.973L173.349 379.259L169.476 385.965L172.445 387.68L176.318 380.973ZM168.976 393.692L166.007 391.977L161.813 399.243L164.782 400.958L168.976 393.692ZM161.634 406.41L158.664 404.695L154.146 412.524L157.115 414.239L161.634 406.41ZM154.292 419.128L151.322 417.413L146.479 425.802L149.448 427.517L154.292 419.128ZM146.949 431.847L143.98 430.132L138.812 439.08L141.782 440.794L146.949 431.847ZM139.607 444.565L136.637 442.85L131.149 452.357L134.118 454.072L139.607 444.565ZM132.265 457.283L129.295 455.568L123.482 465.638L126.452 467.353L132.265 457.283ZM182.006 383.903L178.937 382.38L175.494 389.319L178.563 390.841L182.006 383.903ZM175.481 397.058L172.412 395.535L168.685 403.053L171.754 404.576L175.481 397.058ZM168.956 410.213L165.888 408.691L161.872 416.788L164.941 418.311L168.956 410.213ZM162.432 423.369L159.363 421.846L155.06 430.522L158.128 432.045L162.432 423.369ZM155.907 436.524L152.838 435.001L148.247 444.257L151.316 445.78L155.907 436.524ZM149.382 449.679L146.314 448.157L141.434 457.992L144.503 459.514L149.382 449.679ZM142.858 462.835L139.789 461.312L134.621 471.729L137.69 473.252L142.858 462.835ZM170.833 377.689L167.98 375.793L163.693 382.241L166.546 384.138L170.833 377.689ZM162.703 389.921L159.85 388.024L155.202 395.012L158.055 396.909L162.703 389.921ZM154.573 402.15L151.719 400.253L146.714 407.78L149.568 409.677L154.573 402.15ZM146.443 414.381L143.589 412.484L138.226 420.552L141.08 422.449L146.443 414.381ZM138.313 426.61L135.459 424.713L129.739 433.316L132.592 435.213L138.313 426.61ZM130.182 438.841L127.329 436.944L121.251 446.088L124.105 447.984L130.182 438.841ZM122.052 451.073L119.199 449.176L112.76 458.859L115.614 460.756L122.052 451.073ZM120.708 326.594L118.993 323.628L112.287 327.501L114.001 330.467L120.708 326.594ZM107.99 333.937L106.275 330.971L99.0089 335.165L100.724 338.134L107.99 333.94V333.937ZM95.2715 341.279L93.5568 338.313L85.7278 342.832L87.4426 345.798L95.2715 341.279ZM82.5532 348.621L80.8384 345.655L72.45 350.498L74.1648 353.464L82.5532 348.621ZM69.8349 355.964L68.1201 352.998L59.1723 358.165L60.887 361.134L69.8349 355.967V355.964ZM57.1166 363.306L55.4018 360.34L45.8912 365.828L47.606 368.795L57.1166 363.306ZM44.3982 370.648L42.6835 367.682L32.6134 373.495L34.3282 376.461L44.3982 370.648ZM124.164 331.97L122.267 329.117L115.819 333.404L117.716 336.257L124.164 331.97ZM111.936 340.101L110.039 337.247L103.051 341.891L104.948 344.745L111.936 340.101ZM99.7074 348.231L97.8105 345.377L90.2828 350.382L92.1796 353.236L99.7074 348.231ZM87.479 356.361L85.5822 353.507L77.5149 358.87L79.4117 361.724L87.479 356.361ZM75.2506 364.491L73.3538 361.638L64.7502 367.358L66.647 370.211L75.2506 364.491ZM63.0222 372.621L61.1254 369.768L51.9822 375.846L53.879 378.699L63.0222 372.621ZM50.7938 380.751L48.897 377.898L39.2143 384.337L41.1111 387.19L50.7938 380.751ZM117.593 321.003L116.07 317.935L109.132 321.377L110.655 324.446L117.593 321.003ZM104.438 327.528L102.915 324.459L95.3973 328.187L96.9201 331.255L104.438 327.528ZM91.2826 334.053L89.7598 330.984L81.6627 334.999L83.1855 338.068L91.2826 334.053ZM78.1273 340.577L76.6045 337.509L67.9281 341.812L69.4509 344.881L78.1273 340.577ZM64.972 347.102L63.4492 344.033L54.1935 348.625L55.7163 351.693L64.972 347.102ZM51.8167 353.627L50.294 350.558L40.4589 355.437L41.9817 358.506L51.8167 353.627ZM38.6614 360.151L37.1387 357.083L26.721 362.25L28.2438 365.319L38.6614 360.151ZM99.7372 248.252H91.991V251.678H99.7372V248.252ZM85.0525 248.252H76.6608V251.678H85.0525V248.252ZM70.3678 248.252H61.3306V251.678H70.3678V248.252ZM55.6832 248.252H45.9971V251.678H55.6832V248.252ZM40.9985 248.252H30.667V251.678H40.9985V248.252ZM26.3139 248.252H15.3335V251.678H26.3139V248.252ZM11.6292 248.252H0V251.678H11.6259V248.252H11.6292ZM100.048 258.067L99.8332 254.647L92.1035 255.137L92.3187 258.557L100.048 258.067ZM85.3902 258.994L85.175 255.574L76.7998 256.104L77.015 259.524L85.3902 258.994ZM70.732 259.921L70.5168 256.501L61.4961 257.071L61.7113 260.49L70.732 259.921ZM56.0738 260.848L55.8586 257.428L46.1924 258.041L46.4076 261.46L56.0738 260.848ZM41.4156 261.775L41.2005 258.355L30.8888 259.007L31.1039 262.427L41.4156 261.775ZM26.7575 262.702L26.5423 259.282L15.5851 259.974L15.8002 263.393L26.7575 262.702ZM12.0993 263.628L11.8841 260.209L0.281379 260.944L0.496551 264.363L12.0993 263.628ZM100.042 241.866L92.3121 241.376L92.0969 244.796L99.8265 245.286L100.042 241.866ZM85.3835 240.939L77.0084 240.41L76.7932 243.829L85.1684 244.359L85.3835 240.939ZM70.7254 240.012L61.7047 239.443L61.4895 242.863L70.5102 243.432L70.7254 240.012ZM56.0672 239.086L46.401 238.473L46.1858 241.893L55.852 242.505L56.0672 239.086ZM41.409 238.159L31.0973 237.507L30.8821 240.926L41.1938 241.578L41.409 238.159ZM26.7508 237.232L15.7936 236.54L15.5784 239.96L26.5357 240.651L26.7508 237.232ZM12.0927 236.305L0.48993 235.57L0.274758 238.99L11.8775 239.724L12.0927 236.305ZM120.718 173.356L114.011 169.482L112.297 172.449L119.003 176.322L120.718 173.356ZM108 166.013L100.734 161.816L99.0188 164.782L106.285 168.979L108 166.01V166.013ZM95.2814 158.671L87.4525 154.152L85.7377 157.118L93.5667 161.637L95.2814 158.668V158.671ZM82.5631 151.329L74.1747 146.486L72.46 149.452L80.8484 154.295L82.5631 151.329ZM69.8448 143.986L60.897 138.819L59.1822 141.785L68.1301 146.952L69.8448 143.983V143.986ZM57.1265 136.644L47.6192 131.152L45.9044 134.121L55.4117 139.613L57.1265 136.644ZM44.4082 129.302L34.3381 123.489L32.6234 126.458L42.6934 132.271L44.4082 129.302ZM117.596 178.94L110.658 175.497L109.135 178.566L116.074 182.009L117.596 178.94ZM104.441 172.415L96.9234 168.688L95.4006 171.757L102.918 175.484L104.441 172.415ZM91.2859 165.891L83.1888 161.875L81.666 164.944L89.7631 168.959L91.2859 165.891ZM78.1306 159.366L69.4542 155.063L67.9314 158.131L76.6078 162.435L78.1306 159.366ZM64.9753 152.841L55.7196 148.25L54.1968 151.319L63.4525 155.91L64.9753 152.841ZM51.82 146.317L41.985 141.437L40.4623 144.506L50.2973 149.385L51.82 146.317ZM38.6647 139.792L28.2471 134.625L26.7244 137.693L37.142 142.861L38.6647 139.792ZM124.184 167.986L117.735 163.699L115.839 166.553L122.287 170.84L124.184 167.986ZM111.956 159.856L104.967 155.208L103.071 158.062L110.059 162.706L111.956 159.853V159.856ZM99.7272 151.726L92.1995 146.721L90.3027 149.574L97.8304 154.579L99.7272 151.726ZM87.4988 143.596L79.4315 138.233L77.5347 141.086L85.602 146.449L87.4988 143.596ZM75.2705 135.465L66.6669 129.745L64.7701 132.599L73.3736 138.319L75.2705 135.465ZM63.0421 127.335L53.8989 121.257L52.0021 124.111L61.1452 130.189L63.0421 127.335ZM50.8137 119.205L41.1309 112.766L39.2341 115.62L48.9169 122.059L50.8137 119.205ZM176.362 119.003L172.488 112.296L169.519 114.011L173.392 120.718L176.362 119.003ZM169.019 106.285L164.822 99.0186L161.852 100.733L166.05 108L169.019 106.285ZM161.677 93.5665L157.158 85.7375L154.189 87.4523L158.708 95.2812L161.677 93.5665ZM154.335 80.8482L149.492 72.4598L146.522 74.1745L151.365 82.5629L154.335 80.8482ZM146.992 68.1298L141.825 59.182L138.855 60.8968L144.023 69.8446L146.992 68.1298ZM139.65 55.4115L134.161 45.9009L131.192 47.6157L136.681 57.1263L139.65 55.4115ZM132.308 42.6932L126.495 32.6232L123.525 34.3379L129.338 44.408L132.308 42.6932ZM170.873 122.277L166.586 115.828L163.733 117.725L168.019 124.174L170.873 122.277ZM162.743 110.045L158.095 103.057L155.242 104.954L159.889 111.942L162.743 110.045ZM154.613 97.8169L149.607 90.2892L146.754 92.1861L151.759 99.7138L154.613 97.8169ZM146.482 85.5852L141.12 77.518L138.266 79.4148L143.629 87.4821L146.482 85.5852ZM138.352 73.3569L132.632 64.7533L129.778 66.6501L135.499 75.2537L138.352 73.3569ZM130.222 61.1252L124.144 51.982L121.291 53.8788L127.369 63.022L130.222 61.1252ZM122.092 48.8968L115.653 39.214L112.8 41.1109L119.238 50.7936L122.092 48.8968ZM182.055 116.073L178.613 109.135L175.544 110.658L178.987 117.596L182.055 116.073ZM175.531 102.918L171.803 95.4004L168.735 96.9231L172.462 104.441L175.531 102.918ZM169.006 89.7629L164.991 81.6658L161.922 83.1886L165.937 91.2856L169.006 89.7629ZM162.481 76.6076L158.178 67.9312L155.109 69.454L159.413 78.1304L162.481 76.6076ZM155.957 63.4523L151.365 54.1966L148.296 55.7194L152.888 64.9751L155.957 63.4523ZM149.432 50.2971L144.553 40.462L141.484 41.9848L146.363 51.8198L149.432 50.2971ZM142.907 37.1418L137.74 26.7274L134.671 28.2502L139.839 38.6645L142.907 37.1418ZM251.738 91.9941H248.312V99.7402H251.738V91.9941ZM251.738 76.6606H248.312V85.0523H251.738V76.6606ZM251.738 61.3271H248.312V70.3643H251.738V61.3271ZM251.738 45.9936H248.312V55.6797H251.738V45.9936ZM251.738 30.6601H248.312V40.9917H251.738V30.6601ZM251.738 15.3266H248.312V26.307H251.738V15.3266ZM251.738 -0.00683594H248.312V11.6191H251.738V-0.000215263V-0.00683594ZM245.342 99.823L244.852 92.0934L241.433 92.3085L241.923 100.038L245.342 99.823ZM244.415 85.1648L243.886 76.7897L240.466 77.0049L240.996 85.38L244.415 85.1648ZM243.489 70.5067L242.919 61.486L239.5 61.7012L240.069 70.7218L243.489 70.5067ZM242.562 55.8485L241.949 46.1823L238.53 46.3975L239.142 56.0637L242.562 55.8485ZM241.635 41.1903L240.983 30.8786L237.563 31.0938L238.215 41.4055L241.635 41.1903ZM240.708 26.5321L240.016 15.5749L236.596 15.7901L237.288 26.7473L240.708 26.5321ZM239.781 11.874L239.046 0.271232L235.626 0.486404L236.361 12.0891L239.781 11.874ZM258.613 92.3019L255.194 92.0867L254.704 99.8164L258.124 100.032L258.613 92.3019ZM259.58 76.9982L256.161 76.7831L255.631 85.1582L259.05 85.3734L259.58 76.9982ZM260.547 61.6945L257.127 61.4794L256.558 70.5L259.977 70.7152L260.547 61.6945ZM261.513 46.3909L258.094 46.1757L257.481 55.8419L260.901 56.057L261.513 46.3909ZM262.48 31.0872L259.06 30.872L258.408 41.1837L261.828 41.3989L262.48 31.0872ZM263.447 15.7835L260.027 15.5683L259.335 26.5255L262.755 26.7407L263.447 15.7835ZM264.413 0.479784L260.994 0.264612L260.259 11.8673L263.678 12.0825L264.413 0.479784ZM200.845 107.986L198.226 100.697L195.002 101.856L197.621 109.145L200.845 107.986ZM195.883 94.1656L193.046 86.2672L189.821 87.4258L192.658 95.3242L195.883 94.1656ZM190.92 80.345L187.865 71.8374L184.641 72.996L187.696 81.5036L190.92 80.345ZM185.958 66.5243L182.684 57.4077L179.46 58.5663L182.734 67.6829L185.958 66.5243ZM180.996 52.7037L177.504 42.9779L174.279 44.1365L177.772 53.8623L180.996 52.7037ZM176.034 38.883L172.323 28.5481L169.099 29.7068L172.81 40.0416L176.034 38.883ZM171.068 25.0623L167.139 14.1184L163.915 15.277L167.844 26.221L171.068 25.0623ZM194.863 110.237L191.791 103.127L188.646 104.487L191.718 111.598L194.863 110.237ZM189.037 96.7576L185.707 89.0545L182.562 90.415L185.892 98.1182L189.037 96.7576ZM183.211 83.2779L179.626 74.9822L176.481 76.3428L180.066 84.6385L183.211 83.2779ZM177.384 69.7982L173.541 60.9067L170.396 62.2672L174.24 71.1588L177.384 69.7982ZM171.558 56.3186L167.46 46.8344L164.315 48.195L168.413 57.6791L171.558 56.3186ZM165.732 42.8389L161.376 32.7589L158.231 34.1194L162.587 44.1994L165.732 42.8389ZM159.906 29.3592L155.295 18.6866L152.15 20.0472L156.761 30.7197L159.906 29.3592ZM206.966 106.129L204.814 98.6909L201.523 99.6442L203.675 107.083L206.966 106.129ZM202.884 92.0205L200.55 83.9599L197.26 84.9132L199.593 92.9739L202.884 92.0205ZM198.802 77.9119L196.29 69.2289L192.999 70.1822L195.512 78.8653L198.802 77.9119ZM194.721 63.8032L192.029 54.4979L188.739 55.4512L191.43 64.7566L194.721 63.8032ZM190.639 49.6946L187.766 39.7702L184.475 40.7236L187.349 50.6479L190.639 49.6946ZM186.557 35.5859L183.505 25.0392L180.215 25.9926L183.267 36.5393L186.557 35.5859ZM182.476 21.4773L179.245 10.3082L175.954 11.2616L179.185 22.4306L182.476 21.4773ZM279.813 94.8112L276.44 94.2021L275.063 101.822L278.436 102.432L279.813 94.8112ZM282.541 79.7226L279.167 79.1135L277.674 87.3728L281.048 87.9819L282.541 79.7226ZM285.268 64.6341L281.895 64.025L280.286 72.9199L283.66 73.529L285.268 64.6341ZM287.996 49.5456L284.623 48.9365L282.901 58.467L286.275 59.0761L287.996 49.5456ZM290.724 34.4571L287.351 33.848L285.513 44.0173L288.887 44.6264L290.724 34.4571ZM293.451 19.3686L290.078 18.7595L288.125 29.5644L291.498 30.1735L293.451 19.3686ZM296.179 4.28005L292.806 3.67095L290.737 15.1115L294.11 15.7206L296.179 4.28005ZM273.023 93.6889L269.62 93.2917L268.727 100.985L272.13 101.382L273.023 93.6889ZM274.794 78.4581L271.391 78.0609L270.421 86.3963L273.824 86.7935L274.794 78.4581ZM276.565 63.2272L273.162 62.83L272.12 71.8076L275.523 72.2049L276.565 63.2272ZM278.336 47.9964L274.933 47.5991L273.815 57.219L277.218 57.6162L278.336 47.9964ZM280.107 32.7655L276.704 32.3683L275.513 42.6336L278.916 43.0309L280.107 32.7655ZM281.879 17.5346L278.475 17.1374L277.208 28.045L280.611 28.4422L281.879 17.5346ZM283.65 2.30378L280.247 1.90654L278.906 13.4563L282.309 13.8535L283.65 2.30378ZM286.533 96.3471L283.206 95.5262L281.349 103.044L284.676 103.865L286.533 96.3471ZM290.207 81.4606L286.88 80.6396L284.871 88.7863L288.198 89.6073L290.207 81.4606ZM293.882 66.574L290.555 65.753L288.39 74.5287L291.717 75.3497L293.882 66.574ZM297.556 51.6874L294.229 50.8664L291.909 60.2711L295.236 61.0921L297.556 51.6874ZM301.231 36.8008L297.904 35.9798L295.428 46.0102L298.755 46.8311L301.231 36.8008ZM304.905 21.9142L301.578 21.0933L298.947 31.7525L302.274 32.5735L304.905 21.9142ZM308.58 7.02763L305.253 6.20667L302.466 17.4949L305.792 18.3159L308.58 7.02763ZM353.422 130.497L350.806 128.282L345.804 134.194L348.42 136.409L353.422 130.497ZM363.329 118.791L360.714 116.577L355.292 122.982L357.907 125.197L363.329 118.791ZM373.237 107.089L370.622 104.875L364.783 111.773L367.398 113.988L373.237 107.089ZM383.145 95.3839L380.53 93.1692L374.273 100.561L376.889 102.776L383.145 95.3839ZM393.053 83.6818L390.438 81.4672L383.761 89.3524L386.376 91.567L393.053 83.6818ZM402.961 71.9764L400.346 69.7618L393.252 78.1436L395.867 80.3582L402.961 71.9764ZM412.869 60.2744L410.253 58.0598L402.742 66.9348L405.357 69.1494L412.869 60.2744ZM348.112 126.127L345.361 124.081L340.74 130.298L343.491 132.344L348.112 126.127ZM357.258 113.822L354.507 111.777L349.502 118.51L352.253 120.556L357.258 113.822ZM366.408 101.518L363.657 99.4721L358.265 106.725L361.015 108.771L366.408 101.518ZM375.554 89.2134L372.804 87.1676L367.024 94.9403L369.775 96.986L375.554 89.2134ZM384.701 76.9089L381.95 74.8631L375.786 83.1555L378.537 85.2012L384.701 76.9089ZM393.847 64.6043L391.096 62.5585L384.545 71.3707L387.296 73.4165L393.847 64.6043ZM402.994 52.2998L400.243 50.254L393.308 59.5859L396.059 61.6316L402.994 52.2998ZM358.47 135.187L356 132.814L350.634 138.398L353.104 140.772L358.47 135.187ZM369.096 124.131L366.626 121.757L360.81 127.809L363.28 130.182L369.096 124.131ZM379.722 113.074L377.253 110.701L370.99 117.219L373.459 119.592L379.722 113.074ZM390.348 102.018L387.879 99.6442L381.169 106.629L383.638 109.003L390.348 102.018ZM400.975 90.9612L398.505 88.5877L391.345 96.0393L393.814 98.4128L400.975 90.9612ZM411.601 79.9047L409.131 77.5312L401.524 85.4462L403.994 87.8197L411.601 79.9047ZM422.227 68.8482L419.757 66.4747L411.7 74.8564L414.17 77.23L422.227 68.8482ZM399.329 198.196L398.171 194.972L390.881 197.591L392.04 200.815L399.329 198.196ZM413.759 193.016L412.6 189.791L404.702 192.628L405.861 195.853L413.759 193.016ZM428.189 187.832L427.03 184.607L418.523 187.663L419.681 190.887L428.189 187.832ZM442.619 182.648L441.46 179.423L432.343 182.697L433.502 185.922L442.619 182.648ZM457.048 177.464L455.89 174.239L446.164 177.732L447.323 180.956L457.048 177.464ZM471.478 172.28L470.319 169.055L459.985 172.766L461.143 175.991L471.478 172.28ZM485.908 167.096L484.749 163.871L473.805 167.801L474.964 171.025L485.908 167.096ZM396.9 191.748L395.539 188.603L388.428 191.675L389.789 194.82L396.9 191.748ZM410.975 185.667L409.615 182.522L401.911 185.852L403.272 188.997L410.975 185.667ZM425.051 179.586L423.69 176.441L415.394 180.026L416.755 183.171L425.051 179.586ZM439.126 173.501L437.766 170.356L428.874 174.2L430.235 177.344L439.126 173.501ZM453.202 167.42L451.841 164.275L442.357 168.373L443.718 171.518L453.202 167.42ZM467.277 161.339L465.917 158.194L455.837 162.551L457.197 165.695L467.277 161.339ZM481.353 155.255L479.992 152.11L469.32 156.721L470.68 159.866L481.353 155.255ZM401.349 204.774L400.395 201.48L392.957 203.632L393.91 206.926L401.349 204.774ZM416.076 200.514L415.123 197.22L407.062 199.554L408.016 202.847L416.076 200.514ZM430.804 196.253L429.851 192.959L421.168 195.472L422.121 198.766L430.804 196.253ZM445.532 191.993L444.578 188.699L435.273 191.39L436.226 194.684L445.532 191.993ZM460.259 187.732L459.306 184.439L449.382 187.312L450.335 190.606L460.259 187.732ZM474.987 183.472L474.034 180.178L463.487 183.23L464.44 186.524L474.987 183.472ZM489.715 179.212L488.761 175.918L477.592 179.149L478.546 182.442L489.715 179.212ZM405.821 276.41L398.201 275.033L397.591 278.406L405.212 279.783L405.821 276.41ZM420.909 279.137L412.65 277.644L412.041 281.018L420.3 282.511L420.909 279.137ZM435.998 281.865L427.103 280.256L426.494 283.629L435.389 285.238L435.998 281.865ZM451.086 284.593L441.556 282.868L440.947 286.241L450.477 287.966L451.086 284.593ZM466.175 287.321L456.006 285.483L455.397 288.857L465.566 290.694L466.175 287.321ZM481.263 290.048L470.459 288.095L469.849 291.468L480.654 293.421L481.263 290.048ZM496.352 292.776L484.911 290.707L484.302 294.08L495.743 296.149L496.352 292.776ZM406.731 269.59L399.038 268.697L398.644 272.1L406.337 272.993L406.731 269.59ZM421.962 271.361L413.627 270.391L413.233 273.794L421.568 274.764L421.962 271.361ZM437.193 273.132L428.215 272.09L427.821 275.493L436.799 276.535L437.193 273.132ZM452.424 274.903L442.804 273.785L442.41 277.188L452.03 278.306L452.424 274.903ZM467.655 276.674L457.389 275.483L456.992 278.886L467.257 280.078L467.655 276.674ZM482.886 278.446L471.978 277.178L471.581 280.581L482.488 281.849L482.886 278.446ZM498.116 280.217L486.567 278.876L486.169 282.279L497.719 283.62L498.116 280.217ZM404.497 283.176L396.979 281.319L396.158 284.646L403.676 286.503L404.497 283.176ZM419.383 286.85L411.237 284.841L410.416 288.168L418.562 290.177L419.383 286.85ZM434.27 290.525L425.494 288.36L424.673 291.687L433.449 293.852L434.27 290.525ZM449.156 294.199L439.752 291.879L438.931 295.206L448.336 297.526L449.156 294.199ZM464.043 297.874L454.009 295.398L453.189 298.725L463.222 301.201L464.043 297.874ZM478.93 301.548L468.27 298.917L467.449 302.244L478.109 304.875L478.93 301.548ZM493.816 305.223L482.528 302.436L481.707 305.762L492.995 308.55L493.816 305.223ZM371.741 350.776L365.829 345.771L363.614 348.386L369.526 353.392L371.741 350.776ZM383.443 360.684L377.037 355.262L374.823 357.877L381.228 363.299L383.443 360.684ZM395.145 370.592L388.246 364.753L386.032 367.368L392.93 373.207L395.145 370.592ZM406.847 380.5L399.455 374.243L397.24 376.859L404.632 383.115L406.847 380.5ZM418.549 390.408L410.661 383.731L408.446 386.346L416.335 393.023L418.549 390.408ZM430.251 400.316L421.869 393.222L419.655 395.837L428.037 402.931L430.251 400.316ZM441.953 410.223L433.078 402.712L430.864 405.327L439.739 412.839L441.953 410.223ZM375.932 345.331L369.715 340.71L367.669 343.461L373.886 348.082L375.932 345.331ZM388.236 354.481L381.503 349.475L379.457 352.226L386.191 357.232L388.236 354.481ZM400.541 363.63L393.288 358.238L391.242 360.989L398.495 366.381L400.541 363.63ZM412.845 372.777L405.073 366.997L403.027 369.748L410.8 375.528L412.845 372.777ZM425.15 381.927L416.858 375.763L414.812 378.514L423.104 384.678L425.15 381.927ZM437.454 391.073L428.642 384.522L426.597 387.273L435.409 393.824L437.454 391.073ZM449.759 400.223L440.427 393.284L438.381 396.035L447.713 402.974L449.759 400.223ZM367.202 355.977L361.618 350.611L359.244 353.08L364.829 358.446L367.202 355.977ZM378.259 366.603L372.208 360.787L369.834 363.256L375.885 369.073L378.259 366.603ZM389.316 377.229L382.797 370.966L380.424 373.436L386.942 379.699L389.316 377.229ZM400.372 387.855L393.387 381.145L391.014 383.615L397.999 390.325L400.372 387.855ZM411.429 398.482L403.977 391.321L401.604 393.791L409.055 400.951L411.429 398.482ZM422.485 409.108L414.57 401.501L412.197 403.97L420.112 411.577L422.485 409.108ZM433.542 419.734L425.16 411.677L422.786 414.146L431.168 422.204L433.542 419.734ZM305.044 398.147L302.426 390.858L299.202 392.017L301.82 399.306L305.044 398.147ZM310.228 412.577L307.391 404.679L304.167 405.837L307.004 413.736L310.228 412.577ZM315.412 427.007L312.357 418.499L309.133 419.658L312.188 428.165L315.412 427.007ZM320.596 441.437L317.322 432.32L314.098 433.479L317.372 442.595L320.596 441.437ZM325.78 455.866L322.288 446.141L319.064 447.299L322.556 457.025L325.78 455.866ZM330.964 470.296L327.253 459.961L324.029 461.12L327.74 471.455L330.964 470.296ZM336.148 484.726L332.219 473.782L328.995 474.94L332.924 485.884L336.148 484.726ZM311.417 395.516L308.345 388.405L305.2 389.766L308.272 396.876L311.417 395.516ZM317.501 409.591L314.171 401.888L311.026 403.249L314.356 410.952L317.501 409.591ZM323.585 423.667L320 415.371L316.856 416.732L320.441 425.027L323.585 423.667ZM329.67 437.742L325.827 428.851L322.682 430.211L326.525 439.103L329.67 437.742ZM335.751 451.818L331.653 442.334L328.508 443.694L332.606 453.178L335.751 451.818ZM341.835 465.893L337.479 455.813L334.334 457.174L338.691 467.254L341.835 465.893ZM347.92 479.969L343.308 469.296L340.164 470.657L344.775 481.329L347.92 479.969ZM298.546 400.372L296.394 392.934L293.104 393.887L295.256 401.325L298.546 400.372ZM302.806 415.1L300.473 407.039L297.182 407.992L299.516 416.053L302.806 415.1ZM307.067 429.827L304.554 421.144L301.264 422.098L303.776 430.781L307.067 429.827ZM311.327 444.555L308.636 435.25L305.346 436.203L308.037 445.508L311.327 444.555ZM315.588 459.283L312.714 449.358L309.424 450.312L312.297 460.236L315.588 459.283ZM319.848 474.01L316.796 463.464L313.505 464.417L316.558 474.964L319.848 474.01ZM324.109 488.738L320.878 477.569L317.587 478.522L320.818 489.691L324.109 488.738ZM224.997 398.174L221.624 397.565L220.247 405.185L223.62 405.794L224.997 398.174ZM222.385 412.627L219.012 412.018L217.519 420.277L220.892 420.886L222.385 412.627ZM219.773 427.08L216.4 426.471L214.791 435.365L218.164 435.975L219.773 427.08ZM217.161 441.533L213.788 440.923L212.067 450.454L215.44 451.063L217.161 441.533ZM214.55 455.986L211.176 455.376L209.339 465.546L212.712 466.155L214.55 455.986ZM211.938 470.438L208.564 469.829L206.611 480.634L209.985 481.243L211.938 470.438ZM209.326 484.891L205.953 484.282L203.884 495.723L207.257 496.332L209.326 484.891ZM231.34 399.018L227.937 398.621L227.043 406.314L230.446 406.711L231.34 399.018ZM229.645 413.607L226.242 413.209L225.272 421.545L228.675 421.942L229.645 413.607ZM227.95 428.195L224.547 427.798L223.504 436.776L226.907 437.173L227.95 428.195ZM226.255 442.784L222.852 442.387L221.733 452.006L225.136 452.404L226.255 442.784ZM224.56 457.373L221.157 456.975L219.965 467.241L223.368 467.638L224.56 457.373ZM222.865 471.961L219.462 471.564L218.194 482.472L221.597 482.869L222.865 471.961ZM221.17 486.55L217.767 486.153L216.427 497.702L219.83 498.1L221.17 486.55ZM218.724 396.959L215.397 396.138L213.54 403.656L216.867 404.477L218.724 396.959ZM215.205 411.217L211.878 410.396L209.869 418.542L213.196 419.363L215.205 411.217ZM211.686 425.474L208.359 424.653L206.194 433.429L209.521 434.25L211.686 425.474ZM208.167 439.732L204.84 438.911L202.52 448.315L205.847 449.136L208.167 439.732ZM204.648 453.989L201.321 453.168L198.845 463.199L202.172 464.02L204.648 453.989ZM201.129 468.247L197.803 467.426L195.171 478.085L198.498 478.906L201.129 468.247ZM197.611 482.505L194.284 481.684L191.496 492.972L194.823 493.793L197.611 482.505ZM154.275 365.805L151.66 363.591L146.655 369.503L149.27 371.718L154.275 365.805ZM144.788 377.014L142.172 374.799L136.75 381.205L139.365 383.42L144.788 377.014ZM135.3 388.223L132.685 386.008L126.846 392.907L129.461 395.122L135.3 388.223ZM125.813 399.432L123.198 397.217L116.941 404.609L119.556 406.824L125.813 399.432ZM116.325 410.641L113.71 408.426L107.033 416.314L109.648 418.529L116.325 410.641ZM106.838 421.849L104.223 419.635L97.1286 428.016L99.7438 430.231L106.838 421.849ZM97.3504 433.058L94.7352 430.844L87.2241 439.719L89.8392 441.933L97.3504 433.058ZM159.35 369.695L156.599 367.649L151.978 373.866L154.728 375.912L159.35 369.695ZM150.587 381.48L147.836 379.434L142.831 386.167L145.582 388.213L150.587 381.48ZM141.825 393.265L139.074 391.219L133.681 398.472L136.432 400.518L141.825 393.265ZM133.062 405.049L130.311 403.004L124.532 410.776L127.282 412.822L133.062 405.049ZM124.3 416.834L121.549 414.788L115.385 423.081L118.136 425.127L124.3 416.834ZM115.537 428.619L112.786 426.573L106.235 435.385L108.986 437.431L115.537 428.619ZM106.775 440.404L104.024 438.358L97.0856 447.69L99.8365 449.736L106.775 440.404ZM149.452 361.595L146.982 359.221L141.616 364.806L144.086 367.179L149.452 361.595ZM139.276 372.184L136.806 369.811L130.99 375.862L133.46 378.236L139.276 372.184ZM129.1 382.774L126.63 380.401L120.367 386.919L122.837 389.292L129.1 382.774ZM118.924 393.364L116.454 390.99L109.744 397.975L112.214 400.349L118.924 393.364ZM108.748 403.954L106.278 401.58L99.1181 409.032L101.588 411.405L108.748 403.954ZM98.5719 414.543L96.1024 412.17L88.4952 420.085L90.9648 422.458L98.5719 414.543ZM88.3959 425.133L85.9264 422.76L77.8691 431.141L80.3386 433.515L88.3959 425.133ZM109.215 302.402L108.056 299.178L100.767 301.797L101.925 305.021L109.215 302.402ZM95.394 307.365L94.2354 304.14L86.3369 306.977L87.4955 310.202L95.394 307.365ZM81.5733 312.33L80.4147 309.106L71.9072 312.161L73.0658 315.386L81.5733 312.33ZM67.7527 317.292L66.5941 314.068L57.4774 317.342L58.636 320.566L67.7527 317.292ZM53.932 322.258L52.7734 319.034L43.0476 322.526L44.2062 325.75L53.932 322.258ZM40.1114 327.223L38.9527 323.999L28.6179 327.71L29.7765 330.934L40.1114 327.223ZM26.2907 332.186L25.1321 328.961L14.1881 332.891L15.3467 336.115L26.2907 332.186ZM111.664 308.311L110.304 305.167L103.193 308.239L104.554 311.383L111.664 308.311ZM98.1846 314.138L96.8241 310.993L89.1209 314.323L90.4814 317.468L98.1846 314.138ZM84.7049 319.964L83.3444 316.819L75.0487 320.404L76.4092 323.549L84.7049 319.964ZM71.2252 325.79L69.8647 322.645L60.9731 326.488L62.3337 329.633L71.2252 325.79ZM57.7455 331.616L56.385 328.471L46.9009 332.57L48.2614 335.714L57.7455 331.616ZM44.2658 337.442L42.9053 334.298L32.8253 338.654L34.1859 341.799L44.2658 337.442ZM30.7861 343.269L29.4256 340.124L18.7531 344.735L20.1136 347.88L30.7861 343.269ZM107.149 296.354L106.196 293.061L98.7573 295.212L99.7107 298.506L107.149 296.354ZM93.0403 300.436L92.087 297.142L84.0263 299.476L84.9797 302.77L93.0403 300.436ZM78.9317 304.518L77.9783 301.224L69.2953 303.736L70.2487 307.03L78.9317 304.518ZM64.823 308.599L63.8697 305.306L54.5643 307.997L55.5177 311.291L64.823 308.599ZM50.7144 312.681L49.761 309.387L39.8366 312.261L40.79 315.554L50.7144 312.681ZM36.6057 316.763L35.6523 313.469L25.1056 316.521L26.059 319.815L36.6057 316.763ZM22.4971 320.844L21.5437 317.551L10.3746 320.781L11.328 324.075L22.4971 320.844ZM102.501 221.59L94.8809 220.213L94.2718 223.587L101.892 224.964L102.501 221.59ZM88.0484 218.979L79.7891 217.486L79.18 220.859L87.4393 222.352L88.0484 218.979ZM73.5954 216.367L64.7005 214.758L64.0914 218.131L72.9863 219.74L73.5954 216.367ZM59.1425 213.755L49.612 212.034L49.0029 215.407L58.5334 217.128L59.1425 213.755ZM44.6896 211.143L34.5202 209.306L33.9111 212.679L44.0805 214.516L44.6896 211.143ZM30.2366 208.531L19.4317 206.578L18.8226 209.951L29.6275 211.904L30.2366 208.531ZM15.7837 205.919L4.34316 203.85L3.73406 207.224L15.1746 209.293L15.7837 205.919ZM101.442 227.9L93.7488 227.006L93.3548 230.409L101.048 231.303L101.442 227.9ZM86.8533 226.205L78.5179 225.235L78.124 228.638L86.4594 229.608L86.8533 226.205ZM72.2647 224.51L63.287 223.467L62.8931 226.87L71.8707 227.913L72.2647 224.51ZM57.676 222.815L48.0562 221.696L47.6622 225.099L57.2821 226.218L57.676 222.815ZM43.0874 221.12L32.822 219.929L32.4281 223.332L42.6934 224.523L43.0874 221.12ZM28.4987 219.425L17.5911 218.158L17.1972 221.561L28.1048 222.829L28.4987 219.425ZM13.91 217.731L2.36027 216.39L1.96634 219.793L13.5161 221.134L13.91 217.731ZM103.925 215.36L96.407 213.503L95.586 216.83L103.104 218.687L103.925 215.36ZM89.6671 211.842L81.5204 209.832L80.6994 213.159L88.8461 215.168L89.6671 211.842ZM75.4095 208.323L66.6338 206.158L65.8128 209.485L74.5885 211.65L75.4095 208.323ZM61.1519 204.804L51.7472 202.483L50.9262 205.81L60.3309 208.131L61.1519 204.804ZM46.8942 201.285L36.8639 198.809L36.043 202.136L46.0733 204.612L46.8942 201.285ZM32.6366 197.766L21.9773 195.134L21.1564 198.461L31.8157 201.093L32.6366 197.766ZM18.379 194.247L7.09074 191.46L6.26978 194.787L17.558 197.574L18.379 194.247ZM136.469 151.623L130.556 146.621L128.342 149.236L134.254 154.238L136.469 151.623ZM125.26 142.136L118.854 136.713L116.64 139.329L123.045 144.751L125.26 142.136ZM114.051 132.648L107.152 126.809L104.938 129.424L111.836 135.263L114.051 132.648ZM102.842 123.161L95.4503 116.904L93.2356 119.52L100.628 125.776L102.842 123.161ZM91.6334 113.673L83.7449 106.997L81.5303 109.612L89.4188 116.289L91.6334 113.673ZM80.4246 104.186L72.0429 97.092L69.8283 99.7071L78.21 106.801L80.4246 104.186ZM69.2158 94.6986L60.3408 87.1874L58.1262 89.8026L67.0012 97.3138L69.2158 94.6986ZM132.41 156.565L126.193 151.944L124.148 154.695L130.364 159.316L132.41 156.565ZM120.625 147.803L113.892 142.798L111.846 145.549L118.58 150.554L120.625 147.803ZM108.841 139.041L101.588 133.648L99.5418 136.399L106.795 141.791L108.841 139.041ZM97.0558 130.278L89.2831 124.498L87.2373 127.249L95.01 133.029L97.0558 130.278ZM85.271 121.516L76.9786 115.352L74.9328 118.103L83.2252 124.267L85.271 121.516ZM73.4862 112.753L64.6741 106.202L62.6283 108.953L71.4404 115.504L73.4862 112.753ZM61.7014 103.991L52.3695 97.0522L50.3237 99.8031L59.6556 106.742L61.7014 103.991ZM140.842 146.946L135.257 141.58L132.884 144.049L138.468 149.415L140.842 146.946ZM130.252 136.77L124.201 130.953L121.827 133.423L127.878 139.239L130.252 136.77ZM119.662 126.594L113.144 120.331L110.771 122.8L117.289 129.063L119.662 126.594ZM109.072 116.418L102.088 109.708L99.714 112.177L106.699 118.887L109.072 116.418ZM98.4825 106.242L91.031 99.0815L88.6575 101.551L96.109 108.711L98.4825 106.242ZM87.8928 96.0658L79.9778 88.4586L77.6042 90.9281L85.5193 98.5353L87.8928 96.0658ZM77.303 85.8898L68.9212 77.8324L66.5477 80.3019L74.9295 88.3593L77.303 85.8898ZM200.885 108.019L198.266 100.73L195.042 101.889L197.66 109.178L200.885 108.019ZM195.922 94.1987L193.085 86.3003L189.861 87.4589L192.698 95.3574L195.922 94.1987ZM190.96 80.3781L187.905 71.8705L184.68 73.0291L187.736 81.5367L190.96 80.3781ZM185.998 66.5574L182.724 57.4408L179.5 58.5994L182.774 67.716L185.998 66.5574ZM181.036 52.7368L177.543 43.011L174.319 44.1696L177.811 53.8954L181.036 52.7368ZM176.074 38.9161L172.363 28.5812L169.138 29.7399L172.849 40.0747L176.074 38.9161ZM171.108 25.0954L167.179 14.1515L163.954 15.3101L167.884 26.2541L171.108 25.0954ZM194.903 110.27L191.831 103.16L188.686 104.52L191.758 111.631L194.903 110.27ZM189.077 96.7907L185.746 89.0876L182.602 90.4481L185.932 98.1513L189.077 96.7907ZM183.25 83.311L179.665 75.0153L176.52 76.3759L180.106 84.6716L183.25 83.311ZM177.424 69.8314L173.581 60.9398L170.436 62.3003L174.279 71.1919L177.424 69.8314ZM171.598 56.3517L167.5 46.8675L164.355 48.2281L168.453 57.7122L171.598 56.3517ZM165.772 42.872L161.415 32.792L158.271 34.1525L162.627 44.2325L165.772 42.872ZM159.946 29.3923L155.334 18.7197L152.189 20.0803L156.801 30.7528L159.946 29.3923ZM207.005 106.162L204.854 98.724L201.563 99.6773L203.715 107.116L207.005 106.162ZM202.924 92.0536L200.59 83.993L197.299 84.9463L199.633 93.007L202.924 92.0536ZM198.842 77.945L196.329 69.262L193.039 70.2154L195.552 78.8984L198.842 77.945ZM194.76 63.8363L192.069 54.531L188.779 55.4844L191.47 64.7897L194.76 63.8363ZM190.679 49.7277L187.805 39.8033L184.515 40.7567L187.388 50.6811L190.679 49.7277ZM186.597 35.619L183.545 25.0723L180.255 26.0257L183.307 36.5724L186.597 35.619ZM182.515 21.5104L179.285 10.3413L175.994 11.2947L179.225 22.4637L182.515 21.5104ZM279.853 94.8443L276.479 94.2352L275.102 101.856L278.475 102.465L279.853 94.8443ZM282.58 79.7557L279.207 79.1466L277.714 87.4059L281.087 88.015L282.58 79.7557ZM285.308 64.6672L281.935 64.0581L280.326 72.953L283.699 73.5621L285.308 64.6672ZM288.036 49.5787L284.663 48.9696L282.941 58.5001L286.314 59.1092L288.036 49.5787ZM290.763 34.4902L287.39 33.8811L285.553 44.0504L288.926 44.6595L290.763 34.4902ZM293.491 19.4017L290.118 18.7926L288.165 29.5975L291.538 30.2066L293.491 19.4017ZM296.219 4.31315L292.846 3.70405L290.777 15.1446L294.15 15.7537L296.219 4.31315ZM273.063 93.7221L269.66 93.3248L268.766 101.018L272.169 101.415L273.063 93.7221ZM274.834 78.4912L271.431 78.094L270.461 86.4294L273.864 86.8266L274.834 78.4912ZM276.605 63.2603L273.202 62.8631L272.159 71.8407L275.562 72.238L276.605 63.2603ZM278.376 48.0295L274.973 47.6322L273.854 57.2521L277.257 57.6493L278.376 48.0295ZM280.147 32.7986L276.744 32.4014L275.552 42.6667L278.956 43.064L280.147 32.7986ZM281.918 17.5677L278.515 17.1705L277.247 28.0781L280.65 28.4753L281.918 17.5677ZM283.689 2.33688L280.286 1.93964L278.946 13.4894L282.349 13.8867L283.689 2.33688ZM286.573 96.3802L283.246 95.5593L281.389 103.077L284.716 103.898L286.573 96.3802ZM290.247 81.4937L286.92 80.6727L284.911 88.8194L288.238 89.6404L290.247 81.4937ZM293.922 66.6071L290.595 65.7861L288.43 74.5618L291.757 75.3828L293.922 66.6071ZM297.596 51.7205L294.269 50.8995L291.949 60.3042L295.275 61.1252L297.596 51.7205ZM301.271 36.8339L297.944 36.0129L295.467 46.0433L298.794 46.8642L301.271 36.8339ZM304.945 21.9473L301.618 21.1264L298.986 31.7856L302.313 32.6066L304.945 21.9473ZM308.619 7.06073L305.293 6.23977L302.505 17.528L305.832 18.349L308.619 7.06073ZM226.354 101.64L225.043 94.0067L221.667 94.5861L222.978 102.22L226.354 101.64ZM223.872 87.1643L222.451 78.8917L219.075 79.4711L220.495 87.7436L223.872 87.1643ZM221.389 72.6882L219.859 63.7801L216.483 64.3594L218.012 73.2675L221.389 72.6882ZM218.906 58.2121L217.267 48.6651L213.891 49.2444L215.529 58.7914L218.906 58.2121ZM216.423 43.736L214.675 33.5501L211.299 34.1294L213.047 44.3153L216.423 43.736ZM213.94 29.2599L212.083 18.4384L208.707 19.0177L210.564 29.8392L213.94 29.2599ZM211.458 14.7838L209.491 3.32336L206.115 3.90267L208.081 15.3631L211.458 14.7838ZM220.071 102.799L218.284 95.2647L214.95 96.0558L216.738 103.59L220.071 102.799ZM216.678 88.5083L214.738 80.3417L211.405 81.1328L213.345 89.2994L216.678 88.5083ZM213.285 74.2176L211.196 65.422L207.863 66.2132L209.952 75.0087L213.285 74.2176ZM209.892 59.9268L207.654 50.5023L204.321 51.2935L206.558 60.718L209.892 59.9268ZM206.499 45.6361L204.112 35.5826L200.779 36.3738L203.165 46.4273L206.499 45.6361ZM203.106 31.3454L200.57 20.6629L197.237 21.4541L199.772 32.1365L203.106 31.3454ZM199.713 17.058L197.028 5.74653L193.694 6.5377L196.379 17.8491L199.713 17.058ZM232.7 100.843L231.876 93.1427L228.47 93.5069L229.294 101.207L232.7 100.843ZM231.134 86.2407L230.241 77.8953L226.834 78.2595L227.728 86.6048L231.134 86.2407ZM229.569 71.6388L228.605 62.6512L225.199 63.0154L226.162 72.0029L229.569 71.6388ZM228.003 57.0369L226.97 47.4071L223.564 47.7713L224.596 57.401L228.003 57.0369ZM226.437 42.435L225.335 32.1597L221.928 32.5238L223.031 42.7991L226.437 42.435ZM224.871 27.8331L223.699 16.9156L220.293 17.2797L221.465 28.1972L224.871 27.8331ZM223.305 13.2312L222.067 1.67151L218.661 2.03564L219.899 13.5953L223.305 13.2312ZM306.402 102.382L303.187 101.193L300.506 108.46L303.72 109.648L306.402 102.382ZM311.711 87.9985L308.497 86.8101L305.59 94.682L308.805 95.8705L311.711 87.9985ZM317.021 73.6151L313.807 72.4267L310.675 80.9077L313.889 82.0962L317.021 73.6151ZM322.331 59.2317L319.117 58.0432L315.763 67.1301L318.978 68.3185L322.331 59.2317ZM327.641 44.8482L324.426 43.6598L320.848 53.3525L324.062 54.5409L327.641 44.8482ZM332.95 30.4648L329.736 29.2764L325.933 39.5782L329.147 40.7666L332.95 30.4648ZM338.26 16.0814L335.046 14.893L331.021 25.8006L334.235 26.989L338.26 16.0814ZM299.907 100.098L296.623 99.1179L294.405 106.536L297.689 107.516L299.907 100.098ZM304.299 85.4065L301.016 84.4266L298.612 92.4674L301.896 93.4473L304.299 85.4065ZM308.692 70.7152L305.408 69.7354L302.82 78.3952L306.104 79.3751L308.692 70.7152ZM313.085 56.0239L309.801 55.0441L307.027 64.323L310.311 65.3028L313.085 56.0239ZM317.478 41.3327L314.194 40.3528L311.235 50.254L314.518 51.2339L317.478 41.3327ZM321.871 26.6414L318.587 25.6615L315.442 36.1818L318.726 37.1616L321.871 26.6414ZM326.264 11.9501L322.98 10.9702L319.649 22.1095L322.933 23.0894L326.264 11.9501ZM312.744 105.063L309.609 103.676L306.474 110.757L309.609 112.144L312.744 105.063ZM318.951 91.044L315.816 89.657L312.42 97.3303L315.555 98.7173L318.951 91.044ZM325.158 77.0247L322.023 75.6377L318.365 83.9036L321.5 85.2906L325.158 77.0247ZM331.365 63.0054L328.23 61.6184L324.307 70.4736L327.442 71.8606L331.365 63.0054ZM337.572 48.9862L334.437 47.5991L330.253 57.0468L333.387 58.4339L337.572 48.9862ZM343.779 34.9669L340.644 33.5798L336.198 43.6201L339.333 45.0071L343.779 34.9669ZM349.985 20.9476L346.851 19.5606L342.143 30.1934L345.278 31.5804L349.985 20.9476ZM372.668 150.332L370.476 147.697L364.521 152.649L366.713 155.284L372.668 150.332ZM384.459 140.53L382.268 137.895L375.816 143.261L378.007 145.896L384.459 140.53ZM396.251 130.728L394.059 128.093L387.108 133.87L389.299 136.505L396.251 130.728ZM408.042 120.926L405.851 118.291L398.402 124.482L400.594 127.117L408.042 120.926ZM419.834 111.124L417.642 108.489L409.697 115.094L411.889 117.729L419.834 111.124ZM431.625 101.323L429.434 98.6876L420.989 105.705L423.18 108.34L431.625 101.323ZM443.416 91.5207L441.225 88.8857L432.284 96.3174L434.475 98.9524L443.416 91.5207ZM368.192 145.105L365.839 142.612L360.208 147.929L362.561 150.422L368.192 145.105ZM379.342 134.578L376.988 132.086L370.887 137.846L373.241 140.338L379.342 134.578ZM390.491 124.051L388.137 121.559L381.566 127.766L383.92 130.258L390.491 124.051ZM401.64 113.524L399.286 111.032L392.242 117.682L394.596 120.175L401.64 113.524ZM412.789 102.998L410.435 100.505L402.921 107.599L405.275 110.092L412.789 102.998ZM423.938 92.4707L421.585 89.9781L413.6 97.5157L415.954 100.008L423.938 92.4707ZM435.088 81.9439L432.734 79.4512L424.279 87.4324L426.633 89.9251L435.088 81.9439ZM376.822 155.821L374.803 153.053L368.546 157.618L370.566 160.386L376.822 155.821ZM389.21 146.783L387.19 144.016L380.411 148.962L382.43 151.729L389.21 146.783ZM401.597 137.746L399.578 134.979L392.275 140.305L394.294 143.073L401.597 137.746ZM413.984 128.709L411.965 125.942L404.139 131.652L406.159 134.419L413.984 128.709ZM426.371 119.672L424.352 116.904L416.007 122.995L418.026 125.763L426.371 119.672ZM438.759 110.635L436.739 107.867L427.871 114.339L429.89 117.106L438.759 110.635ZM451.146 101.597L449.127 98.8299L439.735 105.682L441.755 108.45L451.146 101.597ZM406.096 224.99L405.516 221.614L397.883 222.925L398.462 226.301L406.096 224.99ZM421.207 222.398L420.628 219.022L412.355 220.442L412.935 223.818L421.207 222.398ZM436.319 219.806L435.74 216.43L426.832 217.959L427.411 221.336L436.319 219.806ZM451.431 217.214L450.851 213.838L441.304 215.476L441.884 218.853L451.431 217.214ZM466.542 214.622L465.963 211.246L455.78 212.994L456.36 216.37L466.542 214.622ZM481.654 212.03L481.075 208.654L470.253 210.511L470.833 213.887L481.654 212.03ZM496.766 209.438L496.186 206.062L484.726 208.028L485.305 211.405L496.766 209.438ZM404.828 218.23L404.037 214.897L396.502 216.685L397.293 220.018L404.828 218.23ZM419.747 214.688L418.956 211.355L410.793 213.291L411.584 216.625L419.747 214.688ZM434.667 211.146L433.876 207.813L425.08 209.902L425.872 213.235L434.667 211.146ZM449.587 207.604L448.796 204.271L439.371 206.509L440.162 209.842L449.587 207.604ZM464.507 204.062L463.715 200.729L453.662 203.115L454.453 206.449L464.507 204.062ZM479.426 200.52L478.635 197.187L467.953 199.722L468.744 203.056L479.426 200.52ZM494.346 196.978L493.555 193.645L482.243 196.329L483.035 199.663L494.346 196.978ZM406.95 231.826L406.586 228.42L398.886 229.244L399.25 232.65L406.95 231.826ZM422.197 230.191L421.833 226.784L413.488 227.678L413.852 231.085L422.197 230.191ZM437.445 228.555L437.08 225.149L428.093 226.112L428.457 229.519L437.445 228.555ZM452.692 226.92L452.328 223.514L442.698 224.547L443.062 227.953L452.692 226.92ZM467.939 225.285L467.575 221.878L457.3 222.981L457.664 226.387L467.939 225.285ZM483.187 223.649L482.823 220.243L471.905 221.415L472.269 224.821L483.187 223.649ZM498.434 222.014L498.07 218.608L486.51 219.846L486.874 223.252L498.434 222.014ZM398.909 303.134L391.643 300.453L390.454 303.667L397.72 306.348L398.909 303.134ZM413.292 308.444L405.42 305.537L404.232 308.752L412.104 311.658L413.292 308.444ZM427.676 313.754L419.195 310.622L418.006 313.836L426.487 316.968L427.676 313.754ZM442.059 319.063L432.972 315.71L431.784 318.924L440.871 322.278L442.059 319.063ZM456.443 324.373L446.75 320.795L445.561 324.009L455.254 327.587L456.443 324.373ZM470.826 329.683L460.524 325.879L459.336 329.094L469.638 332.897L470.826 329.683ZM485.209 334.993L474.302 330.964L473.113 334.178L484.021 338.207L485.209 334.993ZM400.988 296.57L393.566 294.352L392.583 297.636L400.005 299.853L400.988 296.57ZM415.679 300.962L407.638 298.559L406.655 301.843L414.696 304.246L415.679 300.962ZM430.37 305.355L421.711 302.767L420.727 306.05L429.387 308.639L430.37 305.355ZM445.062 309.748L435.783 306.974L434.8 310.258L444.078 313.032L445.062 309.748ZM459.753 314.141L449.852 311.181L448.868 314.465L458.77 317.425L459.753 314.141ZM474.444 318.534L463.924 315.389L462.941 318.673L473.461 321.818L474.444 318.534ZM489.135 322.927L477.996 319.596L477.013 322.88L488.152 326.21L489.135 322.927ZM396.429 309.556L389.349 306.421L387.962 309.556L395.042 312.691L396.429 309.556ZM410.449 315.763L402.775 312.367L401.388 315.501L409.062 318.898L410.449 315.763ZM424.468 321.97L416.202 318.309L414.815 321.443L423.081 325.105L424.468 321.97ZM438.487 328.177L429.632 324.254L428.245 327.389L437.1 331.308L438.487 328.173V328.177ZM452.507 334.384L443.059 330.199L441.672 333.334L451.12 337.518L452.507 334.384ZM466.526 340.59L456.486 336.145L455.099 339.28L465.139 343.725L466.526 340.59ZM480.545 346.797L469.912 342.09L468.525 345.225L479.158 349.932L480.545 346.797ZM352.409 370.42L347.456 364.465L344.821 366.656L349.774 372.611L352.409 370.42ZM362.211 382.211L356.844 375.759L354.209 377.951L359.575 384.403L362.211 382.211ZM372.012 394.003L366.236 387.051L363.601 389.242L369.377 396.194L372.012 394.003ZM381.814 405.794L375.624 398.346L372.989 400.537L379.179 407.986L381.814 405.794ZM391.616 417.586L385.012 409.641L382.377 411.832L388.981 419.777L391.616 417.586ZM401.418 429.377L394.4 420.932L391.765 423.124L398.783 431.568L401.418 429.377ZM411.22 441.168L403.788 432.227L401.153 434.419L408.585 443.36L411.22 441.168ZM357.493 365.782L352.177 360.151L349.684 362.505L355.001 368.136L357.493 365.782ZM368.02 376.931L362.26 370.83L359.767 373.184L365.527 379.285L368.02 376.931ZM378.547 388.081L372.34 381.51L369.847 383.863L376.054 390.434L378.547 388.081ZM389.074 399.23L382.423 392.189L379.931 394.542L386.581 401.583L389.074 399.23ZM399.601 410.379L392.507 402.865L390.014 405.218L397.108 412.733L399.601 410.379ZM410.128 421.528L402.59 413.544L400.097 415.897L407.635 423.882L410.128 421.528ZM420.654 432.677L412.673 424.223L410.181 426.576L418.162 435.031L420.654 432.677ZM347.052 374.747L342.487 368.49L339.72 370.509L344.285 376.766L347.052 374.747ZM356.09 387.134L351.144 380.354L348.377 382.374L353.322 389.153L356.09 387.134ZM365.127 399.521L359.801 392.218L357.033 394.238L362.359 401.54L365.127 399.521ZM374.164 411.908L368.454 404.083L365.686 406.102L371.397 413.928L374.164 411.908ZM383.201 424.296L377.11 415.947L374.343 417.966L380.434 426.315L383.201 424.296ZM392.239 436.683L385.767 427.815L382.999 429.834L389.471 438.702L392.239 436.683ZM401.276 449.07L394.423 439.679L391.656 441.698L398.508 451.09L401.276 449.07ZM278.492 405.46L277.181 397.826L273.805 398.406L275.116 406.039L278.492 405.46ZM281.084 420.572L279.664 412.299L276.287 412.878L277.707 421.151L281.084 420.572ZM283.676 435.683L282.147 426.775L278.77 427.354L280.299 436.263L283.676 435.683ZM286.268 450.795L284.629 441.248L281.253 441.827L282.892 451.374L286.268 450.795ZM288.86 465.907L287.112 455.721L283.736 456.3L285.483 466.486L288.86 465.907ZM291.452 481.018L289.595 470.197L286.218 470.776L288.075 481.598L291.452 481.018ZM294.044 496.13L292.078 484.67L288.701 485.249L290.667 496.709L294.044 496.13ZM285.209 403.98L283.421 396.446L280.088 397.237L281.875 404.771L285.209 403.98ZM288.751 418.9L286.811 410.733L283.477 411.524L285.417 419.691L288.751 418.9ZM292.293 433.819L290.204 425.024L286.871 425.815L288.959 434.611L292.293 433.819ZM295.835 448.739L293.597 439.315L290.264 440.106L292.501 449.53L295.835 448.739ZM299.377 463.659L296.99 453.605L293.657 454.397L296.043 464.45L299.377 463.659ZM302.919 478.579L300.383 467.896L297.05 468.687L299.586 479.37L302.919 478.579ZM306.461 493.498L303.776 482.187L300.443 482.978L303.128 494.289L306.461 493.498ZM271.686 406.526L270.862 398.826L267.455 399.19L268.28 406.89L271.686 406.526ZM273.321 421.773L272.428 413.428L269.021 413.792L269.915 422.137L273.321 421.773ZM274.957 437.021L273.993 428.033L270.587 428.397L271.55 437.385L274.957 437.021ZM276.592 452.268L275.559 442.638L272.153 443.002L273.186 452.632L276.592 452.268ZM278.227 467.515L277.125 457.24L273.719 457.604L274.821 467.88L278.227 467.515ZM279.863 482.763L278.691 471.845L275.284 472.209L276.456 483.127L279.863 482.763ZM281.498 498.01L280.26 486.451L276.853 486.815L278.092 498.374L281.498 498.01ZM199.653 391.586L196.439 390.398L193.757 397.664L196.972 398.852L199.653 391.586ZM194.565 405.364L191.351 404.175L188.444 412.047L191.659 413.236L194.565 405.364ZM189.477 419.141L186.263 417.953L183.131 426.431L186.346 427.619L189.477 419.141ZM184.392 432.919L181.178 431.731L177.825 440.818L181.039 442.006L184.392 432.919ZM179.308 446.697L176.093 445.508L172.515 455.201L175.729 456.389L179.308 446.697ZM174.22 460.474L171.005 459.286L167.202 469.588L170.416 470.776L174.22 460.474ZM169.132 474.252L165.917 473.064L161.892 483.971L165.106 485.16L169.132 474.252ZM205.747 393.516L202.464 392.536L200.246 399.958L203.529 400.938L205.747 393.516ZM201.54 407.588L198.256 406.609L195.853 414.649L199.137 415.629L201.54 407.588ZM197.333 421.661L194.049 420.681L191.46 429.341L194.744 430.32L197.333 421.661ZM193.125 435.733L189.841 434.753L187.067 444.032L190.351 445.012L193.125 435.733ZM188.918 449.805L185.634 448.825L182.674 458.726L185.958 459.706L188.918 449.805ZM184.71 463.877L181.426 462.897L178.282 473.418L181.565 474.398L184.71 463.877ZM180.503 477.95L177.219 476.97L173.889 488.109L177.173 489.089L180.503 477.95ZM193.678 389.302L190.543 387.915L187.408 394.996L190.543 396.383L193.678 389.302ZM187.733 402.732L184.598 401.345L181.201 409.018L184.336 410.405L187.733 402.732ZM181.787 416.162L178.652 414.775L174.994 423.041L178.129 424.428L181.787 416.162ZM175.842 429.592L172.707 428.205L168.784 437.06L171.919 438.447L175.842 429.592ZM169.896 443.022L166.762 441.635L162.577 451.083L165.712 452.47L169.896 443.022ZM163.951 456.452L160.816 455.065L156.37 465.105L159.505 466.493L163.951 456.452ZM158.006 469.882L154.871 468.495L150.164 479.128L153.298 480.515L158.006 469.882ZM135.631 347.426L133.44 344.791L127.484 349.744L129.676 352.379L135.631 347.426ZM124.336 356.814L122.145 354.179L115.693 359.545L117.884 362.18L124.336 356.814ZM113.041 366.203L110.85 363.568L103.898 369.344L106.09 371.979L113.041 366.203ZM101.747 375.591L99.5551 372.956L92.1068 379.146L94.2983 381.781L101.747 375.591ZM90.4517 384.979L88.2602 382.344L80.3154 388.948L82.5069 391.583L90.4517 384.979ZM79.1568 394.367L76.9653 391.732L68.5207 398.75L70.7121 401.385L79.1568 394.367ZM67.8619 403.755L65.6705 401.12L56.7292 408.552L58.9207 411.187L67.8619 403.755ZM139.938 352.144L137.584 349.651L131.953 354.967L134.307 357.46L139.938 352.144ZM129.259 362.227L126.905 359.734L120.804 365.494L123.158 367.987L129.259 362.227ZM118.58 372.31L116.226 369.817L109.655 376.021L112.009 378.514L118.58 372.307V372.31ZM107.9 382.393L105.547 379.901L98.5024 386.551L100.856 389.044L107.9 382.393ZM97.2213 392.477L94.8676 389.984L87.3532 397.078L89.7068 399.571L97.2213 392.477ZM86.5421 402.56L84.1885 400.067L76.204 407.605L78.5576 410.098L86.5421 402.56ZM75.863 412.643L73.5094 410.151L65.0547 418.132L67.4084 420.625L75.863 412.643ZM131.596 342.458L129.577 339.69L123.32 344.255L125.339 347.022L131.596 342.458ZM119.732 351.114L117.712 348.347L110.933 353.292L112.952 356.06L119.732 351.114ZM107.867 359.771L105.848 357.003L98.5454 362.329L100.565 365.097L107.867 359.771ZM96.0031 368.427L93.9838 365.66L86.1581 371.37L88.1775 374.137L96.0031 368.427ZM84.1388 377.084L82.1195 374.316L73.7742 380.407L75.7935 383.175L84.1388 377.084ZM72.2746 385.74L70.2553 382.973L61.3869 389.444L63.4062 392.212L72.2746 385.74ZM60.4103 394.397L58.391 391.629L48.9996 398.482L51.0189 401.249L60.4103 394.397ZM102.26 277.158L101.68 273.781L94.0467 275.092L94.626 278.469L102.26 277.158ZM87.7835 279.641L87.2042 276.264L78.9317 277.684L79.511 281.061L87.7835 279.641ZM73.3074 282.123L72.7281 278.747L63.82 280.276L64.3993 283.653L73.3074 282.123ZM58.8313 284.606L58.252 281.229L48.705 282.868L49.2843 286.245L58.8313 284.606ZM44.3552 287.089L43.7759 283.712L33.5933 285.46L34.1726 288.837L44.3552 287.089ZM29.8791 289.572L29.2998 286.195L18.4783 288.052L19.0576 291.429L29.8791 289.572ZM15.4063 292.054L14.827 288.678L3.36661 290.644L3.94592 294.021L15.4063 292.054ZM103.633 283.398L102.842 280.064L95.3079 281.852L96.0991 285.185L103.633 283.398ZM89.346 286.791L88.5548 283.457L80.3915 285.394L81.1827 288.727L89.346 286.791ZM75.0586 290.184L74.2674 286.85L65.4719 288.939L66.263 292.273L75.0586 290.184ZM60.7679 293.577L59.9767 290.244L50.5522 292.481L51.3433 295.815L60.7679 293.577ZM46.4804 296.97L45.6893 293.637L35.6358 296.023L36.427 299.357L46.4804 296.97ZM32.193 300.363L31.4019 297.03L20.7194 299.565L21.5106 302.899L32.193 300.363ZM17.9056 303.756L17.1144 300.423L5.80302 303.108L6.59419 306.441L17.9056 303.756ZM101.267 270.842L100.902 267.435L93.2025 268.26L93.5667 271.666L101.267 270.842ZM86.6646 272.407L86.3005 269.001L77.9551 269.895L78.3193 273.301L86.6646 272.407ZM72.0627 273.973L71.6986 270.567L62.711 271.53L63.0752 274.937L72.0627 273.973ZM57.4608 275.539L57.0967 272.133L47.4669 273.166L47.8311 276.572L57.4608 275.539ZM42.8589 277.105L42.4948 273.698L32.2195 274.801L32.5837 278.207L42.8589 277.105ZM28.257 278.671L27.8929 275.264L16.9754 276.436L17.3395 279.842L28.257 278.671ZM13.6551 280.236L13.291 276.83L1.73131 278.068L2.09544 281.474L13.6551 280.236ZM109.705 196.415L102.438 193.734L101.25 196.948L108.516 199.63L109.705 196.415ZM95.927 191.327L88.055 188.421L86.8666 191.635L94.7385 194.542L95.927 191.327ZM82.1493 186.243L73.6682 183.111L72.4798 186.325L80.9609 189.457L82.1493 186.243ZM68.3717 181.155L59.2848 177.801L58.0964 181.016L67.1833 184.369L68.3717 181.155ZM54.5941 176.067L44.9014 172.488L43.713 175.703L53.4057 179.281L54.5941 176.067ZM40.8165 170.982L30.5147 167.178L29.3263 170.393L39.628 174.196L40.8165 170.982ZM27.0388 165.897L16.1313 161.872L14.9429 165.086L25.8504 169.112L27.0388 165.897ZM107.569 202.443L100.148 200.226L99.1645 203.509L106.583 205.727L107.566 202.443H107.569ZM93.4972 198.236L85.4564 195.833L84.4732 199.117L92.514 201.52L93.4972 198.236ZM79.4249 194.029L70.7651 191.44L69.7819 194.724L78.4418 197.312L79.4249 194.029ZM65.3527 189.821L56.0738 187.047L55.0906 190.331L64.3695 193.105L65.3527 189.821ZM51.2804 185.614L41.3792 182.654L40.396 185.938L50.2973 188.898L51.2804 185.614ZM37.2082 181.406L26.6879 178.261L25.7048 181.545L36.225 184.69L37.2082 181.406ZM23.1359 177.199L11.9967 173.869L11.0135 177.152L22.1528 180.483L23.1359 177.199ZM112.191 190.523L105.11 187.388L103.723 190.523L110.804 193.658L112.191 190.523ZM98.7606 184.578L91.0872 181.181L89.7002 184.316L97.3736 187.712L98.7606 184.578ZM85.3306 178.632L77.0647 174.974L75.6776 178.109L83.9435 181.767L85.3306 178.632ZM71.9005 172.687L63.0454 168.764L61.6583 171.899L70.5135 175.818L71.9005 172.684V172.687ZM58.4705 166.741L49.0228 162.557L47.6358 165.692L57.0835 169.876L58.4705 166.741ZM45.0405 160.796L35.0002 156.35L33.6132 159.485L43.6534 163.931L45.0405 160.796ZM31.6104 154.851L20.9776 150.143L19.5906 153.278L30.2234 157.986L31.6104 154.851ZM155.314 133.42L150.362 127.464L147.727 129.656L152.679 135.611L155.314 133.42ZM145.926 122.125L140.56 115.673L137.925 117.864L143.291 124.316L145.926 122.125ZM136.538 110.83L130.758 103.878L128.123 106.07L133.9 113.021L136.535 110.83H136.538ZM127.15 99.535L120.96 92.0867L118.325 94.2782L124.515 101.726L127.15 99.535ZM117.762 88.2401L111.158 80.2953L108.523 82.4868L115.127 90.4316L117.762 88.2401ZM108.374 76.9453L101.356 68.5006L98.7209 70.692L105.739 79.1367L108.374 76.9453ZM98.9857 65.6504L91.554 56.7092L88.919 58.9006L96.3507 67.8418L98.9857 65.6504ZM150.455 137.564L145.138 131.933L142.646 134.287L147.962 139.918L150.455 137.564ZM140.372 126.885L134.612 120.784L132.119 123.138L137.879 129.239L140.372 126.885ZM130.288 116.206L124.085 109.635L121.592 111.988L127.796 118.56L130.288 116.206ZM120.205 105.527L113.555 98.4856L111.062 100.839L117.712 107.88L120.205 105.527ZM110.122 94.8476L103.028 87.3331L100.535 89.6868L107.629 97.2012L110.122 94.8476ZM100.038 84.1684L92.5008 76.1839L90.0081 78.5375L97.5457 86.5221L100.038 84.1684ZM89.9551 73.4893L81.9739 65.0347L79.4812 67.3883L87.4624 75.8429L89.9551 73.4893ZM160.416 129.556L155.851 123.3L153.083 125.319L157.648 131.576L160.416 129.556ZM151.759 117.692L146.813 110.913L144.046 112.932L148.992 119.712L151.759 117.692ZM143.103 105.828L137.773 98.5254L135.005 100.545L140.335 107.847L143.103 105.828ZM134.446 93.9637L128.736 86.1381L125.968 88.1574L131.679 95.983L134.446 93.9637ZM125.79 82.0995L119.698 73.7508L116.931 75.7701L123.022 84.1188L125.79 82.0995ZM117.133 70.2352L110.661 61.3668L107.894 63.3861L114.366 72.2545L117.133 70.2352ZM108.476 58.371L101.624 48.9795L98.8566 50.9988L105.709 60.3903L108.476 58.371ZM226.324 101.66L225.014 94.0266L221.637 94.6059L222.948 102.24L226.324 101.66ZM223.842 87.1841L222.422 78.9116L219.045 79.4909L220.465 87.7634L223.842 87.1841ZM221.359 72.708L219.83 63.7999L216.453 64.3792L217.982 73.2873L221.359 72.708ZM218.876 58.2319L217.238 48.6849L213.861 49.2642L215.5 58.8112L218.876 58.2319ZM216.393 43.7558L214.646 33.5699L211.269 34.1492L213.017 44.3351L216.393 43.7558ZM213.911 29.2797L212.054 18.4582L208.677 19.0375L210.534 29.859L213.911 29.2797ZM211.428 14.8036L209.462 3.34323L206.085 3.92253L208.051 15.3829L211.428 14.8036ZM220.041 102.819L218.254 95.2845L214.92 96.0757L216.708 103.61L220.041 102.819ZM216.648 88.5281L214.708 80.3615L211.375 81.1527L213.315 89.3193L216.648 88.5281ZM213.255 74.2374L211.166 65.4418L207.833 66.233L209.922 75.0286L213.255 74.2374ZM209.862 59.9467L207.624 50.5222L204.291 51.3133L206.529 60.7379L209.862 59.9467ZM206.469 45.656L204.082 35.6025L200.749 36.3936L203.136 46.4471L206.469 45.656ZM203.076 31.3652L200.54 20.6828L197.207 21.4739L199.742 32.1564L203.076 31.3652ZM199.683 17.0778L196.998 5.76639L193.665 6.55756L196.349 17.869L199.683 17.0778ZM232.67 100.862L231.846 93.1626L228.44 93.5267L229.264 101.227L232.67 100.862ZM231.105 86.2606L230.211 77.9152L226.804 78.2793L227.698 86.6247L231.105 86.2606ZM229.539 71.6587L228.575 62.6711L225.169 63.0352L226.132 72.0228L229.539 71.6587ZM227.973 57.0568L226.94 47.427L223.534 47.7911L224.567 57.4209L227.973 57.0568ZM226.407 42.4549L225.305 32.1796L221.899 32.5437L223.001 42.819L226.407 42.4549ZM224.841 27.853L223.67 16.9355L220.263 17.2996L221.435 28.2171L224.841 27.853ZM223.276 13.2511L222.038 1.69137L218.631 2.0555L219.869 13.6152L223.276 13.2511ZM306.372 102.402L303.157 101.213L300.476 108.48L303.69 109.668L306.372 102.402ZM311.681 88.0183L308.467 86.8299L305.561 94.7019L308.775 95.8903L311.681 88.0183ZM316.991 73.6349L313.777 72.4465L310.645 80.9276L313.86 82.116L316.991 73.6349ZM322.301 59.2515L319.087 58.0631L315.733 67.15L318.948 68.3384L322.301 59.2515ZM327.611 44.8681L324.397 43.6797L320.818 53.3724L324.032 54.5608L327.611 44.8681ZM332.921 30.4847L329.706 29.2963L325.903 39.598L329.117 40.7864L332.921 30.4847ZM338.23 16.1013L335.016 14.9129L330.991 25.8204L334.205 27.0088L338.23 16.1013ZM299.877 100.118L296.593 99.1378L294.375 106.556L297.659 107.536L299.877 100.118ZM304.27 85.4263L300.986 84.4465L298.582 92.4873L301.866 93.4672L304.27 85.4263ZM308.662 70.7351L305.379 69.7552L302.79 78.4151L306.074 79.3949L308.662 70.7351ZM313.055 56.0438L309.771 55.0639L306.997 64.3428L310.281 65.3227L313.055 56.0438ZM317.448 41.3525L314.164 40.3727L311.205 50.2739L314.489 51.2537L317.448 41.3525ZM321.841 26.6612L318.557 25.6814L315.412 36.2016L318.696 37.1815L321.841 26.6612ZM326.234 11.97L322.95 10.9901L319.62 22.1294L322.904 23.1092L326.234 11.97ZM312.714 105.083L309.579 103.696L306.445 110.777L309.579 112.164L312.714 105.083ZM318.921 91.0639L315.786 89.6768L312.39 97.3502L315.525 98.7372L318.921 91.0639ZM325.128 77.0446L321.993 75.6575L318.335 83.9235L321.47 85.3105L325.128 77.0446ZM331.335 63.0253L328.2 61.6383L324.277 70.4934L327.412 71.8805L331.335 63.0253ZM337.542 49.006L334.407 47.619L330.223 57.0667L333.358 58.4537L337.542 49.006ZM343.749 34.9867L340.614 33.5997L336.168 43.64L339.303 45.027L343.749 34.9867ZM349.956 20.9675L346.821 19.5804L342.113 30.2132L345.248 31.6003L349.956 20.9675Z" fill="#ECECEB"/>
</g>
<defs>
<clipPath id="clip0_9213_64989">
<rect width="500" height="500" fill="white"/>
</clipPath>
</defs>
</svg>
