<svg width="552" height="554" viewBox="0 0 552 554" fill="none" xmlns="http://www.w3.org/2000/svg">
<g clip-path="url(#clip0_9213_64815)">
<path d="M276 528.321L300.665 552.967C301.905 552.86 303.138 552.738 304.378 552.616L276 524.282L275.158 525.108L247.63 552.616C248.862 552.738 250.102 552.86 251.343 552.967L276.008 528.321H276Z" fill="#ECECEB"/>
<path d="M447.185 378.385L445.157 380.412L502.134 437.347C502.701 436.559 503.259 435.763 503.811 434.96L447.185 378.377V378.385Z" fill="#ECECEB"/>
<path d="M322.008 550.252L318.877 546.427L284.291 511.867L282.262 513.894L319.106 550.711C320.079 550.558 321.043 550.405 322.015 550.244L322.008 550.252Z" fill="#ECECEB"/>
<path d="M276 5.01036L270.986 0C269.417 0.0305976 267.939 0.0611952 266.5 0.114741L275.816 9.57705L285.225 0.107092C283.824 0.0611952 282.423 0.0305976 281.014 0L276 5.01036Z" fill="#ECECEB"/>
<path d="M348.12 544.583C349.184 544.3 350.248 544.01 351.304 543.711L290.484 482.937L288.455 484.964L348.12 544.583Z" fill="#ECECEB"/>
<path d="M288.463 69.0358L290.491 71.0629L351.312 10.2961C350.248 9.99778 349.191 9.7071 348.12 9.42407L288.455 69.0435L288.463 69.0358Z" fill="#ECECEB"/>
<path d="M277.439 51.075H274.568V81.5043H277.439V51.075Z" fill="#ECECEB"/>
<path d="M276 25.6791L251.335 1.03271C250.095 1.13981 248.862 1.2622 247.622 1.38459L276 29.718L276.842 28.8918L304.378 1.38459C303.145 1.2622 301.905 1.13981 300.665 1.03271L276 25.6791Z" fill="#ECECEB"/>
<path d="M282.254 40.098L284.283 42.1251L318.884 7.54986L322 3.74811C321.035 3.58747 320.063 3.42683 319.091 3.28149L282.247 40.098H282.254Z" fill="#ECECEB"/>
<path d="M492.795 332.978V335.847H547.001C547.208 334.891 547.407 333.934 547.606 332.978H492.795Z" fill="#ECECEB"/>
<path d="M247.951 457.556L249.988 459.584L276 433.591L302.02 459.584L304.049 457.556L276 429.529L247.951 457.556Z" fill="#ECECEB"/>
<path d="M509.338 319.202V322.07H549.612C549.765 321.114 549.918 320.158 550.063 319.202H509.338Z" fill="#ECECEB"/>
<path d="M458.905 369.083L456.877 371.111L510.578 424.771C511.106 423.937 511.627 423.111 512.139 422.27L458.913 369.083H458.905Z" fill="#ECECEB"/>
<path d="M469.936 359.782L467.908 361.809L518.164 412.027C518.654 411.155 519.136 410.291 519.611 409.411L469.944 359.782H469.936Z" fill="#ECECEB"/>
<path d="M543.472 303.528V306.397H551.717C551.816 305.44 551.916 304.484 552.008 303.528H543.472Z" fill="#ECECEB"/>
<path d="M251.16 510.89L242.774 519.267L244.803 521.296L253.189 512.919L251.16 510.89Z" fill="#ECECEB"/>
<path d="M263.545 484.964L261.516 482.937L200.696 543.711C201.752 544.01 202.817 544.3 203.888 544.583L263.553 484.964H263.545Z" fill="#ECECEB"/>
<path d="M269.746 513.902L267.717 511.875L233.116 546.45L230 550.252C230.965 550.412 231.937 550.573 232.909 550.718L269.753 513.902H269.746Z" fill="#ECECEB"/>
<path d="M277.439 471.7H274.568V502.129H277.439V471.7Z" fill="#ECECEB"/>
<path d="M270.986 554L276 548.99L281.014 554C282.423 553.977 283.824 553.939 285.225 553.893L275.816 544.423L266.5 553.885C267.947 553.931 269.447 553.969 270.986 554Z" fill="#ECECEB"/>
<path d="M300.839 510.844L298.81 512.873L307.194 521.251L309.224 519.223L300.839 510.844Z" fill="#ECECEB"/>
<path d="M325.137 375.63L323.107 377.659L355.282 409.809L357.312 407.781L325.137 375.63Z" fill="#ECECEB"/>
<path d="M368.107 359.162H310.762V362.031H368.107V359.162Z" fill="#ECECEB"/>
<path d="M314.277 385.797L312.248 387.826L354.762 430.308L356.791 428.279L314.277 385.797Z" fill="#ECECEB"/>
<path d="M370.863 110.671H367.992V179.34H370.863V110.671Z" fill="#ECECEB"/>
<path d="M346.862 375.281L344.832 377.31L356.318 388.788L358.348 386.759L346.862 375.281Z" fill="#ECECEB"/>
<path d="M372.585 345.378H301.798V348.246H372.585V345.378Z" fill="#ECECEB"/>
<path d="M287.045 420.239L285.015 422.268L301.676 438.916L303.706 436.888L287.045 420.239Z" fill="#ECECEB"/>
<path d="M264.962 420.241L248.301 436.89L250.331 438.918L266.992 422.27L264.962 420.241Z" fill="#ECECEB"/>
<path d="M370.863 374.66H367.992V443.329H370.863V374.66Z" fill="#ECECEB"/>
<path d="M230 3.74827L233.131 7.57297L267.717 42.1329L269.746 40.1059L232.901 3.28931C231.929 3.44229 230.965 3.59528 229.992 3.75592L230 3.74827Z" fill="#ECECEB"/>
<path d="M337.073 447H313.863V449.869H337.073V447Z" fill="#ECECEB"/>
<path d="M377.914 19.2688L309.836 87.2949L311.865 89.322L380.807 20.4315C379.843 20.0414 378.878 19.6513 377.914 19.2688Z" fill="#ECECEB"/>
<path d="M368.107 191.969H310.762V194.838H368.107V191.969Z" fill="#ECECEB"/>
<path d="M301.674 115.085L285.012 131.734L287.042 133.762L303.704 117.113L301.674 115.085Z" fill="#ECECEB"/>
<path d="M203.88 9.4165C202.816 9.69953 201.752 9.99021 200.688 10.2885L261.509 71.063L263.537 69.0359L203.88 9.4165Z" fill="#ECECEB"/>
<path d="M380.815 533.568L311.872 464.678L309.844 466.705L377.921 534.731C378.893 534.349 379.858 533.959 380.815 533.568Z" fill="#ECECEB"/>
<path d="M337.073 104.131H313.863V107H337.073V104.131Z" fill="#ECECEB"/>
<path d="M356.317 165.214L344.83 176.692L346.86 178.72L358.346 167.242L356.317 165.214Z" fill="#ECECEB"/>
<path d="M355.296 144.222L323.115 176.367L325.145 178.396L357.325 146.251L355.296 144.222Z" fill="#ECECEB"/>
<path d="M354.764 123.696L312.25 166.178L314.28 168.206L356.794 125.725L354.764 123.696Z" fill="#ECECEB"/>
<path d="M244.821 32.7524L242.791 34.7808L251.176 43.1592L253.205 41.1309L244.821 32.7524Z" fill="#ECECEB"/>
<path d="M404.99 44.5349H402.119V50.1649H404.99V44.5349Z" fill="#ECECEB"/>
<path d="M400.083 29.1749L398.613 30.6436L416.013 48.0307L401.721 62.3121L403.75 64.3392L420.078 48.023L402.349 30.307C401.599 29.9245 400.841 29.5421 400.083 29.1672V29.1749Z" fill="#ECECEB"/>
<path d="M429.047 70.8056L423.763 76.0847L425.793 78.1131L431.076 72.8339L429.047 70.8056Z" fill="#ECECEB"/>
<path d="M406.881 76.4404L408.917 78.4751L427.863 59.5352L448.885 80.5405L450.913 78.5057L427.863 55.4734L406.881 76.4404Z" fill="#ECECEB"/>
<path d="M383.157 532.597C384.114 532.192 385.079 531.786 386.028 531.373V383.694L461.967 459.576H400.856V417.718H397.985V462.444H468.911L383.165 376.763V532.597H383.157Z" fill="#ECECEB"/>
<path d="M383.157 21.4031V177.237L468.903 91.5557H397.978V136.282H400.848V94.4242H461.96L386.02 170.306V22.627C385.063 22.2139 384.107 21.8085 383.15 21.4031H383.157Z" fill="#ECECEB"/>
<path d="M552 250.48C551.908 249.523 551.816 248.567 551.709 247.611H543.464V250.48H552Z" fill="#ECECEB"/>
<path d="M531.239 277.413L530.826 277L531.239 276.587L492.864 238.24L490.827 240.268L527.588 277L490.827 313.732L492.864 315.759L531.239 277.413Z" fill="#ECECEB"/>
<path d="M515.477 244.23L548.272 277L515.477 309.77L517.513 311.797L551.755 277.581L551.166 277L551.755 276.419L517.513 242.203L515.477 244.23Z" fill="#ECECEB"/>
<path d="M416.303 103.202L409.986 109.515L412.016 111.543L418.333 105.231L416.303 103.202Z" fill="#ECECEB"/>
<path d="M432.676 103.723L410.331 126.051L412.361 128.079L434.706 105.751L432.676 103.723Z" fill="#ECECEB"/>
<path d="M508.304 360.883V363.752H539.392C539.706 362.796 540.02 361.839 540.318 360.883H508.297H508.304Z" fill="#ECECEB"/>
<path d="M525.092 372.181L523.063 374.209L532.127 383.265C532.525 382.309 532.916 381.345 533.306 380.382L525.092 372.174V372.181Z" fill="#ECECEB"/>
<path d="M404.99 503.843H402.119V509.473H404.99V503.843Z" fill="#ECECEB"/>
<path d="M475.594 347.443L525.72 397.532C526.164 396.621 526.6 395.703 527.036 394.785L482.537 350.32H543.457C543.717 349.363 543.977 348.407 544.23 347.451H475.601L475.594 347.443Z" fill="#ECECEB"/>
<path d="M412.015 442.46L409.985 444.489L416.302 450.801L418.332 448.772L412.015 442.46Z" fill="#ECECEB"/>
<path d="M450.913 475.494L448.885 473.467L427.863 494.465L408.917 475.533L406.881 477.56L427.863 498.527L450.913 475.494Z" fill="#ECECEB"/>
<path d="M412.361 425.878L410.332 427.907L432.681 450.231L434.71 448.202L412.361 425.878Z" fill="#ECECEB"/>
<path d="M425.804 475.904L423.774 477.932L429.057 483.211L431.087 481.183L425.804 475.904Z" fill="#ECECEB"/>
<path d="M402.341 523.678L420.071 505.962L403.742 489.646L401.713 491.673L416.006 505.954L398.605 523.341L400.075 524.81C400.833 524.427 401.583 524.053 402.334 523.662L402.341 523.678Z" fill="#ECECEB"/>
<path d="M457.671 120.085L384.13 193.571L386.16 195.599L459.701 122.114L457.671 120.085Z" fill="#ECECEB"/>
<path d="M445.149 173.588L447.178 175.615L503.803 119.032C503.244 118.237 502.685 117.441 502.126 116.646L445.149 173.58V173.588Z" fill="#ECECEB"/>
<path d="M456.869 182.89L458.898 184.917L512.124 131.73C511.611 130.897 511.091 130.063 510.562 129.229L456.861 182.89H456.869Z" fill="#ECECEB"/>
<path d="M523.063 179.791L525.092 181.818L533.306 173.611C532.916 172.647 532.525 171.683 532.127 170.727L523.063 179.784V179.791Z" fill="#ECECEB"/>
<path d="M508.304 190.248V193.117H540.326C540.02 192.161 539.713 191.197 539.4 190.248H508.312H508.304Z" fill="#ECECEB"/>
<path d="M467.9 192.191L469.929 194.218L519.596 144.589C519.121 143.717 518.639 142.845 518.149 141.973L467.892 192.191H467.9Z" fill="#ECECEB"/>
<path d="M388.263 209.418L390.292 211.445L494.885 106.931C494.295 106.174 493.698 105.416 493.093 104.659L388.263 209.41V209.418Z" fill="#ECECEB"/>
<path d="M390.3 342.555L388.271 344.582L493.101 449.333C493.698 448.576 494.295 447.819 494.892 447.061L390.3 342.548V342.555Z" fill="#ECECEB"/>
<path d="M386.164 358.409L384.135 360.438L457.676 433.923L459.706 431.895L386.164 358.409Z" fill="#ECECEB"/>
<path d="M470.664 106.755L472.692 108.782L485.714 95.7629C485.086 95.0362 484.451 94.3172 483.815 93.5981L470.656 106.747L470.664 106.755Z" fill="#ECECEB"/>
<path d="M472.692 445.218L470.664 447.245L483.823 460.394C484.458 459.675 485.094 458.956 485.721 458.23L472.7 445.218H472.692Z" fill="#ECECEB"/>
<path d="M408.879 208.798H444.261L436.062 200.605L434.034 202.632L437.325 205.922H415.822L436.139 185.62L483.011 232.457L485.04 230.43L436.139 181.558L408.879 208.798Z" fill="#ECECEB"/>
<path d="M488.768 275.684H465.558V278.553H488.768V275.684Z" fill="#ECECEB"/>
<path d="M463.725 251.165L461.695 253.193L477.323 268.808L479.353 266.78L463.725 251.165Z" fill="#ECECEB"/>
<path d="M475.594 206.557H544.222C543.97 205.601 543.717 204.637 543.449 203.688H482.529L527.029 159.222C526.6 158.304 526.156 157.386 525.72 156.476L475.594 206.564V206.557Z" fill="#ECECEB"/>
<path d="M477.325 285.196L461.698 300.812L463.728 302.84L479.355 287.224L477.325 285.196Z" fill="#ECECEB"/>
<path d="M453.348 219.4L451.319 221.435L506.934 277L451.319 332.573L453.348 334.6L510.861 277.13L510.731 277L510.861 276.87L453.348 219.4Z" fill="#ECECEB"/>
<path d="M492.795 218.153V221.022H547.606C547.407 220.065 547.208 219.109 547.001 218.153H492.795Z" fill="#ECECEB"/>
<path d="M453.256 242.96H450.385V311.048H453.256V242.96Z" fill="#ECECEB"/>
<path d="M509.338 231.93V234.798H550.063C549.918 233.842 549.765 232.886 549.612 231.93H509.338Z" fill="#ECECEB"/>
<path d="M436.139 372.442L485.04 323.577L483.011 321.542L436.139 368.38L415.822 348.078H437.325L434.034 351.367L436.062 353.395L444.261 345.21H408.879L436.139 372.442Z" fill="#ECECEB"/>
<path d="M307.169 32.7302L298.786 41.1101L300.816 43.1381L309.199 34.7582L307.169 32.7302Z" fill="#ECECEB"/>
<path d="M101.615 242.96H98.7441V311.048H101.615V242.96Z" fill="#ECECEB"/>
<path d="M115.869 181.558L66.96 230.43L68.9886 232.457L115.869 185.62L136.186 205.922H114.682L117.974 202.632L115.938 200.605L107.747 208.798H143.121L115.869 181.558Z" fill="#ECECEB"/>
<path d="M143.121 345.21H107.747L115.938 353.395L117.974 351.367L114.682 348.078H136.186L115.869 368.38L68.9886 321.542L66.96 323.577L115.869 372.442L143.121 345.21Z" fill="#ECECEB"/>
<path d="M82.0712 194.218L84.0998 192.191L33.8436 141.973C33.3536 142.845 32.8713 143.709 32.3967 144.589L82.0636 194.218H82.0712Z" fill="#ECECEB"/>
<path d="M74.6699 285.223L72.6396 287.251L88.2643 302.869L90.2946 300.841L74.6699 285.223Z" fill="#ECECEB"/>
<path d="M36.5229 309.77L3.72814 277L36.5229 244.23L34.4943 242.203L0.252686 276.419L0.83448 277L0.252686 277.581L34.4943 311.797L36.5229 309.77Z" fill="#ECECEB"/>
<path d="M93.1023 184.917L95.1309 182.89L41.4298 129.229C40.9016 130.063 40.3811 130.889 39.8682 131.73L93.0947 184.917H93.1023Z" fill="#ECECEB"/>
<path d="M61.1725 313.732L24.4123 277L61.1725 240.268L59.1438 238.24L20.7607 276.587L21.1741 277L20.7607 277.413L59.1438 315.759L61.1725 313.732Z" fill="#ECECEB"/>
<path d="M104.822 175.615L106.851 173.588L49.8735 116.653C49.307 117.449 48.7482 118.237 48.197 119.04L104.822 175.623V175.615Z" fill="#ECECEB"/>
<path d="M88.2742 251.158L72.6467 266.774L74.6766 268.802L90.304 253.186L88.2742 251.158Z" fill="#ECECEB"/>
<path d="M84.3756 275.684H61.165V278.553H84.3756V275.684Z" fill="#ECECEB"/>
<path d="M79.3077 108.79L81.3363 106.763L68.177 93.6133C67.5417 94.3323 66.9063 95.0514 66.2786 95.7781L79.3077 108.797V108.79Z" fill="#ECECEB"/>
<path d="M43.6959 193.124V190.256H12.6082C12.2943 191.212 11.9804 192.168 11.6819 193.124H43.7035H43.6959Z" fill="#ECECEB"/>
<path d="M26.9079 181.819L28.9365 179.792L19.8727 170.735C19.4747 171.691 19.0843 172.655 18.6938 173.618L26.9079 181.826V181.819Z" fill="#ECECEB"/>
<path d="M139.988 442.46L133.671 448.772L135.701 450.801L142.018 444.489L139.988 442.46Z" fill="#ECECEB"/>
<path d="M76.4141 206.557L26.288 156.469C25.844 157.379 25.4076 158.297 24.9713 159.215L69.4709 203.681H8.55857C8.2983 204.637 8.03802 205.593 7.7854 206.549H76.4141V206.557Z" fill="#ECECEB"/>
<path d="M161.708 211.445L163.737 209.418L58.9065 104.659C58.3094 105.416 57.7123 106.174 57.1152 106.931L161.708 211.445Z" fill="#ECECEB"/>
<path d="M163.737 344.59L161.708 342.563L57.1152 447.077C57.7047 447.834 58.3018 448.591 58.9065 449.349L163.737 344.598V344.59Z" fill="#ECECEB"/>
<path d="M98.6523 334.6L100.689 332.573L45.0737 277L100.689 221.435L98.6523 219.4L41.1389 276.87L41.2691 277L41.1389 277.13L98.6523 334.6Z" fill="#ECECEB"/>
<path d="M165.848 358.371L92.3193 431.87L94.3496 433.898L167.878 360.399L165.848 358.371Z" fill="#ECECEB"/>
<path d="M94.3338 120.082L92.304 122.111L165.845 195.596L167.875 193.568L94.3338 120.082Z" fill="#ECECEB"/>
<path d="M139.628 425.952L117.274 448.282L119.303 450.31L141.658 427.981L139.628 425.952Z" fill="#ECECEB"/>
<path d="M149.659 30.3223L131.929 48.0383L148.258 64.3545L150.287 62.3274L135.994 48.046L153.395 30.6589L151.925 29.1902C151.167 29.565 150.417 29.9475 149.667 30.3299L149.659 30.3223Z" fill="#ECECEB"/>
<path d="M149.881 44.5349H147.01V50.1649H149.881V44.5349Z" fill="#ECECEB"/>
<path d="M106.851 380.412L104.822 378.385L48.197 434.968C48.7558 435.763 49.3147 436.559 49.8735 437.354L106.851 380.42V380.412Z" fill="#ECECEB"/>
<path d="M122.945 70.8208L120.915 72.8491L126.198 78.1282L128.228 76.0999L122.945 70.8208Z" fill="#ECECEB"/>
<path d="M81.3439 447.245L79.3153 445.218L66.2861 458.237C66.9139 458.964 67.5492 459.683 68.1846 460.402L81.3439 447.253V447.245Z" fill="#ECECEB"/>
<path d="M95.1311 371.111L93.1025 369.083L39.876 422.27C40.3889 423.104 40.9094 423.937 41.4376 424.771L95.1388 371.111H95.1311Z" fill="#ECECEB"/>
<path d="M119.328 103.718L117.298 105.746L139.643 128.074L141.673 126.046L119.328 103.718Z" fill="#ECECEB"/>
<path d="M168.843 21.4031C167.886 21.8085 166.921 22.2139 165.972 22.627V170.306L90.0326 94.4242H151.144V136.282H154.015V91.5557H83.0894L168.835 177.237V21.4031H168.843Z" fill="#ECECEB"/>
<path d="M135.694 103.195L133.665 105.223L139.982 111.536L142.011 109.507L135.694 103.195Z" fill="#ECECEB"/>
<path d="M101.087 78.5057L103.123 80.5405L124.136 59.5352L143.091 78.4751L145.119 76.4404L124.136 55.4734L101.087 78.5057Z" fill="#ECECEB"/>
<path d="M8.53553 250.48V247.611H0.290897C0.19138 248.567 0.0918622 249.523 0 250.48H8.53553Z" fill="#ECECEB"/>
<path d="M8.53553 306.397V303.528H0C0.0918622 304.484 0.183724 305.44 0.290897 306.397H8.53553Z" fill="#ECECEB"/>
<path d="M84.0998 361.809L82.0711 359.782L32.4043 409.411C32.8789 410.283 33.3612 411.155 33.8511 412.027L84.1074 361.809H84.0998Z" fill="#ECECEB"/>
<path d="M42.6623 322.07V319.202H1.93677C2.08222 320.158 2.23532 321.114 2.38842 322.07H42.6623Z" fill="#ECECEB"/>
<path d="M42.6623 234.806V231.938H2.39599C2.24289 232.894 2.08978 233.85 1.94434 234.806H42.6699H42.6623Z" fill="#ECECEB"/>
<path d="M59.2127 221.022V218.153H5.00637C4.79968 219.109 4.60065 220.065 4.40161 221.022H59.2127Z" fill="#ECECEB"/>
<path d="M28.9365 374.216L26.9079 372.189L18.6938 380.397C19.0843 381.361 19.4747 382.325 19.8727 383.281L28.9365 374.224V374.216Z" fill="#ECECEB"/>
<path d="M43.6959 363.752V360.883H11.6819C11.9881 361.839 12.2943 362.803 12.6082 363.752H43.6959Z" fill="#ECECEB"/>
<path d="M76.4141 347.443H7.7854C8.03802 348.399 8.29064 349.363 8.55857 350.312H69.4785L24.9789 394.778C25.4153 395.696 25.8516 396.614 26.2956 397.524L76.4218 347.436L76.4141 347.443Z" fill="#ECECEB"/>
<path d="M59.2127 335.847V332.978H4.40161C4.60065 333.934 4.79968 334.891 5.00637 335.847H59.2127Z" fill="#ECECEB"/>
<path d="M283.248 395.447L281.218 397.476L320.63 436.858L322.66 434.83L283.248 395.447Z" fill="#ECECEB"/>
<path d="M184.008 110.671H181.137V179.34H184.008V110.671Z" fill="#ECECEB"/>
<path d="M295.773 364.915L293.745 362.88L276 380.611L258.263 362.88L256.227 364.915L276 384.673L295.773 364.915Z" fill="#ECECEB"/>
<path d="M238.138 104.131H214.927V107H238.138V104.131Z" fill="#ECECEB"/>
<path d="M241.238 191.969H183.893V194.838H241.238V191.969Z" fill="#ECECEB"/>
<path d="M197.24 123.714L195.21 125.742L237.717 168.231L239.747 166.203L197.24 123.714Z" fill="#ECECEB"/>
<path d="M276.115 352.622L281.948 358.451L283.977 356.424L278.144 350.595L283.977 344.766L281.948 342.731L276.115 348.56L270.282 342.731L268.245 344.766L274.079 350.595L268.245 356.424L270.282 358.451L276.115 352.622Z" fill="#ECECEB"/>
<path d="M196.718 144.179L194.688 146.208L226.869 178.353L228.899 176.324L196.718 144.179Z" fill="#ECECEB"/>
<path d="M256.227 189.085L258.263 191.12L276 173.389L293.745 191.12L295.781 189.085L275.816 168.83L256.227 189.085Z" fill="#ECECEB"/>
<path d="M231.372 117.158L229.342 119.187L268.754 158.569L270.784 156.541L231.372 117.158Z" fill="#ECECEB"/>
<path d="M276.115 201.462L270.282 195.633L268.245 197.66L274.079 203.489L268.245 209.318L270.282 211.353L276.115 205.516L281.948 211.345L283.977 209.318L278.144 203.489L283.977 197.66L281.948 195.633L276.115 201.462Z" fill="#ECECEB"/>
<path d="M185.21 497.861L187.238 499.888L226.724 460.44H187.422L187.912 459.951L260.797 387.121L249.467 375.8L247.439 377.834L256.732 387.121L180.486 463.309H219.788L185.21 497.861Z" fill="#ECECEB"/>
<path d="M205.144 375.283L193.658 386.761L195.688 388.79L207.174 377.312L205.144 375.283Z" fill="#ECECEB"/>
<path d="M195.687 165.191L193.657 167.22L205.145 178.696L207.175 176.667L195.687 165.191Z" fill="#ECECEB"/>
<path d="M237.728 385.755L195.222 428.244L197.252 430.272L239.758 387.783L237.728 385.755Z" fill="#ECECEB"/>
<path d="M241.238 359.162H183.893V362.031H241.238V359.162Z" fill="#ECECEB"/>
<path d="M226.857 375.662L194.676 407.807L196.706 409.836L228.887 377.69L226.857 375.662Z" fill="#ECECEB"/>
<path d="M185.21 56.1389L219.788 90.6912H180.486L256.732 166.879L247.439 176.173L249.467 178.2L260.797 166.879L187.422 93.5674H226.724L187.238 54.1118L185.21 56.1389Z" fill="#ECECEB"/>
<path d="M268.745 395.435L229.333 434.817L231.363 436.845L270.775 397.463L268.745 395.435Z" fill="#ECECEB"/>
<path d="M250.202 205.753H179.415V208.622H250.202V205.753Z" fill="#ECECEB"/>
<path d="M168.843 532.597V376.763L83.0969 462.444H154.022V417.718H151.152V459.576H90.0402L90.5301 459.086L165.98 383.694V531.373C166.937 531.786 167.893 532.192 168.85 532.597H168.843Z" fill="#ECECEB"/>
<path d="M184.008 374.66H181.137V443.329H184.008V374.66Z" fill="#ECECEB"/>
<path d="M185.983 539.114C186.993 539.459 188.004 539.803 189.022 540.139L276 453.227L362.978 540.139C363.996 539.803 365.007 539.466 366.017 539.114L276 449.165L185.983 539.114Z" fill="#ECECEB"/>
<path d="M242.164 466.713L240.135 464.686L171.193 533.576C172.157 533.966 173.122 534.356 174.087 534.739L242.164 466.713Z" fill="#ECECEB"/>
<path d="M171.193 20.4315L240.135 89.322L242.164 87.2949L174.087 19.2688C173.114 19.6513 172.15 20.0414 171.193 20.4315Z" fill="#ECECEB"/>
<path d="M362.986 13.8606L276.008 100.773L189.022 13.8606C188.004 14.1972 186.993 14.5337 185.983 14.8856L276 104.835L366.017 14.8856C365.007 14.5414 363.996 14.1972 362.978 13.8606H362.986Z" fill="#ECECEB"/>
<path d="M369.753 68.4099L358.267 79.8877L360.296 81.916L371.783 70.4383L369.753 68.4099Z" fill="#ECECEB"/>
<path d="M126.201 475.877L120.918 481.156L122.948 483.185L128.231 477.905L126.201 475.877Z" fill="#ECECEB"/>
<path d="M145.119 477.56L143.091 475.533L124.136 494.465L103.123 473.467L101.087 475.494L124.136 498.527L145.119 477.56Z" fill="#ECECEB"/>
<path d="M149.881 503.843H147.01V509.473H149.881V503.843Z" fill="#ECECEB"/>
<path d="M151.925 524.825L153.395 523.356L135.994 505.969L150.287 491.688L148.258 489.661L131.929 505.977L149.659 523.693C150.409 524.076 151.167 524.458 151.917 524.833L151.925 524.825Z" fill="#ECECEB"/>
<path d="M372.585 205.753H301.798V208.622H372.585V205.753Z" fill="#ECECEB"/>
<path d="M366.791 497.861L332.22 463.309H371.521L295.268 387.121L304.569 377.834L302.533 375.8L291.211 387.121L364.578 460.44H325.277L364.762 499.888L366.791 497.861Z" fill="#ECECEB"/>
<path d="M360.305 472.072L358.275 474.1L369.762 485.578L371.792 483.55L360.305 472.072Z" fill="#ECECEB"/>
<path d="M320.639 117.153L281.227 156.535L283.257 158.564L322.669 119.181L320.639 117.153Z" fill="#ECECEB"/>
<path d="M238.138 447H214.927V449.869H238.138V447Z" fill="#ECECEB"/>
<path d="M250.326 115.092L248.296 117.121L264.957 133.77L266.987 131.741L250.326 115.092Z" fill="#ECECEB"/>
<path d="M366.791 56.1389L364.762 54.1118L325.277 93.5674H364.578L291.211 166.879L302.533 178.2L304.569 176.173L295.268 166.879L371.521 90.6912H332.22L366.791 56.1389Z" fill="#ECECEB"/>
<path d="M250.202 345.378H179.415V348.246H250.202V345.378Z" fill="#ECECEB"/>
<path d="M276 124.471L304.049 96.4436L302.02 94.4165L276 120.417L249.988 94.4165L247.951 96.4436L275.992 124.463L276 124.471Z" fill="#ECECEB"/>
<path d="M191.68 472.124L180.192 483.6L182.221 485.629L193.71 474.153L191.68 472.124Z" fill="#ECECEB"/>
<path d="M182.242 68.4099L180.212 70.4382L191.699 81.916L193.729 79.8877L182.242 68.4099Z" fill="#ECECEB"/>
</g>
<defs>
<clipPath id="clip0_9213_64815">
<rect width="552" height="554" fill="white"/>
</clipPath>
</defs>
</svg>
