<svg width="586" height="586" viewBox="0 0 586 586" fill="none" xmlns="http://www.w3.org/2000/svg">
<path d="M292.875 130.812H291.343L293.135 0H294.667L292.877 130.812H292.875ZM264.698 133.266L243.794 4.14495L242.252 4.40299L263.155 133.524L264.698 133.266ZM237.386 140.597L194.341 17.0634L192.911 17.5693L235.955 141.105L237.386 140.599V140.597ZM211.764 152.581L147.975 38.3712L146.646 39.1474L210.435 153.347L211.764 152.581ZM188.654 168.821L105.966 67.4265L104.784 68.3957L187.484 169.801L188.654 168.821ZM168.675 188.812L69.6351 103.343L68.6111 104.526L167.651 189.985L168.675 188.815V188.812ZM152.491 211.967L40.0719 145.002L39.3059 146.331L151.671 213.296L152.493 211.967H152.491ZM140.554 237.633L18.2459 191.165L17.6831 192.596L139.992 239.019L140.554 237.633ZM133.223 264.945L4.71792 240.462L4.41315 241.937L132.917 266.433L133.221 264.945H133.223ZM130.814 293.123L0 291.333V292.875L130.812 294.665V293.123H130.814ZM133.528 322.788L133.28 321.256L4.15511 342.159L4.41315 343.701L133.524 322.788H133.528ZM141.119 349.998L140.601 348.568L17.0654 391.6L17.5835 393.041L141.119 349.996V349.998ZM153.361 375.518L152.595 374.189L38.3834 438.023L39.1494 439.352L153.361 375.518ZM169.805 398.527L168.835 397.344L67.4306 480.044L68.4099 481.214L169.805 398.527ZM189.997 418.302L188.815 417.278L103.355 516.318L104.526 517.342L189.995 418.302H189.997ZM213.31 434.283L211.969 433.517L145.004 545.881L146.345 546.647L213.31 434.283ZM239.078 445.962L237.648 445.399L191.224 567.707L192.655 568.27L239.078 445.962ZM266.445 453.035L264.958 452.73L240.462 581.233L241.949 581.538L266.445 453.035ZM294.669 455.186H293.137L291.347 585.998H292.879L294.669 455.186ZM343.705 581.595L322.802 452.474L321.26 452.732L342.173 581.843L343.705 581.595ZM393.045 568.374L350.012 444.838L348.572 445.356L391.616 568.882L393.047 568.376L393.045 568.374ZM439.366 546.806L375.52 432.641L374.191 433.417L438.038 547.572L439.366 546.806ZM481.228 517.547L398.529 416.197L397.346 417.177L480.046 518.515L481.228 517.545V517.547ZM517.346 481.474L418.306 395.96L417.282 397.143L516.322 482.602L517.346 481.476V481.474ZM546.651 439.612L434.299 372.647L433.523 373.976L545.887 440.941L546.653 439.612H546.651ZM568.274 393.347L445.978 346.924L445.415 348.365L567.711 394.776L568.274 393.345V393.347ZM581.552 344.008L453.049 319.512L452.734 321L581.237 345.496L581.552 344.008ZM586 293.125L455.201 291.335V292.877L586 294.667V293.125ZM581.855 243.786L581.597 242.254L452.486 263.157L452.734 264.689L581.855 243.786ZM568.892 194.345L568.374 192.915L444.848 235.947L445.354 237.388L568.89 194.343L568.892 194.345ZM547.572 147.922L546.806 146.593L432.651 210.439L433.417 211.768L547.572 147.922ZM518.527 105.958L517.547 104.788L416.21 187.431L417.179 188.601L518.529 105.958H518.527ZM482.612 69.6371L481.429 68.6131L395.97 167.653L397.141 168.677L482.61 69.6371H482.612ZM440.953 40.0739L439.624 39.2978L372.659 151.662L373.988 152.439L440.953 40.0739ZM394.79 18.2479L393.359 17.6851L346.936 139.981L348.367 140.544L394.79 18.2479ZM345.55 4.72199L344.063 4.40705L319.567 132.911L321.055 133.226L345.548 4.71793L345.55 4.72199ZM278.945 136.602L269.405 10.2953L267.873 10.3969L277.401 136.704L278.943 136.602H278.945ZM250.507 141.771L219.142 19.0566L220.629 18.7071L251.938 141.41L250.507 141.769V141.771ZM224.886 151.457L172.73 36.0163L174.104 35.4088L226.271 150.848L224.886 151.455V151.457ZM201.314 165.444L129.946 60.8169L131.23 59.9493L202.598 164.577L201.314 165.444ZM180.569 183.272L92.0808 92.6883L93.1516 91.6074L181.64 182.246L180.569 183.27V183.272ZM163.248 204.49L60.3679 130.598L61.2924 129.371L164.172 203.263L163.248 204.49ZM149.824 228.366L35.7136 173.44L36.3902 172.054L150.545 226.924L149.824 228.364V228.366ZM140.802 254.191L18.8656 219.965L19.272 218.477L141.221 252.704L140.804 254.191H140.802ZM136.399 281.186L10.3522 268.639L10.5107 267.097L136.558 279.654L136.399 281.186ZM10.4071 318.125L10.3055 316.593L136.6 307.065L136.702 308.597L10.4071 318.125ZM19.0668 366.799L18.7071 365.324L141.422 334.016L141.782 335.503L19.0668 366.801V366.799ZM36.0732 413.223L35.4657 411.837L150.905 359.682L151.512 361.068L36.0732 413.223ZM60.8271 456.009L59.9493 454.725L164.577 383.357L165.454 384.641L60.8271 456.009ZM92.6883 493.872L91.6175 492.802L182.256 404.313L183.327 405.384L92.6883 493.872ZM130.608 525.587L129.381 524.663L203.261 421.838L204.488 422.75L130.608 525.585V525.587ZM173.44 550.286L172.054 549.622L226.936 435.467L228.322 436.132L173.44 550.286ZM219.965 567.09L218.477 566.683L252.704 444.735L254.191 445.151L219.965 567.088V567.09ZM268.696 575.65L267.154 575.491L279.711 449.454L281.243 449.601L268.696 575.648V575.65ZM316.595 575.65L307.067 449.355L308.61 449.243L318.137 575.55L316.595 575.652V575.65ZM365.326 567.293L334.018 444.533L335.505 444.174L366.814 566.889L365.326 567.295V567.293ZM411.851 550.547L359.696 435.108L361.07 434.488L413.237 549.927L411.851 550.547ZM454.784 526.006L383.359 421.379L384.643 420.501L456.011 525.128L454.784 526.006ZM492.806 494.393L404.317 403.754L405.398 402.673L493.887 493.312L492.806 494.393ZM524.724 456.631L421.844 382.739L422.768 381.512L525.648 455.392L524.724 456.631ZM549.624 413.891L435.469 358.965L436.134 357.591L550.288 412.461L549.624 413.891ZM566.687 367.48L444.751 333.254L445.157 331.766L567.106 365.993L566.689 367.48H566.687ZM575.506 318.85L449.459 306.303L449.617 304.761L575.654 317.318L575.508 318.85H575.506ZM449.414 278.892L449.312 277.35L575.607 267.823L575.709 269.355L449.414 278.894V278.892ZM444.537 251.986L444.188 250.499L566.891 219.19L567.25 220.678L444.535 251.986H444.537ZM435.167 226.263L434.547 224.878L549.986 172.722L550.605 174.108L435.167 226.263ZM421.381 202.59L420.513 201.318L525.14 129.938L526.008 131.222L421.381 202.59ZM403.754 181.687L402.684 180.616L493.312 92.1275L494.393 93.1983L403.754 181.687ZM382.749 164.118L381.522 163.193L455.402 60.313L456.629 61.2375L382.749 164.118ZM359.019 150.49L357.646 149.826L412.516 35.6608L413.901 36.3374L359.019 150.492V150.49ZM333.252 141.211L331.764 140.804L365.991 18.8554L367.478 19.272L333.252 141.209V141.211ZM306.301 136.503L304.769 136.344L317.316 10.2973L318.858 10.4558L306.301 136.503ZM293.034 516.785C330.842 538.049 368.559 541.934 399.292 527.8C429.272 514.014 450.119 484.294 458.116 444.076C494.752 435.417 521.038 415.696 532.154 388.587C543.575 360.667 538.101 326.746 516.781 293.025C538.101 259.52 543.63 225.8 532.357 198.084C521.4 171.133 495.315 151.514 458.882 142.797C450.942 102.378 429.983 72.4533 399.912 58.5108C369.02 44.1742 331.043 48.0143 293.034 69.2775C255.373 48.0143 217.711 44.0604 187.067 58.1044C157.199 71.7889 136.342 101.397 128.357 141.524C91.5627 150.173 65.2321 169.904 54.059 197.115C42.5832 225.091 47.9656 259.159 69.2734 293.023C48.0103 330.683 44.0685 368.289 58.1573 398.98C71.8417 428.858 101.45 449.704 141.576 457.702C150.226 494.496 169.957 520.827 197.167 532C206.796 535.942 217.09 537.89 227.903 537.89C248.457 537.89 270.744 530.773 293.034 516.785ZM292.617 70.7648L292.977 70.968L293.336 70.7648C331.043 49.5463 368.658 45.7062 399.246 59.8518C429.012 73.6378 449.712 103.347 457.45 143.519L457.551 144.025L458.013 144.136C494.232 152.64 520.114 171.999 530.925 198.6C542.041 225.957 536.456 259.36 515.193 292.56L514.934 292.977L515.193 293.383C536.456 326.843 541.94 360.45 530.667 387.963C519.697 414.767 493.625 434.183 457.249 442.642L456.787 442.743L456.686 443.249C448.847 483.22 428.248 512.726 398.628 526.353C368.242 540.341 330.84 536.399 293.336 515.193L292.93 514.979L292.513 515.237C258.952 536.5 225.243 541.93 197.572 530.61C170.723 519.596 151.25 493.411 142.747 456.877L142.645 456.416L142.139 456.314C102.27 448.475 72.9104 427.876 59.3398 398.37C45.4542 368.041 49.4508 330.785 70.6592 293.44L70.8623 293.023L70.6145 292.617C49.3513 259.055 43.9121 225.337 55.2416 197.675C66.2562 170.827 92.4404 151.354 128.965 142.85L129.426 142.749L129.528 142.231C137.366 102.374 157.965 73.012 187.484 59.4312C199.321 54.0022 212.282 51.2876 225.81 51.2876C247.118 51.2876 269.869 57.8423 292.619 70.7607L292.617 70.7648ZM497.826 382.032C532.256 355.689 550.805 322.591 549.937 288.781C549.114 255.827 530.047 224.88 496.284 201.621C502.794 164.524 495.114 132.606 474.56 111.702C453.455 90.181 420.096 81.7774 380.699 88.0293C358.31 55.1888 329.558 36.7864 299.645 36.1769C270.533 35.5571 242.207 51.7529 219.818 81.8221C179.545 73.1725 143.775 80.5501 119.078 102.679C93.7144 125.429 82.1939 161.761 86.6985 205.098C52.269 231.339 33.7773 264.338 34.588 298.046C35.3641 330.887 54.3191 361.734 87.9826 384.99C81.4157 422.189 89.1082 454.219 109.707 475.224C130.869 496.847 164.319 505.35 203.826 499.157C230.01 533.587 263.009 552.079 296.717 551.256C329.558 550.49 360.405 531.535 383.674 497.873C420.873 504.428 452.892 496.748 473.895 476.149C481.328 468.873 487.218 460.168 491.475 450.267C499.618 431.312 501.87 407.999 497.826 382.03V382.032ZM87.9806 206.077L88.3402 205.819L88.2833 205.413C83.7218 162.368 95.0514 126.295 120.1 103.861C144.539 81.9785 180.004 74.7025 219.963 83.4658L220.424 83.5674L220.729 83.161C242.869 53.2362 270.891 37.144 299.586 37.7068C329.105 38.3265 357.587 56.672 379.673 89.3114L379.931 89.7178L380.392 89.6162C419.53 83.3094 452.527 91.5647 473.385 112.771C493.669 133.427 501.203 165.04 494.592 201.822L494.49 202.34L494.907 202.588C528.513 225.597 547.468 256.186 548.289 288.779C549.112 322.227 530.72 355.023 496.437 381.051L496.077 381.309L496.134 381.77C502.384 421.019 494.027 454.12 472.719 475.021C451.962 495.36 420.249 502.839 383.308 496.227L382.79 496.126L382.542 496.542C359.578 530.047 329.046 548.901 296.565 549.667C263.206 550.443 230.569 532.041 204.643 497.814L204.384 497.465L203.923 497.509C164.674 503.759 131.574 495.415 110.672 474.095C90.3334 453.337 82.8542 421.624 89.4658 384.684L89.5674 384.178L89.1509 383.92C55.6459 360.968 36.7925 330.423 36.0265 297.942C35.7116 284.878 38.3245 271.961 43.7068 259.516C52.1654 240.145 67.1217 221.856 87.9785 206.077H87.9806Z" fill="#ECECEB"/>
</svg>
